<svg
  xmlns="http://www.w3.org/2000/svg"
  width="256"
  height="256"
  aria-label="Atreides scroll decree icon"
  viewBox="0 0 256 256"
><defs><linearGradient id="b" x1="0" x2="1" y1="0" y2="1"><stop offset="0" stop-color="#f0d98a" /><stop
        offset=".45"
        stop-color="#b99a43"
      /><stop offset="1" stop-color="#7d6426" /></linearGradient><linearGradient
      id="c"
      x1="0"
      x2="0"
      y1="0"
      y2="1"
    ><stop offset="0" stop-color="#fff0b0" /><stop offset="1" stop-color="#b1913b" /></linearGradient><linearGradient
      id="d"
      x1="0"
      x2="0"
      y1="0"
      y2="1"
    ><stop offset="0" stop-color="#6f8460" /><stop offset=".28" stop-color="#304c35" /><stop
        offset=".72"
        stop-color="#23402e"
      /><stop offset="1" stop-color="#77906a" /></linearGradient><linearGradient
      id="f"
      x1="0"
      x2="1"
      y1="0"
      y2="1"
    ><stop offset="0" stop-color="#aebd91" /><stop offset="1" stop-color="#60774e" /></linearGradient><clipPath
      id="e"
    ><path d="M73 43c19 7 91 7 110 0v159c-23 11-87 11-110 0Z" /></clipPath><filter
      id="a"
      width="140%"
      height="140%"
      x="-20%"
      y="-20%"
    ><feDropShadow dx="0" dy="3" flood-color="#06120b" flood-opacity=".35" stdDeviation="2.5" /></filter></defs><g
    filter="url(#a)"
  ><rect width="148" height="22" x="54" y="35" fill="#1d2f22" rx="11" /><rect
      width="144"
      height="16"
      x="56"
      y="36"
      fill="url(#b)"
      rx="8"
    /><rect width="116" height="10" x="70" y="39" fill="#263d2b" opacity=".8" rx="5" /><path
      fill="url(#c)"
      d="m31 46 23-14v28Z"
    /><rect width="13" height="20" x="51" y="36" fill="url(#b)" rx="3" /><path
      fill="#806727"
      d="m37 46 17-7v14Z"
      opacity=".38"
    /><circle cx="202" cy="46" r="22" fill="url(#b)" /><circle cx="202" cy="46" r="15" fill="#17281d" /><circle
      cx="202"
      cy="46"
      r="8"
      fill="url(#b)"
    /><rect width="17" height="20" x="202" y="36" fill="url(#b)" rx="3" /><path
      fill="url(#c)"
      d="m219 32 25 14-25 14Z"
    /><path fill="#806727" d="m219 39 18 7-18 7Z" opacity=".35" /><path
      fill="url(#d)"
      stroke="url(#b)"
      stroke-width="5"
      d="M73 43c19 7 91 7 110 0v141c1 10-6 18-17 20-24 6-53 6-76 0-11-3-18-10-17-20Z"
    /><path
      fill="none"
      stroke="#94aa78"
      stroke-width="1.2"
      d="M81 57c22 5 72 5 94 0v117c-24 5-70 5-94 0Z"
      clip-path="url(#e)"
      opacity=".35"
    /><path fill="none" stroke="#cbb76a" stroke-width="2" d="M91 63c17 4 57 4 74 0" opacity=".35" /><path
      fill="#203928"
      stroke="url(#b)"
      stroke-width="5"
      d="M73 181c23 11 87 11 110 0v25c-23 13-87 13-110 0Z"
    /><path fill="url(#b)" d="M183 181c28 0 28 37 0 37-14 0-14-37 0-37" /><ellipse
      cx="184"
      cy="199"
      fill="#13251a"
      rx="14"
      ry="18"
    /><circle cx="184" cy="199" r="7" fill="url(#b)" /><path
      fill="none"
      stroke="url(#c)"
      stroke-linecap="round"
      stroke-width="5"
      d="M74 95c18-25 37-40 54-50 17 10 36 25 54 50"
    /><path
      fill="none"
      stroke="#8aa174"
      stroke-width="3"
      d="M90 101c13-19 26-30 38-37 12 7 25 18 38 37"
      opacity=".45"
    /><g fill="url(#c)"><path
        d="M128 88c9-6 21-4 26 3-7-1-13 0-17 5v39l-9 11-9-11V96c-4-2-8 0-11 5-1-7 7-11 20-13"
      /><path d="M118 104 76 83l12 26 28 17Z" /><path d="m112 124-28-10 8 16 22 9Z" /><path
        d="m110 140-19-3 9 14 19 3Z"
      /><path d="m138 104 42-21-12 26-28 17Z" /><path d="m144 124 28-10-8 16-22 9Z" /><path
        d="m146 140 19-3-9 14-19 3Z"
      /></g><path fill="#223928" d="m122 94 10-3-4 6Z" opacity=".85" /><path
      fill="url(#b)"
      d="m128 145 10 15-5 1v17l-5 13-5-13v-17l-5-1Z"
    /><path stroke="#f4df91" stroke-width="1.4" d="M118 160h20m-10-15v45" opacity=".55" /><g
      fill="url(#f)"
      stroke="url(#b)"
      stroke-width="2"
    ><path d="M115 168c-24-5-42-24-45-48 13 22 31 33 51 38Z" /><path
        d="M111 184c-23-5-38-21-44-43 16 16 31 25 53 30Z"
      /><path d="M141 168c24-5 42-24 45-48-13 22-31 33-51 38Z" /><path
        d="M145 184c23-5 38-21 44-43-16 16-31 25-53 30Z"
      /></g><path fill="url(#b)" d="m128 180 18 22-18 32-18-32Z" /><path
      fill="#244331"
      d="m128 190 10 13-10 17-10-17Z"
    /><path fill="none" stroke="#9db184" stroke-width="1.5" d="m128 190 10 13-10 17-10-17Z" /><path
      fill="none"
      stroke="#d8c477"
      stroke-width="2"
      d="M77 50c18 5 84 5 102 0"
      opacity=".45"
    /><path fill="none" stroke="#d8c477" stroke-width="2" d="M78 184c23 10 77 10 100 0" opacity=".32" /></g></svg>
