<svg
  xmlns="http://www.w3.org/2000/svg"
  width="256"
  height="256"
  fill="none"
  aria-label="Atreides inspired noble hawk faction crest"
  viewBox="0 0 256 256"
><defs><linearGradient id="a" x1="50" x2="206" y1="20" y2="230" gradientUnits="userSpaceOnUse"><stop
        offset="0"
        stop-color="#f2d98a"
      /><stop offset=".42" stop-color="#b8943f" /><stop
        offset="1"
        stop-color="#7b5f25"
      /></linearGradient><linearGradient id="d" x1="80" x2="174" y1="32" y2="204" gradientUnits="userSpaceOnUse"><stop
        offset="0"
        stop-color="#fff0b8"
      /><stop offset="1" stop-color="#b28a34" /></linearGradient><linearGradient
      id="c"
      x1="128"
      x2="128"
      y1="42"
      y2="228"
      gradientUnits="userSpaceOnUse"
    ><stop offset="0" stop-color="#284331" /><stop offset="1" stop-color="#10281f" /></linearGradient><linearGradient
      id="e"
      x1="45"
      x2="212"
      y1="80"
      y2="204"
      gradientUnits="userSpaceOnUse"
    ><stop offset="0" stop-color="#87966d" /><stop offset="1" stop-color="#4c6043" /></linearGradient><linearGradient
      id="f"
      x1="128"
      x2="128"
      y1="50"
      y2="214"
      gradientUnits="userSpaceOnUse"
    ><stop offset="0" stop-color="#1b3828" /><stop offset="1" stop-color="#0a1e18" /></linearGradient><filter
      id="b"
      width="140%"
      height="140%"
      x="-20%"
      y="-20%"
      color-interpolation-filters="sRGB"
    ><feDropShadow dx="0" dy="3" flood-color="#06120d" flood-opacity=".35" stdDeviation="2.2" /></filter></defs><path
    fill="url(#a)"
    d="m128 18 42 40 36 20-15 73-63 87-63-87-15-73 36-20z"
    filter="url(#b)"
  /><path fill="url(#c)" d="m128 29 36 35 31 19-14 62-53 75-53-75-14-62 31-19z" /><path
    stroke="url(#d)"
    stroke-width="4"
    d="m128 43 28 27 25 18-12 49-41 61-41-61-12-49 25-18z"
    opacity=".95"
  /><path fill="url(#a)" d="M77 84 25 39l8 75 48 36 11-18-34-26-17-44 47 39z" /><path
    fill="url(#a)"
    d="m179 84 52-45-8 75-48 36-11-18 34-26 17-44-47 39z"
  /><path fill="#142b21" d="M81 95 36 59l7 43 47 30Z" /><path fill="#243b2a" d="m87 125-48-24 11 31 51 18Z" /><path
    fill="url(#e)"
    d="m97 148-45-16 18 26 42 7Z"
  /><path fill="#71805f" d="m109 168-37-8 20 23 29-2Z" /><path fill="#142b21" d="m175 95 45-36-7 43-47 30Z" /><path
    fill="#243b2a"
    d="m169 125 48-24-11 31-51 18Z"
  /><path fill="url(#e)" d="m159 148 45-16-18 26-42 7Z" /><path fill="#71805f" d="m147 168 37-8-20 23-29-2Z" /><g
    stroke="url(#d)"
    stroke-linejoin="round"
    stroke-width="3"
  ><path d="M81 95 36 59l7 43 47 30Z" /><path d="m87 125-48-24 11 31 51 18Z" /><path
      d="m97 148-45-16 18 26 42 7Z"
    /><path d="m109 168-37-8 20 23 29-2Z" /><path d="m175 95 45-36-7 43-47 30Z" /><path
      d="m169 125 48-24-11 31-51 18Z"
    /><path d="m159 148 45-16-18 26-42 7Z" /><path d="m147 168 37-8-20 23-29-2Z" /></g><path
    fill="url(#d)"
    d="m128 52 9 34-7 39h-4l-7-39z"
  /><path stroke="url(#d)" stroke-width="3" d="M86 130c2-36 19-57 42-57s40 21 42 57" opacity=".8" /><path
    fill="url(#a)"
    d="m128 83 38 34-15 54-23 39-23-39-15-54z"
    filter="url(#b)"
  /><path fill="url(#f)" d="m128 94 27 27-12 44-15 26-15-26-12-44z" /><path
    fill="#6f8062"
    d="M103 122c12-14 33-18 50-11 11 4 18 11 21 19-8-3-16-3-22 2-7 5-11 15-13 26-4-12-3-22 4-30-14 4-27 2-40-6"
  /><path fill="url(#d)" d="M104 121c17-8 39-8 55-2-8-8-25-13-43-8-6 2-10 5-12 10" /><path
    fill="url(#a)"
    d="M154 126c8-3 17 1 23 9-9-1-17 2-23 10 2-8 3-14 0-19"
  /><path fill="#d7b557" d="m139 122 9-2-3 6h-8Z" /><path
    fill="#2e4b38"
    stroke="url(#d)"
    stroke-width="2"
    d="m110 139 18 18 17-18-6 27-11 12-11-12Z"
  /><path fill="url(#a)" d="m128 178 26 17-26 37-26-37z" /><path fill="#7f8d68" d="m128 189 15 10-15 19-15-19z" /><path
    fill="#1a3327"
    stroke="url(#d)"
    stroke-width="2"
    d="m112 193-13-15-3 27 20 13Z"
  /><path fill="#1a3327" stroke="url(#d)" stroke-width="2" d="m144 193 13-15 3 27-20 13Z" /><path
    fill="#6f7d5e"
    stroke="#a88a42"
    stroke-width="1.4"
    d="M63 190c-13 0-21 9-24 22 13-3 21-10 24-22Zm11 15c-13 2-21 12-22 25 13-5 20-12 22-25Zm119-15c13 0 21 9 24 22-13-3-21-10-24-22Zm-11 15c13 2 21 12 22 25-13-5-20-12-22-25Z"
    opacity=".95"
  /><path stroke="#f3d98b" stroke-width="1.2" d="M128 32v182" opacity=".32" /><path
    stroke="#f8e5a2"
    stroke-width="1.5"
    d="m74 86 54-55 54 55"
    opacity=".45"
  /></svg>
