<svg
  xmlns="http://www.w3.org/2000/svg"
  width="256"
  height="256"
  aria-label="Atreides story progression open book icon"
  viewBox="0 0 256 256"
><defs><linearGradient id="c" x1="0" x2="1" y1="0" y2="1"><stop offset="0" stop-color="#f0d37a" /><stop
        offset=".45"
        stop-color="#b98c33"
      /><stop offset="1" stop-color="#6f4f18" /></linearGradient><linearGradient
      id="e"
      x1="0"
      x2="1"
      y1="0"
      y2="1"
    ><stop offset="0" stop-color="#fff0ad" /><stop offset="1" stop-color="#b68a32" /></linearGradient><linearGradient
      id="b"
      x1="0"
      x2="1"
      y1="0"
      y2="1"
    ><stop offset="0" stop-color="#184b34" /><stop offset="1" stop-color="#082719" /></linearGradient><linearGradient
      id="d"
      x1="0"
      x2="1"
      y1="0"
      y2="1"
    ><stop offset="0" stop-color="#aab58a" /><stop offset="1" stop-color="#59684a" /></linearGradient><linearGradient
      id="f"
      x1="0"
      x2="1"
      y1="0"
      y2="1"
    ><stop offset="0" stop-color="#fff7d8" /><stop offset="1" stop-color="#d7bd72" /></linearGradient><filter
      id="a"
      width="140%"
      height="140%"
      x="-20%"
      y="-20%"
    ><feDropShadow dx="0" dy="4" flood-color="#000" flood-opacity=".35" stdDeviation="4" /></filter></defs><g
    filter="url(#a)"
  ><path
      fill="url(#b)"
      stroke="url(#c)"
      stroke-linejoin="round"
      stroke-width="5"
      d="m128 15 25 29 56 11 20 53-16 63-47 51-38 19-38-19-47-51-16-63 20-53 56-11Z"
    /><circle cx="128" cy="128" r="91" fill="none" stroke="url(#c)" stroke-width="5" /><circle
      cx="128"
      cy="128"
      r="78"
      fill="none"
      stroke="#7d6022"
      stroke-width="3"
      opacity=".9"
    /><circle cx="128" cy="128" r="69" fill="#0b311f" opacity=".58" /><g
      stroke="url(#c)"
      stroke-linejoin="round"
      stroke-width="3"
    ><path fill="url(#d)" d="M51 129c-13 13-14 36 2 50 14-19 16-36 7-58Z" /><path
        fill="#4e6142"
        d="M66 165c-16 11-15 33 6 44 10-21 7-33-6-44Z"
      /><path fill="url(#d)" d="M205 129c13 13 14 36-2 50-14-19-16-36-7-58Z" /><path
        fill="#4e6142"
        d="M190 165c16 11 15 33-6 44-10-21-7-33 6-44Z"
      /></g><path
      fill="url(#e)"
      stroke="url(#c)"
      stroke-linejoin="round"
      stroke-width="3"
      d="m128 16 16 32-16 22-16-22Z"
    /><path stroke="#6f4f18" stroke-width="2" d="M128 16v54" opacity=".65" /><g
      stroke="url(#e)"
      stroke-linejoin="round"
      stroke-width="2"
    ><path fill="url(#d)" d="M128 66c-14 22-18 43 0 73 18-30 14-51 0-73Z" /><path
        fill="#7f8f68"
        d="M105 79c-3 24 6 45 23 63 0-30-8-48-23-63Z"
      /><path fill="#7f8f68" d="M151 79c3 24-6 45-23 63 0-30 8-48 23-63Z" /><path
        fill="#62744f"
        d="M87 93c8 26 24 42 41 52-9-29-23-44-41-52Z"
      /><path fill="#62744f" d="M169 93c-8 26-24 42-41 52 9-29 23-44 41-52Z" /></g><path
      fill="#5b4219"
      d="M49 152c26-3 53 5 79 29 26-24 53-32 79-29v31c-30-2-56 6-79 25-23-19-49-27-79-25Z"
      opacity=".65"
    /><path
      fill="#8f6a24"
      stroke="url(#c)"
      stroke-linejoin="round"
      stroke-width="4"
      d="M45 94c32-1 57 12 83 43v62c-26-25-53-33-83-30Z"
    /><path
      fill="#8f6a24"
      stroke="url(#c)"
      stroke-linejoin="round"
      stroke-width="4"
      d="M211 94c-32-1-57 12-83 43v62c26-25 53-33 83-30Z"
    /><path
      fill="url(#f)"
      stroke="#f7e5a6"
      stroke-linejoin="round"
      stroke-width="3"
      d="M52 86c26 2 53 15 76 46v58c-25-25-50-36-76-32Z"
    /><path
      fill="url(#f)"
      stroke="#f7e5a6"
      stroke-linejoin="round"
      stroke-width="3"
      d="M204 86c-26 2-53 15-76 46v58c25-25 50-36 76-32Z"
    /><path fill="none" stroke="#c7a85a" stroke-width="2" d="M64 104c20 2 39 12 56 32" opacity=".75" /><path
      fill="none"
      stroke="#c7a85a"
      stroke-width="2"
      d="M63 125c22 2 42 12 58 29"
      opacity=".6"
    /><path fill="none" stroke="#c7a85a" stroke-width="2" d="M192 104c-20 2-39 12-56 32" opacity=".75" /><path
      fill="none"
      stroke="#c7a85a"
      stroke-width="2"
      d="M193 125c-22 2-42 12-58 29"
      opacity=".6"
    /><path stroke="#8f6a24" stroke-width="3" d="M128 132v66" /><path
      fill="none"
      stroke="#6f4f18"
      stroke-width="3"
      d="M53 160c30-2 52 10 75 34m75-34c-30-2-52 10-75 34"
      opacity=".75"
    /><path fill="none" stroke="#d0a84a" stroke-width="2" d="M58 170c26-1 47 8 70 32m70-32c-26-1-47 8-70 32" /><path
      fill="url(#e)"
      stroke="#6f4f18"
      stroke-width="2"
      d="m128 111 12 20-12 22-12-22Z"
    /><path fill="#265238" d="m128 119 6 13-6 12-6-12Z" opacity=".85" /><path
      fill="url(#d)"
      stroke="url(#c)"
      stroke-linejoin="round"
      stroke-width="4"
      d="m128 211 23 18-23 12-23-12Z"
    /><path stroke="#3c4933" stroke-width="2" d="M128 213v26" opacity=".7" /></g></svg>
