<svg
  xmlns="http://www.w3.org/2000/svg"
  width="256"
  height="256"
  aria-labelledby="title desc"
  viewBox="0 0 256 256"
><title>Atreides Reward Chest Icon</title><desc
  >A transparent sci-fi heraldic reward chest in deep green, sage, and muted gold.</desc><defs><linearGradient
      id="c"
      x1="44"
      x2="212"
      y1="51"
      y2="214"
      gradientUnits="userSpaceOnUse"
    ><stop offset="0" stop-color="#d8c27a" /><stop offset=".48" stop-color="#9e8543" /><stop
        offset="1"
        stop-color="#e6d08a"
      /></linearGradient><linearGradient id="d" x1="54" x2="198" y1="65" y2="213" gradientUnits="userSpaceOnUse"><stop
        offset="0"
        stop-color="#31573f"
      /><stop offset=".52" stop-color="#1e3d31" /><stop
        offset="1"
        stop-color="#122b25"
      /></linearGradient><linearGradient id="e" x1="66" x2="190" y1="90" y2="190" gradientUnits="userSpaceOnUse"><stop
        offset="0"
        stop-color="#91a77f"
      /><stop offset="1" stop-color="#5f755f" /></linearGradient><linearGradient
      id="a"
      x1="64"
      x2="192"
      y1="204"
      y2="226"
      gradientUnits="userSpaceOnUse"
    ><stop offset="0" stop-color="#071411" stop-opacity="0" /><stop
        offset=".5"
        stop-color="#071411"
        stop-opacity=".38"
      /><stop offset="1" stop-color="#071411" stop-opacity="0" /></linearGradient><filter
      id="b"
      width="140%"
      height="140%"
      x="-20%"
      y="-20%"
    ><feDropShadow dx="0" dy="8" flood-color="#071411" flood-opacity=".38" stdDeviation="6" /></filter></defs><ellipse
    cx="128"
    cy="216"
    fill="url(#a)"
    rx="72"
    ry="12"
  /><g filter="url(#b)"><path
      fill="#152e27"
      stroke="url(#c)"
      stroke-linejoin="round"
      stroke-width="5"
      d="m128 26 53 33-15 37-38-14-38 14-15-37Z"
    /><path
      fill="#274b38"
      stroke="#82956f"
      stroke-linejoin="round"
      stroke-width="2"
      d="m128 39 37 23-10 22-27-10-27 10-10-22Z"
      opacity=".95"
    /><path
      fill="url(#d)"
      stroke="url(#c)"
      stroke-linejoin="round"
      stroke-width="6"
      d="m61 91 21-26h92l21 26v32H61Z"
    /><path
      fill="none"
      stroke="#d6c078"
      stroke-linecap="round"
      stroke-linejoin="round"
      stroke-width="4"
      d="m82 65 14 23h64l14-23"
      opacity=".85"
    /><path stroke="#b99d58" stroke-linecap="round" stroke-width="5" d="M66 95h124" /><path
      fill="url(#d)"
      stroke="url(#c)"
      stroke-linejoin="round"
      stroke-width="6"
      d="M55 119h146l-11 85H66Z"
    /><path
      fill="#18362e"
      stroke="#738a65"
      stroke-linejoin="round"
      stroke-width="3"
      d="M69 135h34l-5 52H75Zm84 0h34l-6 52h-23Z"
    /><path fill="#284d38" d="M83 143h12l-3 36H79Zm81 0h12l-4 36h-11Z" opacity=".72" /><path
      fill="url(#e)"
      stroke="url(#c)"
      stroke-linejoin="round"
      stroke-width="5"
      d="M111 128h34l7 16v29l-24 18-24-18v-29Z"
    /><path
      fill="#d8c27a"
      stroke="#6e5a2e"
      stroke-linejoin="round"
      stroke-width="1.5"
      d="m128 137 11 17h-8l6 20-9-8-9 8 6-20h-8Z"
    /><circle cx="128" cy="153" r="4.5" fill="#1a332a" opacity=".9" /><path
      stroke="#e1cb82"
      stroke-linecap="round"
      stroke-width="4"
      d="M55 119h146"
      opacity=".9"
    /><path stroke="#a78949" stroke-linecap="round" stroke-width="5" d="m79 119-8 85m106-85 8 85" /><path
      stroke="#e1cb82"
      stroke-linecap="round"
      stroke-width="4"
      d="M64 204h128"
      opacity=".9"
    /><path fill="#d8c27a" d="M67 126h122l-4 8H71Z" opacity=".16" /><path
      stroke="#f0dfa5"
      stroke-linecap="round"
      stroke-width="2"
      d="M86 73h84m-57 59h30"
      opacity=".55"
    /><g fill="#d8c27a" stroke="#6b572e"><circle cx="73" cy="111" r="3.2" /><circle cx="183" cy="111" r="3.2" /><circle
        cx="75"
        cy="196"
        r="3.2"
      /><circle cx="181" cy="196" r="3.2" /><circle cx="96" cy="77" r="2.7" /><circle
        cx="160"
        cy="77"
        r="2.7"
      /></g><path
      fill="none"
      stroke="#afc19a"
      stroke-linecap="round"
      stroke-linejoin="round"
      stroke-width="3"
      d="m88 101 40-13 40 13"
      opacity=".8"
    /><path
      fill="none"
      stroke="#cbb46a"
      stroke-linecap="round"
      stroke-linejoin="round"
      stroke-width="2.5"
      d="m96 112 32-11 32 11"
      opacity=".85"
    /></g></svg>
