<svg
  xmlns="http://www.w3.org/2000/svg"
  width="256"
  height="256"
  aria-labelledby="title desc"
  viewBox="0 0 256 256"
><title>Atreides Level Icon</title><desc
  >Three stacked upward chevrons in muted gold over a deep green heraldic shield with sage laurel elements, on a transparent background.</desc><defs
  ><linearGradient id="c" x1="0" x2="1" y1="0" y2="1"><stop offset="0" stop-color="#fff0a8" /><stop
        offset=".22"
        stop-color="#d8b95b"
      /><stop offset=".5" stop-color="#9f8235" /><stop offset=".76" stop-color="#e7cd72" /><stop
        offset="1"
        stop-color="#7c6126"
      /></linearGradient><linearGradient id="d" x1="0" x2="0" y1="0" y2="1"><stop
        offset="0"
        stop-color="#173f2c"
      /><stop offset=".54" stop-color="#0f3526" /><stop
        offset="1"
        stop-color="#082319"
      /></linearGradient><linearGradient id="b" x1="0" x2="1" y1="0" y2="1"><stop
        offset="0"
        stop-color="#9dad78"
      /><stop offset=".55" stop-color="#66784e" /><stop offset="1" stop-color="#324b34" /></linearGradient><filter
      id="a"
      width="140%"
      height="145%"
      x="-20%"
      y="-20%"
    ><feDropShadow dx="0" dy="3" flood-color="#03130d" flood-opacity=".5" stdDeviation="2.2" /></filter><filter
      id="e"
      width="150%"
      height="150%"
      x="-25%"
      y="-25%"
    ><feDropShadow dx="0" dy="2" flood-color="#03130d" flood-opacity=".4" stdDeviation="1.4" /></filter></defs><g
    filter="url(#a)"
  ><g opacity=".94"><path
        fill="url(#b)"
        stroke="url(#c)"
        stroke-width="3"
        d="M64 185c-26-14-36-42-28-73 20 22 31 43 28 73Z"
      /><path
        fill="url(#b)"
        stroke="url(#c)"
        stroke-width="2.5"
        d="M50 196c-22-8-32-30-30-56 22 15 35 34 30 56Z"
      /><path fill="url(#b)" stroke="url(#c)" stroke-width="3" d="M192 185c26-14 36-42 28-73-20 22-31 43-28 73Z" /><path
        fill="url(#b)"
        stroke="url(#c)"
        stroke-width="2.5"
        d="M206 196c22-8 32-30 30-56-22 15-35 34-30 56Z"
      /><path fill="none" stroke="#d5bd65" stroke-width="1.2" d="M64 181c-12-24-20-45-26-66" opacity=".65" /><path
        fill="none"
        stroke="#d5bd65"
        stroke-width="1.1"
        d="M50 191c-10-18-19-34-28-48"
        opacity=".58"
      /><path fill="none" stroke="#d5bd65" stroke-width="1.2" d="M192 181c12-24 20-45 26-66" opacity=".65" /><path
        fill="none"
        stroke="#d5bd65"
        stroke-width="1.1"
        d="M206 191c10-18 19-34 28-48"
        opacity=".58"
      /></g><path
      fill="url(#d)"
      stroke="url(#c)"
      stroke-linejoin="round"
      stroke-width="5"
      d="m128 13 21 43 41-5-9 40 24 30-28 30-11 54-38 36-38-36-11-54-28-30 24-30-9-40 41 5Z"
    /><path
      fill="none"
      stroke="#2b6746"
      stroke-width="2.2"
      d="m128 24 17 38 35-3-9 34 23 28-26 27-10 51-30 29-30-29-10-51-26-27 23-28-9-34 35 3Z"
      opacity=".7"
    /><path stroke="#dfc56b" stroke-width="1.4" d="M128 17v216" opacity=".35" /><path
      fill="url(#c)"
      stroke="#6f5722"
      stroke-width="1.5"
      d="m128 27 7 40-7 16-7-16Z"
    /><path fill="url(#c)" stroke="#6f5722" stroke-width="1.3" d="M128 58c-13-3-18-8-23-15 14 1 20 7 23 17Z" /><path
      fill="url(#c)"
      stroke="#6f5722"
      stroke-width="1.3"
      d="M128 58c13-3 18-8 23-15-14 1-20 7-23 17Z"
    /><path fill="url(#c)" stroke="#6f5722" stroke-width="1.4" d="m128 229-8-27 8-22 8 22Z" /><path
      fill="url(#c)"
      stroke="#6f5722"
      stroke-width="1.2"
      d="M128 209c-13 1-21 7-27 16 15 1 24-5 27-16Z"
    /><path fill="url(#c)" stroke="#6f5722" stroke-width="1.2" d="M128 209c13 1 21 7 27 16-15 1-24-5-27-16Z" /><g
      stroke-linejoin="round"
      filter="url(#e)"
    ><path fill="url(#c)" stroke="#5f4a1d" stroke-width="3" d="m54 131 74-74 74 74-20 20-54-53-54 53Z" /><path
        fill="none"
        stroke="#fff0a8"
        stroke-width="2"
        d="m71 132 57-57 57 57"
        opacity=".8"
      /><path fill="url(#c)" stroke="#5f4a1d" stroke-width="3" d="m54 171 74-74 74 74-20 20-54-53-54 53Z" /><path
        fill="none"
        stroke="#fff0a8"
        stroke-width="2"
        d="m71 172 57-57 57 57"
        opacity=".78"
      /><path fill="url(#c)" stroke="#5f4a1d" stroke-width="3" d="m54 211 74-74 74 74-20 20-54-53-54 53Z" /><path
        fill="none"
        stroke="#fff0a8"
        stroke-width="2"
        d="m71 212 57-57 57 57"
        opacity=".76"
      /><path stroke="#fff7c4" d="M128 59v169" opacity=".36" /></g></g></svg>
