<svg
  xmlns="http://www.w3.org/2000/svg"
  width="256"
  height="256"
  aria-label="Atreides four-point compass star icon"
  viewBox="0 0 256 256"
><defs><linearGradient id="a" x1="64" x2="192" y1="40" y2="216" gradientUnits="userSpaceOnUse"><stop
        offset="0"
        stop-color="#d8c27a"
      /><stop offset=".45" stop-color="#a88b3c" /><stop
        offset="1"
        stop-color="#6e5724"
      /></linearGradient><linearGradient id="d" x1="72" x2="184" y1="48" y2="208" gradientUnits="userSpaceOnUse"><stop
        offset="0"
        stop-color="#5f7a5a"
      /><stop offset=".52" stop-color="#254535" /><stop
        offset="1"
        stop-color="#10291f"
      /></linearGradient><linearGradient id="e" x1="128" x2="128" y1="56" y2="200" gradientUnits="userSpaceOnUse"><stop
        offset="0"
        stop-color="#9bae86"
      /><stop offset="1" stop-color="#3b5f45" /></linearGradient><linearGradient
      id="f"
      x1="92"
      x2="164"
      y1="92"
      y2="164"
      gradientUnits="userSpaceOnUse"
    ><stop offset="0" stop-color="#18372b" /><stop offset="1" stop-color="#071812" /></linearGradient><filter
      id="c"
      width="140%"
      height="140%"
      x="-20%"
      y="-20%"
    ><feDropShadow dx="0" dy="5" flood-color="#020806" flood-opacity=".35" stdDeviation="5" /></filter></defs><path
    fill="url(#a)"
    d="m128 16 22.5 76.5L228 128l-77.5 35.5L128 240l-22.5-76.5L28 128l77.5-35.5Z"
    filter="url(#c)"
  /><path fill="url(#d)" d="m128 34 17.3 67.4L210 128l-64.7 26.6L128 222l-17.3-67.4L46 128l64.7-26.6Z" /><path
    fill="url(#e)"
    d="m128 34 17.3 67.4-17.3 16.2-17.3-16.2Z"
    opacity=".95"
  /><path fill="#1d3b2e" d="m210 128-64.7 26.6-17.3-16.2 17.3-37Z" opacity=".96" /><path
    fill="#153126"
    d="m128 222-17.3-67.4 17.3-16.2 17.3 16.2Z"
    opacity=".98"
  /><path fill="#46694d" d="m46 128 64.7-26.6 17.3 16.2-17.3 37Z" opacity=".96" /><path
    fill="url(#a)"
    d="m128 88 40 40-40 40-40-40Z"
  /><path fill="url(#f)" d="m128 99 29 29-29 29-29-29Z" /><path
    fill="#84a06f"
    d="m128 99 29 29-29-6Z"
    opacity=".9"
  /><path fill="#284f39" d="m157 128-29 29 6-29Z" /><path fill="#183629" d="m128 157-29-29 29 6Z" /><path
    fill="#5c7b55"
    d="m99 128 29-29-6 29Z"
  /><path
    fill="none"
    stroke="#c2a657"
    stroke-linecap="round"
    stroke-linejoin="round"
    stroke-width="3"
    d="M128 34v65m82 29h-53m-29 94v-65m-82-29h53"
    opacity=".72"
  /><path
    fill="none"
    stroke="#e2d08a"
    stroke-linejoin="round"
    stroke-width="1.6"
    d="m128 16 22.5 76.5L228 128l-77.5 35.5L128 240l-22.5-76.5L28 128l77.5-35.5Z"
    opacity=".55"
  /><path fill="#bfa35a" d="m128 113 11 11-4 20-7 7-7-7-4-20Z" opacity=".88" /><path
    fill="#264b37"
    d="m128 119 6 7-2 14-4 5-4-5-2-14Z"
    opacity=".9"
  /></svg>
