<svg
  xmlns="http://www.w3.org/2000/svg"
  width="256"
  height="256"
  aria-labelledby="title desc"
  viewBox="0 0 256 256"
><title>Atreides Premium Badge</title><desc
  >Transparent sci-fi rewards premium badge with noble octagonal frame, central star, deep green, sage, and muted gold heraldic geometry.</desc><defs
  ><linearGradient id="b" x1="48" x2="208" y1="28" y2="228" gradientUnits="userSpaceOnUse"><stop
        offset="0"
        stop-color="#f3d989"
      /><stop offset=".36" stop-color="#b8953d" /><stop offset=".7" stop-color="#e1c46c" /><stop
        offset="1"
        stop-color="#806421"
      /></linearGradient><linearGradient id="e" x1="80" x2="176" y1="56" y2="206" gradientUnits="userSpaceOnUse"><stop
        offset="0"
        stop-color="#ffe9a3"
      /><stop offset=".5" stop-color="#d2ad4f" /><stop
        offset="1"
        stop-color="#8c6f26"
      /></linearGradient><linearGradient id="f" x1="64" x2="198" y1="36" y2="222" gradientUnits="userSpaceOnUse"><stop
        offset="0"
        stop-color="#173b28"
      /><stop offset=".58" stop-color="#0e2f22" /><stop
        offset="1"
        stop-color="#071f18"
      /></linearGradient><linearGradient id="g" x1="58" x2="198" y1="82" y2="218" gradientUnits="userSpaceOnUse"><stop
        offset="0"
        stop-color="#c4c999"
      /><stop offset=".56" stop-color="#7f8e62" /><stop offset="1" stop-color="#455c3f" /></linearGradient><filter
      id="a"
      width="140%"
      height="140%"
      x="-20%"
      y="-20%"
    ><feDropShadow dx="0" dy="3" flood-color="#000" flood-opacity=".35" stdDeviation="2.2" /></filter><path
      id="d"
      d="m128 10 71 29 47 71v36l-47 71-71 29-71-29-47-71v-36l47-71Z"
    /></defs><g filter="url(#a)"><use fill="url(#b)" href="#d" /><path
      fill="#102f21"
      d="m128 23 62 25 42 64v32l-42 64-62 25-62-25-42-64v-32l42-64Z"
    /><path
      fill="none"
      stroke="url(#e)"
      stroke-width="5"
      d="m128 31 56 23 38 60v28l-38 60-56 23-56-23-38-60v-28l38-60Z"
    /><path
      fill="url(#f)"
      stroke="#92a06b"
      stroke-width="4"
      d="m128 43 48 20 33 53v24l-33 53-48 20-48-20-33-53v-24l33-53Z"
    /><path
      fill="none"
      stroke="#d1b45c"
      stroke-width="1.8"
      d="m128 52 42 17 29 49v20l-29 49-42 17-42-17-29-49v-20l29-49Z"
      opacity=".9"
    /><g
      fill="none"
      stroke="#d8bd61"
      stroke-linecap="round"
      stroke-linejoin="round"
      stroke-width="2.4"
      opacity=".95"
    ><path d="M53 94V78l23-19m127 35V78l-23-19M53 162v16l23 19m127-35v16l-23 19" /><path
        d="M78 48h34m32 0h34M78 208h34m32 0h34"
        opacity=".8"
      /></g><g fill="url(#e)" stroke="#6f551b" stroke-width="1.5"><path d="m118 20 10-10 10 10v22l-10 10-10-10Z" /><path
        d="m118 214 10-10 10 10v22l-10 10-10-10Z"
      /><path d="m20 118-10 10 10 10h22l10-10-10-10Z" /><path d="m236 118 10 10-10 10h-22l-10-10 10-10Z" /><path
        d="M56 56h14v14H56z"
      /><path d="M186 56h14v14h-14z" /><path d="M56 186h14v14H56z" /><path d="M186 186h14v14h-14z" /></g><g
      fill="none"
      stroke="url(#e)"
      stroke-linecap="round"
      stroke-width="3"
    ><path d="M69 115a61 61 0 0 1 50-47" /><path d="M137 68a61 61 0 0 1 50 47" /><path
        d="M187 141a61 61 0 0 1-50 47"
      /><path d="M119 188a61 61 0 0 1-50-47" /></g><g stroke="#6f551b" stroke-linejoin="round" stroke-width="1.25"><path
        fill="#ffe9a3"
        d="m128 54 10 58-10 16-10-16Z"
      /><path fill="#d0ab4a" d="m202 128-58 10-16-10 16-10Z" /><path
        fill="#a78634"
        d="m128 202-10-58 10-16 10 16Z"
      /><path fill="#edcf72" d="m54 128 58-10 16 10-16 10Z" /><path
        fill="#f3d989"
        d="m181 75-37 43-16 10 10-16Z"
      /><path fill="#967628" d="m181 181-43-37-10-16 16 10Z" /><path
        fill="#c49c3e"
        d="m75 181 37-43 16-10-10 16Z"
      /><path fill="#f6dea0" d="m75 75 43 37 10 16-16-10Z" /><circle
        cx="128"
        cy="128"
        r="3.4"
        fill="#fff0b6"
        stroke="none"
      /></g><g fill="url(#g)" stroke="#d4bf6a" stroke-linejoin="round" stroke-width="1.6"><path
        d="M65 147c13 31 33 50 59 61-20-26-35-50-42-76-4 14-10 19-17 15Z"
      /><path d="M191 147c-13 31-33 50-59 61 20-26 35-50 42-76 4 14 10 19 17 15Z" /><path
        fill="#536b47"
        d="M81 177c13 13 25 21 40 27l-18-23Zm94 0c-13 13-25 21-40 27l18-23Z"
      /><path fill="#2f5135" d="m101 205 27 17 27-17-10 21-17 12-17-12Z" /><path
        fill="url(#e)"
        d="m128 198 9 26-9 14-9-14Z"
      /></g><path
      fill="none"
      stroke="#f1d984"
      d="M40 118v-6l35-53m141 59v-6l-35-53M40 138v6l35 53m141-59v6l-35 53"
      opacity=".5"
    /></g></svg>
