<svg
  xmlns="http://www.w3.org/2000/svg"
  width="256"
  height="256"
  aria-label="Atreides desert tower icon"
  viewBox="0 0 256 256"
><defs><linearGradient id="c" x1="0" x2="1" y1="0" y2="1"><stop offset="0" stop-color="#1f3f2e" /><stop
        offset=".52"
        stop-color="#2f553d"
      /><stop offset="1" stop-color="#14281f" /></linearGradient><linearGradient
      id="b"
      x1="0"
      x2="1"
      y1="0"
      y2="1"
    ><stop offset="0" stop-color="#8b9870" /><stop offset="1" stop-color="#5f6f4e" /></linearGradient><linearGradient
      id="d"
      x1="0"
      x2="1"
      y1="0"
      y2="1"
    ><stop offset="0" stop-color="#f1dc86" /><stop offset=".48" stop-color="#b99b3d" /><stop
        offset="1"
        stop-color="#725d22"
      /></linearGradient><linearGradient id="e" x1="0" x2="1" y1="0" y2="1"><stop
        offset="0"
        stop-color="#d7bd63"
      /><stop offset="1" stop-color="#80671f" /></linearGradient><filter
      id="a"
      width="140%"
      height="140%"
      x="-20%"
      y="-20%"
    ><feDropShadow dx="0" dy="3" flood-color="#07120d" flood-opacity=".35" stdDeviation="2" /></filter></defs><g
    filter="url(#a)"
  ><path
      fill="url(#b)"
      d="M74 119c-3-40 20-76 54-91-27 28-33 66-21 101 10 29 32 50 63 59-44 5-86-22-96-69"
      opacity=".88"
    /><path
      fill="url(#b)"
      d="M182 119c3-40-20-76-54-91 27 28 33 66 21 101-10 29-32 50-63 59 44 5 86-22 96-69"
      opacity=".88"
    /><path
      fill="url(#c)"
      stroke="url(#d)"
      stroke-linejoin="round"
      stroke-width="4"
      d="m30 87 25 98 48 40-36-64Z"
    /><path
      fill="url(#c)"
      stroke="url(#d)"
      stroke-linejoin="round"
      stroke-width="4"
      d="m226 87-25 98-48 40 36-64Z"
    /><path
      fill="#1b3729"
      stroke="url(#e)"
      stroke-linejoin="round"
      stroke-width="3"
      d="m41 151 34 44 36 29-29-48Z"
    /><path
      fill="#1b3729"
      stroke="url(#e)"
      stroke-linejoin="round"
      stroke-width="3"
      d="m215 151-34 44-36 29 29-48Z"
    /><path stroke="#d6be64" stroke-linecap="round" stroke-width="3" d="m55 184 46 40m100-40-46 40" /><path
      fill="url(#c)"
      stroke="url(#d)"
      stroke-linejoin="round"
      stroke-width="4"
      d="M72 131h112l-8 71-48 34-48-34Z"
    /><path fill="#263f30" stroke="#a9913d" stroke-width="2" d="M88 126h23v70H88Zm57 0h23v70h-23Z" /><path
      fill="#314b37"
      stroke="#967d30"
      stroke-width="2"
      d="M63 148h28v54H63Zm102 0h28v54h-28Z"
    /><path
      fill="url(#c)"
      stroke="url(#d)"
      stroke-linejoin="round"
      stroke-width="4"
      d="m105 56 23-33 23 33v130h-46Z"
    /><path
      fill="#2d563e"
      stroke="url(#d)"
      stroke-linejoin="round"
      stroke-width="3"
      d="m116 33 12-15 12 15v24h-24Z"
    /><path fill="url(#d)" d="m121 17 7-14 7 14v74h-14Z" opacity=".92" /><path
      fill="#f4dd86"
      d="m128 3 7 14v74l-7-9Z"
      opacity=".62"
    /><path fill="#213e2d" stroke="#8d7730" stroke-width="2" d="M105 73 92 85v48h13Zm46 0 13 12v48h-13Z" /><path
      fill="#244331"
      stroke="url(#d)"
      stroke-linejoin="round"
      stroke-width="4"
      d="M97 102h62v74l-31 26-31-26Z"
    /><path stroke="#e6d383" stroke-linecap="round" stroke-width="3" d="M104 110h48" opacity=".7" /><path
      fill="#14271e"
      stroke="#d0b458"
      stroke-width="3"
      d="M116 191v-19c0-7 6-13 12-13s12 6 12 13v19Z"
    /><rect width="8" height="26" x="124" y="70" fill="#0d1c16" stroke="#c6a84d" stroke-width="2" rx="2" /><rect
      width="4"
      height="16"
      x="122"
      y="105"
      fill="#0d1c16"
      rx="1"
    /><rect width="4" height="16" x="132" y="105" fill="#0d1c16" rx="1" /><rect
      width="4"
      height="14"
      x="83"
      y="160"
      fill="#102319"
      rx="1"
    /><rect width="4" height="14" x="169" y="160" fill="#102319" rx="1" /><rect
      width="4"
      height="13"
      x="96"
      y="143"
      fill="#102319"
      rx="1"
    /><rect width="4" height="13" x="156" y="143" fill="#102319" rx="1" /><path
      fill="url(#d)"
      d="m128 129 4 8-4 7-4-7Z"
    /><path fill="url(#d)" d="m128 144-10-16v12l10 13Z" /><path fill="url(#d)" d="m128 144 10-16v12l-10 13Z" /><path
      fill="url(#d)"
      d="m118 128-14-9v11l17 13Z"
    /><path fill="url(#d)" d="m138 128 14-9v11l-17 13Z" /><path
      fill="#d9bf63"
      d="m112 139 12 12-12-3Zm32 0-12 12 12-3Z"
    /><path fill="url(#d)" d="m128 153-8 13h16Z" /><path
      fill="url(#d)"
      stroke="#f0d97a"
      stroke-linejoin="round"
      stroke-width="2"
      d="m128 203 14 21-14 20-14-20Z"
    /><path fill="#8b6f25" d="M128 203v41l14-20Z" opacity=".45" /><path
      fill="none"
      stroke="#d6bd60"
      stroke-linecap="round"
      stroke-linejoin="round"
      stroke-width="4"
      d="m80 201 48 43 48-43"
    /></g></svg>
