<svg xmlns="http://www.w3.org/2000/svg" width="256" height="256" fill="none" viewBox="0 0 256 256"><defs><linearGradient
      id="a"
      x1="128"
      x2="128"
      y1="36"
      y2="224"
      gradientUnits="userSpaceOnUse"
    ><stop offset="0" stop-color="#0b2a58" /><stop offset=".52" stop-color="#06142e" /><stop
        offset="1"
        stop-color="#020812"
      /></linearGradient><linearGradient id="b" x1="128" x2="128" y1="54" y2="208" gradientUnits="userSpaceOnUse"><stop
        offset="0"
        stop-color="#10376c"
      /><stop offset="1" stop-color="#031225" /></linearGradient><linearGradient
      id="c"
      x1="60"
      x2="196"
      y1="86"
      y2="162"
      gradientUnits="userSpaceOnUse"
    ><stop offset="0" stop-color="#a87c3d" /><stop offset=".45" stop-color="#f0cf82" /><stop
        offset="1"
        stop-color="#8a5f2c"
      /></linearGradient><linearGradient id="d" x1="128" x2="128" y1="74" y2="206" gradientUnits="userSpaceOnUse"><stop
        offset="0"
        stop-color="#63f4ff"
      /><stop offset=".48" stop-color="#19d8ff" /><stop offset="1" stop-color="#007cff" /></linearGradient><filter
      id="f"
      width="160%"
      height="160%"
      x="-30%"
      y="-30%"
    ><feGaussianBlur result="blur" stdDeviation="2.4" /><feMerge><feMergeNode in="blur" /><feMergeNode
          in="SourceGraphic"
        /></feMerge></filter><filter id="e" width="220%" height="220%" x="-60%" y="-60%"><feGaussianBlur
        result="blur"
        stdDeviation="4"
      /><feMerge><feMergeNode in="blur" /><feMergeNode in="SourceGraphic" /></feMerge></filter></defs><path
    fill="#02060d"
    d="m42 206 13 18h146l13-18-10-20H52z"
    opacity=".72"
  /><path
    fill="url(#a)"
    stroke="#061b3c"
    stroke-linejoin="round"
    stroke-width="4"
    d="m38 102 19-20h142l19 20v90l-16 22H54l-16-22z"
  /><path fill="#06152d" stroke="#102d5e" stroke-width="2" d="M54 112h148v78l-12 14H66l-12-14z" /><path
    fill="url(#b)"
    stroke="#071a37"
    stroke-linejoin="round"
    stroke-width="4"
    d="m46 78 24-24h116l24 24 8 26H38z"
  /><path fill="#091b3b" stroke="#143c76" stroke-width="2" d="M76 58h104l8 8 7 38H61l7-38z" /><path
    fill="url(#c)"
    stroke="#362716"
    stroke-linejoin="round"
    stroke-width="3"
    d="M40 104h176l-12 20H52z"
  /><path fill="#071630" stroke="#143866" stroke-width="3" d="M42 121h42v84H58l-16-18zm130 0h42v66l-16 18h-26z" /><path
    fill="#041020"
    stroke="#102a55"
    stroke-width="3"
    d="M88 121h80v84H88z"
  /><path fill="#071a34" stroke="#16437d" stroke-width="2" d="m100 134 14-13h28l14 13v70h-56z" /><path
    fill="#0a2045"
    stroke="#06162f"
    stroke-width="3"
    d="M50 185h32l11 13-10 20H55l-13-14zm124 13 11-13h21l8 19-13 14h-28l-10-20Z"
  /><path
    fill="url(#c)"
    stroke="#2c2117"
    stroke-linejoin="round"
    stroke-width="3"
    d="M66 116h25v18h-6v25l-7 10-7-10v-25h-5z"
  /><path
    fill="url(#c)"
    stroke="#2c2117"
    stroke-linejoin="round"
    stroke-width="3"
    d="M165 116h25v18h-5v25l-7 10-7-10v-25h-6z"
  /><path
    fill="#061426"
    stroke="#0b0f16"
    stroke-linejoin="round"
    stroke-width="8"
    d="m128 94 27 19v36l-27 32-27-32v-36z"
  /><path stroke="url(#c)" stroke-linejoin="round" stroke-width="6" d="m128 94 27 19v36l-27 32-27-32v-36z" /><path
    fill="#031022"
    stroke="#144c8a"
    stroke-width="2"
    d="m128 110 17 14v22l-17 20-17-20v-22z"
  /><path fill="url(#d)" d="M128 119s-15 21-15 32c0 9 7 17 15 17s15-8 15-17c0-11-15-32-15-32" filter="url(#e)" /><path
    fill="#74f6ff"
    d="M128 132s-8 13-8 20c0 5 4 9 8 9s8-4 8-9c0-7-8-20-8-20"
    opacity=".82"
  /><path stroke="url(#d)" stroke-linejoin="round" stroke-width="5" d="m128 67 15 20h-30z" filter="url(#f)" /><path
    stroke="url(#d)"
    stroke-linecap="round"
    stroke-width="5"
    d="M112 95h32"
    filter="url(#f)"
  /><path stroke="url(#d)" stroke-linecap="round" stroke-width="4" d="M119 103h18" filter="url(#f)" /><circle
    cx="104"
    cy="95"
    r="3.2"
    fill="#37e8ff"
    filter="url(#f)"
  /><circle cx="152" cy="95" r="3.2" fill="#37e8ff" filter="url(#f)" /><path
    stroke="url(#d)"
    stroke-linecap="round"
    stroke-width="4"
    d="M105 141v55"
    filter="url(#f)"
  /><path stroke="url(#d)" stroke-linecap="round" stroke-width="4" d="M151 141v55" filter="url(#f)" /><path
    stroke="url(#d)"
    stroke-linejoin="round"
    stroke-width="5"
    d="m128 187-10 10 10 10 10-10z"
    filter="url(#f)"
  /><path
    stroke="url(#d)"
    stroke-linecap="round"
    stroke-linejoin="round"
    stroke-width="4"
    d="M128 160v24m-12-11 12 11 12-11m-20-9 8 8 8-8"
    filter="url(#f)"
  /><circle cx="128" cy="216" r="4" fill="#24e6ff" filter="url(#f)" /><path
    stroke="url(#d)"
    stroke-linecap="round"
    stroke-width="4"
    d="M60 140v43"
    filter="url(#f)"
  /><path stroke="url(#d)" stroke-linecap="round" stroke-width="4" d="M196 140v43" filter="url(#f)" /><path
    stroke="url(#d)"
    stroke-linejoin="round"
    stroke-width="4"
    d="M75 66 63 92l20-13"
    filter="url(#f)"
  /><path stroke="url(#d)" stroke-linejoin="round" stroke-width="4" d="m181 66 12 26-20-13" filter="url(#f)" /><path
    stroke="#167ed0"
    stroke-linecap="round"
    stroke-linejoin="round"
    stroke-width="5"
    d="m73 187 9-9 12 19m89-10-9-9-12 19"
    opacity=".8"
  /><path
    stroke="#1a3767"
    stroke-width="2"
    d="m61 104 22 18m112-18-22 18M89 62l-13 42m91-42 13 42"
    opacity=".75"
  /><path stroke="#0e2b58" stroke-width="2" d="M88 122v82m80-82v82" opacity=".9" /></svg>
