<svg
  xmlns="http://www.w3.org/2000/svg"
  width="256"
  height="256"
  aria-labelledby="title desc"
  viewBox="0 0 256 256"
><title>Fremen Desert Navigation Star</title><desc
  >Transparent sci-fi rewards icon: a sharp blue four-point desert navigation star with deep navy facets, cyan highlights, and sacred minimal circular navigation marks.</desc><defs
  ><linearGradient id="c" x1="0" x2="1" y1="0" y2="1"><stop offset="0" stop-color="#020714" /><stop
        offset=".55"
        stop-color="#061a34"
      /><stop offset="1" stop-color="#0a2b50" /></linearGradient><linearGradient
      id="d"
      x1="0"
      x2="1"
      y1="0"
      y2="1"
    ><stop offset="0" stop-color="#06305e" /><stop offset=".55" stop-color="#006eea" /><stop
        offset="1"
        stop-color="#33e8ff"
      /></linearGradient><radialGradient id="b" cx="50%" cy="50%" r="55%"><stop offset="0" stop-color="#63f7ff" /><stop
        offset=".45"
        stop-color="#008cff"
        stop-opacity=".9"
      /><stop offset="1" stop-color="#001b70" stop-opacity="0" /></radialGradient><filter
      id="a"
      width="200%"
      height="200%"
      x="-50%"
      y="-50%"
    ><feGaussianBlur result="blur" stdDeviation="2.2" /><feMerge><feMergeNode in="blur" /><feMergeNode
          in="SourceGraphic"
        /></feMerge></filter></defs><g fill="none" stroke-linecap="round" stroke-linejoin="round"><circle
      cx="128"
      cy="128"
      r="58"
      stroke="#0078ff"
      stroke-dasharray="48 26"
      stroke-width="3"
      opacity=".9"
    /><circle
      cx="128"
      cy="128"
      r="76"
      stroke="#061a34"
      stroke-dasharray="44 34"
      stroke-width="3"
      opacity=".95"
    /><circle cx="128" cy="128" r="47" stroke="#20d9ff" stroke-dasharray="1 8" stroke-width="2" opacity=".85" /></g><g
    filter="url(#a)"
  ><circle cx="128" cy="128" r="21" fill="url(#b)" opacity=".85" /></g><g
    stroke="#051226"
    stroke-linejoin="round"
    stroke-width="1.5"
  ><path fill="url(#c)" d="m128 21 15 88 92 19-92 19-15 88-15-88-92-19 92-19z" /><path
      fill="#020817"
      d="m128 21 6 85-6 13-6-13zm0 214 6-85-6-13-6 13zM21 128l87-6 12 6-12 6zm214 0-87-6-12 6 12 6z"
      opacity=".96"
    /><path fill="#0b2b50" d="m122 106-9 3-5 13 12 6z" opacity=".8" /><path
      fill="#123a68"
      d="m134 106 9 3 5 13-12 6z"
      opacity=".76"
    /><path fill="#0b2b50" d="m120 128-12 6 5 13 9 3z" opacity=".75" /><path
      fill="#123a68"
      d="m136 128 12 6-5 13-9 3z"
      opacity=".72"
    /><path fill="url(#d)" d="m128 64 4 52 60 12-60 12-4 52-4-52-60-12 60-12z" opacity=".9" /><path
      fill="#062eea"
      stroke="#55f7ff"
      stroke-width="4"
      d="m128 107 8 21-8 21-8-21z"
    /></g><path
    fill="none"
    stroke="#29dfff"
    stroke-linecap="round"
    stroke-width="2"
    d="M128 37v74m0 34v74m-91-91h74m34 0h74"
    opacity=".95"
  /><path
    fill="#006eff"
    stroke="#42ecff"
    d="m128 6 7 11-7 11-7-11zm0 222 7 11-7 11-7-11zM6 128l11-7 11 7-11 7zm222 0 11-7 11 7-11 7z"
  /><g fill="#0c7dff" opacity=".95"><circle cx="128" cy="37" r="2.3" /><circle cx="128" cy="47" r="2.1" /><circle
      cx="128"
      cy="219"
      r="2.3"
    /><circle cx="128" cy="209" r="2.1" /><circle cx="37" cy="128" r="2.3" /><circle cx="47" cy="128" r="2.1" /><circle
      cx="219"
      cy="128"
      r="2.3"
    /><circle cx="209" cy="128" r="2.1" /></g><g fill="#061a34" stroke="#0b8dff"><circle cx="78" cy="78" r="4" /><circle
      cx="178"
      cy="78"
      r="4"
    /><circle cx="78" cy="178" r="4" /><circle cx="178" cy="178" r="4" /></g></svg>
