<svg
  xmlns="http://www.w3.org/2000/svg"
  width="256"
  height="256"
  aria-label="Fremen inspired tribal faction crest"
  viewBox="0 0 256 256"
><defs><linearGradient id="a" x1="64" x2="192" y1="20" y2="236" gradientUnits="userSpaceOnUse"><stop
        offset="0"
        stop-color="#071629"
      /><stop offset=".55" stop-color="#020815" /><stop
        offset="1"
        stop-color="#0a2a50"
      /></linearGradient><linearGradient id="c" x1="80" x2="180" y1="30" y2="222" gradientUnits="userSpaceOnUse"><stop
        offset="0"
        stop-color="#5ffcff"
      /><stop offset=".5" stop-color="#22c8ff" /><stop
        offset="1"
        stop-color="#126dff"
      /></linearGradient><linearGradient id="b" x1="42" x2="214" y1="80" y2="212" gradientUnits="userSpaceOnUse"><stop
        offset="0"
        stop-color="#061325"
      /><stop offset="1" stop-color="#0b3567" /></linearGradient><filter
      id="d"
      width="160%"
      height="160%"
      x="-30%"
      y="-30%"
    ><feGaussianBlur result="blur" stdDeviation="1.35" /><feMerge><feMergeNode in="blur" /><feMergeNode
          in="SourceGraphic"
        /></feMerge></filter></defs><path
    fill="url(#a)"
    d="M128 14c-23 11-34 31-38 58-5 16-18 34-38 46 12 7 23 9 36 3-16 18-40 29-60 29 11 20 26 37 46 49 17 11 31 22 54 43 23-21 37-32 54-43 20-12 35-29 46-49-20 0-44-11-60-29 13 6 24 4 36-3-20-12-33-30-38-46-4-27-15-47-38-58"
  /><path
    fill="#020814"
    d="M128 20c-19 11-28 30-29 55-1 17 8 39 20 67l9 24 9-24c12-28 21-50 20-67-1-25-10-44-29-55"
  /><path fill="url(#b)" d="M91 81c-14 22-26 42-40 54 19 0 40-10 56-24-6-11-11-21-16-30" /><path
    fill="url(#b)"
    d="M165 81c14 22 26 42 40 54-19 0-40-10-56-24 6-11 11-21 16-30"
  /><path
    fill="#031124"
    d="M68 151c-16 6-25 15-33 30 20 7 38 6 56-7-9-6-16-14-23-23m120 0c16 6 25 15 33 30-20 7-38 6-56-7 9-6 16-14 23-23"
  /><path fill="url(#c)" d="M42 89c-12 24-14 53-4 75 1-29 11-52 23-68-6 2-12 0-19-7" opacity=".95" /><path
    fill="url(#c)"
    d="M214 89c12 24 14 53 4 75-1-29-11-52-23-68 6 2 12 0 19-7"
    opacity=".95"
  /><path
    fill="#071428"
    d="M42 127c-9 20-8 43 3 63 9-14 17-25 31-33-14-6-25-16-34-30m172 0c9 20 8 43-3 63-9-14-17-25-31-33 14-6 25-16 34-30"
  /><path
    fill="none"
    stroke="#e9fbff"
    stroke-linecap="round"
    stroke-width="4"
    d="M86 93c14 29 27 51 35 79m49-79c-14 29-27 51-35 79"
    opacity=".9"
  /><path
    fill="none"
    stroke="#e9fbff"
    stroke-linecap="round"
    stroke-width="5"
    d="M50 132c17 12 34 14 53 2m103-2c-17 12-34 14-53 2"
    opacity=".9"
  /><g fill="none" stroke="url(#c)" stroke-linecap="round" stroke-linejoin="round" filter="url(#d)"><path
      stroke-width="2.5"
      d="M128 18v26"
    /><path stroke-width="3" d="M128 73v142" /><circle cx="128" cy="28" r="5" fill="#55f7ff" stroke="none" /><circle
      cx="128"
      cy="60"
      r="2.5"
      fill="#55f7ff"
      stroke="none"
    /><circle cx="128" cy="107" r="5" fill="#22d6ff" stroke="none" /><circle
      cx="128"
      cy="150"
      r="6"
      fill="#23caff"
      stroke="none"
    /><circle cx="128" cy="150" r="11" stroke-width="4" /><circle
      cx="128"
      cy="218"
      r="6"
      fill="#55f7ff"
      stroke="none"
    /></g><g filter="url(#d)"><path
      fill="none"
      stroke="url(#c)"
      stroke-linecap="round"
      stroke-width="6"
      d="M108 67a20 20 0 1 1 40 0"
    /><path
      fill="none"
      stroke="#64fcff"
      stroke-linecap="round"
      stroke-width="4"
      d="M97 67a31 31 0 0 1 14-25m48 25a31 31 0 0 0-14-25"
      opacity=".9"
    /><path fill="url(#c)" d="M128 48c9 11 14 19 14 27 0 9-6 16-14 16s-14-7-14-16c0-8 5-16 14-27" /></g><g
    fill="url(#c)"
    filter="url(#d)"
  ><path d="M92 88c10 2 19 7 25 14-12-1-20-4-29-10Z" /><path d="M164 88c-10 2-19 7-25 14 12-1 20-4 29-10Z" /></g><g
    stroke="url(#c)"
    stroke-linecap="round"
    filter="url(#d)"
  ><path fill="none" stroke-width="8" d="M103 181a25 25 0 0 0 50 0" /><path
      stroke-width="3"
      d="M104 177h48m-43 9h38m-32 8h26m-20 8h14"
    /></g><g fill="none" stroke="url(#c)" stroke-linecap="round" stroke-width="2.4" opacity=".9"><path
      d="M101 111c-13 15-21 34-24 58"
    /><path d="M155 111c13 15 21 34 24 58" /><path d="M62 171c15 5 26 2 37-8" /><path
      d="M194 171c-15 5-26 2-37-8"
    /><path d="M48 160c13 6 24 6 36 1" /><path d="M208 160c-13 6-24 6-36 1" /></g><path
    stroke="#25cfff"
    stroke-linecap="round"
    stroke-width="3"
    d="m73 137-3 9m14-7-2 11m101-13 3 9m-14-7 2 11"
    opacity=".9"
  /></svg>
