<svg xmlns="http://www.w3.org/2000/svg" width="256" height="256" fill="none" viewBox="0 0 256 256"><defs><linearGradient
      id="a"
      x1="47"
      x2="205"
      y1="28"
      y2="229"
      gradientUnits="userSpaceOnUse"
    ><stop offset="0" stop-color="#061a35" /><stop offset=".58" stop-color="#031126" /><stop
        offset="1"
        stop-color="#020917"
      /></linearGradient><linearGradient id="b" x1="73" x2="188" y1="58" y2="205" gradientUnits="userSpaceOnUse"><stop
        offset="0"
        stop-color="#20f2ff"
      /><stop offset="1" stop-color="#27f" /></linearGradient><radialGradient
      id="c"
      cx="0"
      cy="0"
      r="1"
      gradientTransform="rotate(90 -2 130)scale(70)"
      gradientUnits="userSpaceOnUse"
    ><stop offset="0" stop-color="#00efff" stop-opacity=".22" /><stop
        offset="1"
        stop-color="#00efff"
        stop-opacity="0"
      /></radialGradient><filter
      id="d"
      width="160%"
      height="160%"
      x="-30%"
      y="-30%"
      color-interpolation-filters="sRGB"
    ><feGaussianBlur result="blur" stdDeviation="1.2" /><feMerge><feMergeNode in="blur" /><feMergeNode
          in="SourceGraphic"
        /></feMerge></filter></defs><path
    fill="url(#a)"
    d="M61 35c7-6 15-8 26-8h71c18-2 32-6 41 1 10 8 12 23 8 40l-8 33 4 38-5 40c-2 17-9 36-21 46-16-3-36-5-54-5H70c-10 0-18-3-22-9 3-13 5-25 4-39-2-19-3-39 0-59 3-21-2-41 2-60 1-7 4-13 7-18"
  /><path
    fill="url(#a)"
    d="M60 40 48 58l17-2-15 16 16 4-16 12 16 6-12 17 11 5-12 17 11 7-16 14 13 10-18 15 17 5-15 15 10 16 17-10 4 15 19-12 4 14 19-12 5 12 19-13 6 13 18-15 8 18c11-8 19-26 22-44l7-42-4-38 8-33c4-17 2-32-8-40-9-7-23-3-41-1H87c-11 0-19 2-26 8-.4 1.6-.8 3.2-1 5"
  /><path fill="#020a18" d="M171 27h27c20 0 33 15 33 37s-13 37-33 37h-17c8-25 6-49-10-74" /><path
    stroke="url(#b)"
    stroke-linecap="round"
    stroke-width="4"
    d="M181 101c7-25 6-49-10-74"
  /><path
    stroke="url(#b)"
    stroke-linecap="round"
    stroke-width="4"
    d="M202 84c13-2 20-11 19-23-1-11-8-18-17-19-11-1-20 7-20 19 0 9 6 15 14 15 6 0 10-4 10-9"
  /><circle cx="128" cy="132" r="78" fill="url(#c)" /><g
    stroke="url(#b)"
    stroke-linecap="round"
    stroke-linejoin="round"
    filter="url(#d)"
  ><circle cx="128" cy="132" r="48" stroke-width="4" /><path stroke-width="3" d="M82 130c2-25 19-45 41-52" /><path
      stroke-width="3"
      d="M174 130c-2-25-19-45-41-52"
    /><path stroke-width="3" d="M88 153c9 22 24 34 40 34" /><path
      stroke-width="3"
      d="M168 153c-9 22-24 34-40 34"
    /><path stroke-width="5" d="M128 89s-23 30-23 50c0 15 10 25 23 25s23-10 23-25c0-20-23-50-23-50" /><path
      stroke-width="5"
      d="M109 158c7 16 31 16 38 0"
    /><path stroke-width="4" d="M108 176h40" /><path stroke-width="3" d="M116 184h24" /><path
      stroke-width="3"
      d="M73 108c8-23 26-40 49-46"
    /><path stroke-width="3" d="M134 62c23 6 41 23 49 46" /><path stroke-width="3" d="M73 156c8 23 26 40 49 46" /><path
      stroke-width="3"
      d="M134 202c23-6 41-23 49-46"
    /><path stroke-width="3" d="M128 43v26" /><circle cx="128" cy="78" r="8" fill="#061a35" stroke-width="4" /><path
      stroke-width="3"
      d="M128 92v7"
    /><path fill="#18e9ff" d="m128 38 5 5-5 5-5-5Z" /><path fill="#18e9ff" d="m128 101 7 7-7 7-7-7Z" /><path
      stroke-width="3"
      d="M128 181v30"
    /><path fill="#18e9ff" d="m128 198 8 13h-16z" /><circle cx="128" cy="188" r="4" fill="#18e9ff" /><path
      stroke-width="3"
      d="M62 103v42"
    /><path stroke-width="3" d="M194 103v42" /><path fill="#18e9ff" d="m62 91 6 9H56z" /><path
      fill="#18e9ff"
      d="m194 91 6 9h-12z"
    /><path fill="#18e9ff" d="m62 116 7 7-7 7-7-7Z" /><path fill="#18e9ff" d="m194 116 7 7-7 7-7-7Z" /><path
      stroke-width="6"
      d="M62 155v9"
    /><path stroke-width="6" d="M194 155v9" /></g></svg>
