<svg
  xmlns="http://www.w3.org/2000/svg"
  width="256"
  height="256"
  fill="none"
  aria-label="Fremen sci-fi hexagonal intel token icon"
  viewBox="0 0 256 256"
><defs><linearGradient id="b" x1="62" x2="194" y1="44" y2="212" gradientUnits="userSpaceOnUse"><stop
        stop-color="#071224"
      /><stop offset=".46" stop-color="#0b2442" /><stop
        offset="1"
        stop-color="#05101f"
      /></linearGradient><linearGradient id="c" x1="78" x2="178" y1="54" y2="202" gradientUnits="userSpaceOnUse"><stop
        stop-color="#5eebff"
      /><stop offset=".48" stop-color="#128cff" /><stop
        offset="1"
        stop-color="#0a2b66"
      /></linearGradient><radialGradient
      id="e"
      cx="0"
      cy="0"
      r="1"
      gradientTransform="rotate(90 0 128)scale(46)"
      gradientUnits="userSpaceOnUse"
    ><stop stop-color="#74f7ff" stop-opacity=".95" /><stop offset=".36" stop-color="#179dff" stop-opacity=".45" /><stop
        offset="1"
        stop-color="#04101f"
        stop-opacity="0"
      /></radialGradient><clipPath id="d"><path d="m128 30 83.14 48v100L128 226l-83.14-48V78z" /></clipPath><filter
      id="a"
      width="192"
      height="208"
      x="32"
      y="24"
      color-interpolation-filters="sRGB"
      filterUnits="userSpaceOnUse"
    ><feGaussianBlur result="blur" stdDeviation="2.8" /><feColorMatrix
        in="blur"
        result="coloredBlur"
        values="0 0 0 0 0.02 0 0 0 0 0.75 0 0 0 0 1 0 0 0 0.55 0"
      /><feMerge><feMergeNode in="coloredBlur" /><feMergeNode in="SourceGraphic" /></feMerge></filter></defs><g
    filter="url(#a)"
  ><path fill="url(#b)" d="m128 30 83.14 48v100L128 226l-83.14-48V78z" /><path
      stroke="url(#c)"
      stroke-linejoin="round"
      stroke-width="3"
      d="m128 35 78.81 45.5v95L128 221l-78.81-45.5v-95z"
    /><path
      stroke="#071c36"
      stroke-linejoin="round"
      stroke-width="8"
      d="m128 48 67.55 39v78L128 204l-67.55-39V87z"
      opacity=".78"
    /><path
      stroke="#2bcfff"
      stroke-linejoin="round"
      stroke-width="1.4"
      d="m128 49.5 66.25 38.25v76.5L128 202.5l-66.25-38.25v-76.5z"
      opacity=".86"
    /></g><g clip-path="url(#d)"><path
      stroke="#071b32"
      stroke-width="12"
      d="m31 196 73-126M63 216l94-166m25 166 43-75"
      opacity=".38"
    /><path
      stroke="#0d82d9"
      stroke-linecap="round"
      stroke-width="2"
      d="M128 64v22m0 84v22m-64-64h24m80 0h24"
      opacity=".68"
    /><path
      stroke="#3ee7ff"
      stroke-linecap="round"
      stroke-linejoin="round"
      stroke-width="2"
      d="M88 88h21l12 12m47-12h-21l-12 12m-47 68h21l12-12m47 12h-21l-12-12"
      opacity=".86"
    /><path
      stroke="#116fbf"
      stroke-linecap="round"
      stroke-width="2"
      d="M101 75h18m18 0h18m-54 106h18m18 0h18"
      opacity=".72"
    /></g><circle cx="128" cy="128" r="48" fill="url(#e)" opacity=".85" /><g
    stroke-linecap="round"
    stroke-linejoin="round"
  ><path
      stroke="#4aeaff"
      stroke-width="3"
      d="M128 76a52 52 0 0 1 48.75 34M76 128a52 52 0 0 1 34-48.75M128 180a52 52 0 0 1-48.75-34M180 128a52 52 0 0 1-34 48.75"
      opacity=".86"
    /><path
      stroke="#116fff"
      stroke-width="3"
      d="M101.5 101.5a37.5 37.5 0 0 1 53 0m0 53a37.5 37.5 0 0 1-53 0"
      opacity=".9"
    /><path stroke="#58f4ff" stroke-width="2.6" d="M91 128h19m36 0h19m-37-37v19m0 36v19" opacity=".95" /><path
      stroke="#0e5aa8"
      stroke-width="2.2"
      d="m112 112 8 8m24-8-8 8m-24 24 8-8m24 8-8-8"
      opacity=".88"
    /></g><circle cx="128" cy="128" r="17" fill="#041225" stroke="#36e8ff" stroke-width="2.5" /><circle
    cx="128"
    cy="128"
    r="7"
    fill="#76f8ff"
  /><circle cx="128" cy="128" r="3" fill="#e7feff" opacity=".95" /><g fill="#48eaff"><circle
      cx="128"
      cy="84"
      r="3"
      opacity=".95"
    /><circle cx="172" cy="128" r="3" opacity=".95" /><circle cx="128" cy="172" r="3" opacity=".95" /><circle
      cx="84"
      cy="128"
      r="3"
      opacity=".95"
    /></g><path
    stroke="#6ff7ff"
    stroke-linejoin="round"
    d="m128 30 83.14 48v100L128 226l-83.14-48V78z"
    opacity=".4"
  /></svg>
