<svg
  xmlns="http://www.w3.org/2000/svg"
  width="256"
  height="256"
  aria-labelledby="title desc"
  viewBox="0 0 256 256"
><title>Fremen Desert Tower Icon</title><desc
  >Transparent sci-fi desert tower and hidden sietch fortress icon in deep navy and cyan.</desc><defs><linearGradient
      id="c"
      x1="0"
      x2="0"
      y1="18"
      y2="224"
      gradientUnits="userSpaceOnUse"
    ><stop offset="0" stop-color="#082a63" /><stop offset=".48" stop-color="#03183c" /><stop
        offset="1"
        stop-color="#010817"
      /></linearGradient><linearGradient id="a" x1="0" x2="0" y1="0" y2="1"><stop
        offset="0"
        stop-color="#64f5ff"
      /><stop offset="1" stop-color="#008bff" /></linearGradient><filter
      id="b"
      width="160%"
      height="160%"
      x="-30%"
      y="-30%"
    ><feGaussianBlur result="blur" stdDeviation="1.5" /><feMerge><feMergeNode in="blur" /><feMergeNode
          in="SourceGraphic"
        /></feMerge></filter></defs><path
    fill="#020a1d"
    d="M45 180C25 111 57 47 107 33c-42 28-63 75-53 134 4 23 18 44 40 63-21-9-39-25-49-50m166 0c20-69-12-133-62-147 42 28 63 75 53 134-4 23-18 44-40 63 21-9 39-25 49-50"
  /><path
    fill="none"
    stroke="#11bfff"
    stroke-linecap="round"
    stroke-width="3"
    d="M56 174C43 113 67 62 105 42m95 132c13-61-11-112-49-132"
    opacity=".85"
  /><path
    fill="#0da8ff"
    d="M80 94c-16 9-20 30-5 44-9-2-17-10-19-21-2-13 7-24 24-23m96 0c16 9 20 30 5 44 9-2 17-10 19-21 2-13-7-24-24-23"
    opacity=".9"
  /><path fill="url(#a)" d="m128 12 4 16 14 5-14 5-4 17-4-17-14-5 14-5Z" filter="url(#b)" /><path
    fill="#031231"
    d="M25 195c29-8 48-5 72 7 22 11 40 10 63-1 21-10 45-13 71-6l-20 20c-28-7-50 2-77 15-23-11-43-20-70-14Z"
  /><path
    fill="#0b2d69"
    d="M31 195c28 4 47 4 68-5 23-9 38-6 59 6 23 13 43 8 67-1-23 19-48 21-74 10-22-9-40-9-62 2-23 11-41 4-58-12"
    opacity=".85"
  /><path
    fill="none"
    stroke="#28b9ff"
    stroke-linecap="round"
    stroke-width="3"
    d="M58 203c25 5 47-8 68-10 24-2 44 14 73 9"
    opacity=".8"
  /><path fill="#031338" d="M47 158h34v37H47Zm128 0h34v37h-34Z" /><path
    fill="#061b48"
    d="M72 143h38v57H72Zm74 0h38v57h-38Z"
  /><path fill="#08265e" d="M97 131h62v74H97Z" /><path fill="#04183d" d="M83 122h21v51H83Zm69 0h21v51h-21Z" /><path
    fill="url(#c)"
    d="m103 57 18-14v48l7 6 7-6V43l18 14v68l13 12v62H90v-62l13-12Z"
  /><path fill="#020d28" d="m111 81 12 10V38l-20 13v75l-12 12v61h15v-67l5-6Z" opacity=".75" /><path
    fill="#0c3a7d"
    d="m145 81-12 10V38l20 13v75l12 12v61h-15v-67l-5-6Z"
    opacity=".5"
  /><path
    fill="#073477"
    stroke="#1bbfff"
    stroke-linejoin="round"
    stroke-width="3"
    d="M113 96c8 8 22 8 30 0v67l-15 21-15-21Z"
  /><path
    fill="none"
    stroke="#36dbff"
    stroke-linecap="round"
    stroke-width="3"
    d="M113 96c8 13 22 13 30 0"
    opacity=".85"
  /><path
    fill="none"
    stroke="#56f2ff"
    stroke-linejoin="round"
    stroke-width="5"
    d="M128 106s13 17 13 28c0 8-6 14-13 14s-13-6-13-14c0-11 13-28 13-28Z"
    filter="url(#b)"
  /><path
    fill="none"
    stroke="#56f2ff"
    stroke-linecap="round"
    stroke-width="2"
    d="M124 139c3 4 8 5 12 1"
    opacity=".75"
  /><circle cx="128" cy="157" r="3" fill="#56f2ff" /><path
    stroke="#56f2ff"
    stroke-linecap="round"
    stroke-width="3"
    d="M128 164v10"
  /><path
    fill="#020a1e"
    stroke="#21c8ff"
    stroke-linejoin="round"
    stroke-width="5"
    d="M109 198v-17c0-10 8-19 19-25 11 6 19 15 19 25v17Z"
  /><path fill="#0b2d69" d="M118 198v-14c0-7 4-12 10-16 6 4 10 9 10 16v14Z" /><path
    fill="#020a1b"
    d="M93 220c7-19 19-30 35-33 16 3 28 14 35 33-12 12-24 19-35 24-11-5-23-12-35-24"
  /><path
    fill="#06245a"
    d="M102 224c6-15 15-25 26-28 11 3 20 13 26 28-10 9-18 14-26 17-8-3-16-8-26-17"
    opacity=".9"
  /><path
    fill="none"
    stroke="#1f9dff"
    stroke-linecap="round"
    stroke-width="3"
    d="M112 218c6-3 12-3 16 0 4-3 10-3 16 0"
    opacity=".8"
  /><path fill="#52f3ff" d="m115 214 9-2-4 5Zm26 0-9-2 4 5Z" /><g fill="#1fd5ff"><rect
      width="3"
      height="11"
      x="65"
      y="169"
      rx="1"
    /><rect width="3" height="11" x="81" y="169" rx="1" /><rect width="3" height="11" x="179" y="169" rx="1" /><rect
      width="3"
      height="11"
      x="193"
      y="169"
      rx="1"
    /><rect width="3" height="10" x="91" y="141" rx="1" /><rect width="3" height="10" x="162" y="141" rx="1" /><rect
      width="3"
      height="13"
      x="110"
      y="76"
      opacity=".75"
      rx="1"
    /><rect width="3" height="13" x="143" y="76" opacity=".75" rx="1" /></g><path
    fill="#020a1d"
    d="m55 158 3-30 3 30Zm20-12 3-28 3 28Zm120 0 3-28 3 28Zm-20 12 3-30 3 30Z"
  /></svg>
