<?xml version="1.0" encoding="UTF-8"?>
<svg version="1.1" xmlns="http://www.w3.org/2000/svg" width="1254" height="1254" style="background:transparent">
<path d="M0 0 C5.73556833 3.49907003 11.52830154 6.90264121 17.31216431 10.3210144 C28.26584272 16.79715006 39.17639395 23.33886325 50.04003906 29.96484375 C59.36019146 35.64804968 68.73471771 41.22603314 78.17822266 46.70214844 C86.70676198 51.65148366 95.18995048 56.67476056 103.66503906 61.71484375 C104.69395264 62.32669022 104.69395264 62.32669022 105.74365234 62.95089722 C111.53034804 66.39209032 111.53034804 66.39209032 113.87640381 67.78742981 C119.67349127 71.2342281 125.48071062 74.66372176 131.29003906 78.08984375 C146.60452648 87.13218615 161.83461067 96.29572912 176.94238281 105.6796875 C183.02702753 109.45834398 189.12646641 113.2127864 195.22753906 116.96484375 C196.31671631 117.63467285 197.40589355 118.30450195 198.52807617 118.99462891 C200.75079266 120.36152527 202.97353041 121.72838706 205.19628906 123.09521484 C208.52013431 125.14009803 211.84277602 127.18692241 215.16503906 129.234375 C226.37671045 136.14250929 237.60224205 143.02634002 248.85717773 149.86376953 C257.1979208 154.93463147 265.51206948 160.04815487 273.81787109 165.17602539 C279.15345492 168.46692785 284.49919403 171.7377093 289.87597656 174.9609375 C299.81796674 180.92739972 309.52277796 186.83063602 318.54003906 194.15234375 C319.16007813 194.60996094 319.78011719 195.06757813 320.41894531 195.5390625 C339.13785957 210.00170391 349.18859421 235.50990951 352.54003906 258.15234375 C353.16646517 265.33793898 352.98576178 272.55303256 352.89550781 279.75756836 C352.88456748 281.86056628 352.8755975 283.96357521 352.86842346 286.06658936 C352.85003167 290.55666166 352.82006666 295.04644791 352.78137207 299.5363903 C352.72235676 306.6441004 352.70314336 313.75158663 352.69140625 320.85951233 C352.65319412 341.05781361 352.58191117 361.2556003 352.42724609 381.45336914 C352.34193113 392.63814755 352.29952561 403.82223862 352.30462551 415.00735098 C352.30552932 422.06711435 352.25428469 429.12392047 352.16416073 436.18307769 C352.12087567 440.57610547 352.1281051 444.96798556 352.14951897 449.36112976 C352.14945012 451.3900697 352.12896351 453.41913282 352.08603096 455.44761848 C351.51372571 466.80206412 351.51372571 466.80206412 356.16418457 476.69577217 C359.04017101 479.52184026 362.28772101 481.77694723 365.54003906 484.15234375 C371.32129632 490.69877964 371.85518548 496.60327647 371.87597656 505.01171875 C371.88263336 505.95613831 371.88929016 506.90055786 371.89614868 507.87359619 C371.9062461 509.86720847 371.91096661 511.86085436 371.91064453 513.85449219 C371.91500516 516.87883335 371.9513213 519.90169908 371.98925781 522.92578125 C371.99512937 524.87108881 371.99909649 526.81640324 372.00097656 528.76171875 C372.02253311 530.09973541 372.02253311 530.09973541 372.04452515 531.46478271 C371.99813261 537.95472634 371.2144328 543.677932 367.54003906 549.15234375 C366.45773209 550.09653607 365.34448944 551.00584121 364.21107483 551.88803101 C357.96793201 556.83523335 353.46956679 561.00592582 352.28604126 569.18475342 C351.74838719 576.01882359 351.84481022 582.8418912 352.01738954 589.68994856 C352.08888118 593.16164087 352.07697827 596.63309313 352.07389832 600.1053772 C352.0798559 606.67797171 352.15409521 613.24779283 352.25601548 619.81953013 C352.40230203 629.42421973 352.45360669 639.02951157 352.4947691 648.63515663 C352.49785212 649.34604671 352.50093514 650.05693679 352.50411159 650.78936899 C352.5102466 652.2092876 352.51619521 653.62920703 352.52195281 655.04912722 C352.54405637 659.81194526 352.60272337 664.57319206 352.67329407 669.33554077 C352.82405654 681.98783715 352.7372503 693.85354856 349.54003906 706.15234375 C349.22091301 707.5037294 349.22091301 707.5037294 348.89533997 708.88241577 C343.42876832 731.11351953 327.93596139 752.59883262 308.51220703 764.5859375 C307.2515406 765.34577278 305.98800614 766.10086291 304.72216797 766.85205078 C302.21455199 768.34629588 299.7267941 769.87100294 297.23925781 771.3984375 C285.54507836 778.56821356 273.78400813 785.62755404 262.01367188 792.67138672 C257.74965091 795.22424412 253.48882458 797.78242397 249.22753906 800.33984375 C247.54524882 801.34896071 245.86295719 802.35807536 244.18066406 803.3671875 C241.41904221 805.02404862 238.65832493 806.68237898 235.89941406 808.34375 C227.7383312 813.25344254 219.54833369 818.11332877 211.35253906 822.96484375 C203.36161734 827.69530412 195.37569542 832.43354352 187.41503906 837.21484375 C186.62750244 837.68784912 185.83996582 838.16085449 185.02856445 838.64819336 C181.56605775 840.7291931 178.10471379 842.81211056 174.64453125 844.89697266 C162.32970897 852.31622918 149.98245957 859.66912577 137.54956055 866.88891602 C130.44696446 871.02067298 123.3906898 875.2243635 116.35253906 879.46484375 C104.32579539 886.70766634 92.22365469 893.81637359 80.1027832 900.89996338 C75.76578897 903.43464282 71.43138684 905.97370467 67.09863281 908.515625 C66.48784882 908.87394409 65.87706482 909.23226318 65.24777222 909.60144043 C64.01946844 910.32203881 62.79116644 911.0426402 61.56286621 911.76324463 C51.26644678 917.80310304 40.96132269 923.82785504 30.64746094 929.83789062 C24.55685534 933.3883769 18.47173925 936.94806296 12.39181519 940.51679993 C9.26023782 942.3549085 6.12764337 944.19121883 2.9921875 946.02270508 C-2.33478032 949.13570644 -7.65399329 952.25712491 -12.92480469 955.46484375 C-29.88229752 965.71115466 -46.37822497 971.59006921 -66.39746094 971.40234375 C-67.98167847 971.39110474 -67.98167847 971.39110474 -69.59790039 971.37963867 C-86.76522907 971.14214336 -100.35768015 966.32468573 -115.20996094 957.77734375 C-116.2734375 957.17374023 -117.33691406 956.57013672 -118.43261719 955.94824219 C-129.29734339 949.74666668 -140.00681227 943.28678646 -150.70947266 936.81103516 C-154.46593338 934.54568861 -158.23946814 932.31053727 -162.02246094 930.08984375 C-162.6739209 929.70739502 -163.32538086 929.32494629 -163.99658203 928.9309082 C-168.09605157 926.52874379 -172.20169208 924.13720295 -176.30761719 921.74609375 C-194.984116 910.86879775 -194.984116 910.86879775 -203.3190918 905.82910156 C-210.05729022 901.76842391 -216.85673736 897.81173779 -223.64746094 893.83984375 C-231.98397209 888.96288247 -240.31130565 884.07303696 -248.58496094 879.08984375 C-256.17254879 874.52001082 -263.7781284 869.98157928 -271.39746094 865.46484375 C-271.96403412 865.12894226 -272.5306073 864.79304077 -273.11434937 864.44696045 C-279.61406704 860.59492712 -286.1227508 856.75877871 -292.64746094 852.94921875 C-305.98118559 845.16262158 -319.24993153 837.28672955 -332.43237305 829.24633789 C-339.40948712 824.99256378 -346.41414964 820.79136003 -353.45996094 816.65234375 C-362.45006971 811.37041533 -371.36697403 805.97313901 -380.27148438 800.54882812 C-387.96886177 795.86129598 -395.69014389 791.21917579 -403.45996094 786.65234375 C-407.12871818 784.4892019 -410.79501827 782.32194186 -414.45996094 780.15234375 C-415.02084412 779.82065186 -415.58172729 779.48895996 -416.15960693 779.1472168 C-419.88031268 776.94541759 -423.59401595 774.73235227 -427.30102539 772.50756836 C-428.50681798 771.78581468 -429.71442858 771.06708722 -430.92407227 770.35180664 C-457.19371088 754.80613094 -474.31827518 733.36283073 -482.33496094 703.83984375 C-484.80282632 692.30993931 -484.60574703 680.57242005 -484.59367371 668.84089661 C-484.59554485 667.10611426 -484.59784676 665.37133234 -484.60053903 663.63655108 C-484.60662591 658.89641629 -484.60652712 654.15629922 -484.60534465 649.41616142 C-484.60513986 644.29329718 -484.6106669 639.17043852 -484.61540222 634.0475769 C-484.62369217 624.02108172 -484.62645631 613.99459241 -484.6270146 603.96809409 C-484.62749053 595.81444416 -484.62954913 587.66079616 -484.63271523 579.50714684 C-484.64151715 556.36706045 -484.6461353 533.22697869 -484.64538475 510.08689062 C-484.6453448 508.84061661 -484.64530484 507.59434261 -484.64526367 506.31030273 C-484.64522279 505.06249921 -484.64518191 503.81469569 -484.64513979 502.52907994 C-484.64473342 482.31079142 -484.65430202 462.09252154 -484.66840204 441.87423841 C-484.68278068 421.09171703 -484.68967141 400.30920474 -484.68880826 379.52667826 C-484.68847682 367.8679292 -484.69120101 356.20919967 -484.70198631 344.55045509 C-484.71111088 334.62370363 -484.7132505 324.69698055 -484.70647689 314.77022669 C-484.70322161 309.71092666 -484.70311903 304.65168104 -484.71183014 299.59238625 C-484.71974004 294.95046484 -484.71821829 290.30864059 -484.70954601 285.66672143 C-484.70802085 283.99787843 -484.70978951 282.32902802 -484.71540608 280.66019378 C-484.74135424 272.39521703 -484.51693754 264.25216769 -483.57732105 256.03460217 C-483.5008532 255.36030049 -483.42438535 254.68599882 -483.34560029 253.99126377 C-481.07251414 236.08694401 -472.73541637 219.07430647 -461.45996094 205.15234375 C-460.85796875 204.38664063 -460.25597656 203.6209375 -459.63574219 202.83203125 C-448.69810476 189.67017825 -433.4260706 181.74351039 -418.90722656 173.19384766 C-413.70898514 170.12385039 -408.55389902 166.98247056 -403.39755249 163.84283447 C-401.63611902 162.77043856 -399.87395819 161.6992478 -398.11157227 160.62841797 C-393.39979239 157.7653532 -388.68925665 154.90024428 -383.97900391 152.03466797 C-380.51480799 149.92726151 -377.05013673 147.82063863 -373.58496094 145.71484375 C-373.01095551 145.36601135 -372.43695007 145.01717896 -371.84555054 144.65777588 C-362.1075723 138.7418966 -352.34145196 132.87376703 -342.5670166 127.01837158 C-330.00909391 119.49439835 -317.49178544 111.90475611 -304.98486328 104.29638672 C-298.8740024 100.57906199 -292.76096432 96.86532061 -286.64746094 93.15234375 C-286.0488324 92.78873749 -285.45020386 92.42513123 -284.83343506 92.05050659 C-277.44143931 87.56118444 -270.03831585 83.0917336 -262.61621094 78.65234375 C-255.92087942 74.63514484 -249.25576742 70.56753511 -242.58370972 66.51184082 C-235.90890073 62.45464903 -229.23116261 58.40335116 -222.52246094 54.40234375 C-212.20160031 48.22645477 -202.00610995 41.84468645 -191.79248047 35.49365234 C-181.61066623 29.16319546 -171.40078223 22.88906432 -161.11108398 16.73535156 C-154.79741051 12.95860337 -148.49784956 9.15937497 -142.20996094 5.33984375 C-141.25887451 4.76379395 -140.30778809 4.18774414 -139.32788086 3.59423828 C-134.22936088 0.4939892 -129.17333136 -2.65939534 -124.15917969 -5.89453125 C-113.84928008 -12.52380788 -104.3809753 -18.61005486 -92.45996094 -21.84765625 C-91.44675781 -22.18925781 -90.43355469 -22.53085938 -89.38964844 -22.8828125 C-56.13990421 -33.8330616 -27.52534367 -16.85777922 0 0 Z " fill="#20252D" transform="translate(694.4599609375,141.84765625)"/>
<path d="M0 0 C48.819375 -0.020625 97.63875 -0.04125 147.9375 -0.0625 C171.04189087 -0.07615601 171.04189087 -0.07615601 194.61303711 -0.09008789 C213.45227051 -0.09460449 213.45227051 -0.09460449 222.27760315 -0.09544373 C228.42852666 -0.09637366 234.57944102 -0.10003081 240.73036194 -0.10557556 C247.8353784 -0.11197084 254.94038613 -0.11482898 262.04540548 -0.11344495 C265.67473612 -0.11284623 269.30404728 -0.11375108 272.93337429 -0.11921513 C353.61327384 -0.23476301 432.02768848 21.52656448 492.65625 76.87890625 C494.79924312 78.81831503 496.98344638 80.69329299 499.1875 82.5625 C502.46488131 85.42121384 505.30342158 88.48293092 508.109375 91.80078125 C510.21327602 94.2480876 512.41714264 96.58363917 514.625 98.9375 C537.9791417 124.66244093 557.20625601 156.93072059 568 190 C568.27199219 190.81597656 568.54398438 191.63195312 568.82421875 192.47265625 C569.3084665 193.9253995 569.78780865 195.37978914 570.26171875 196.8359375 C570.77220015 198.33226922 571.3190747 199.81649683 571.89453125 201.2890625 C575.51658855 210.61117013 577.75692104 220.27322749 580 230 C580.26296875 231.12946045 580.26296875 231.12946045 580.53125 232.28173828 C583.96707664 247.33696695 585.89006764 262.6590204 587.94921875 277.94921875 C588.08646614 278.9655262 588.08646614 278.9655262 588.22648621 280.00236511 C588.40346258 281.33303178 588.57606 282.66428785 588.74436951 283.99607849 C588.91295079 285.31760967 589.09261675 286.63778052 589.28407288 287.95619202 C590.27932556 295.45600392 590.12567367 302.98596083 590.09765625 310.53515625 C590.09578768 312.02444918 590.09436585 313.51374273 590.09336853 315.0030365 C590.08957789 318.89425397 590.0797777 322.78543322 590.06866455 326.67663574 C590.05837559 330.65876753 590.05385498 334.64090558 590.04882812 338.62304688 C590.03815181 346.4153839 590.0205836 354.20768169 590 362 C598.25 362 606.5 362 615 362 C615 359.03 615 356.06 615 353 C616.41162109 351.01733398 616.41162109 351.01733398 618.3984375 349.80859375 C619.13030273 349.34179199 619.86216797 348.87499023 620.61621094 348.39404297 C621.79618652 347.7039917 621.79618652 347.7039917 623 347 C623.77375977 346.50258301 624.54751953 346.00516602 625.34472656 345.49267578 C627.74278366 343.96230437 630.17466255 342.50742121 632.625 341.0625 C633.44484375 340.55654297 634.2646875 340.05058594 635.109375 339.52929688 C636.31207031 338.82063477 636.31207031 338.82063477 637.5390625 338.09765625 C638.25271973 337.66976807 638.96637695 337.24187988 639.70166016 336.80102539 C643.83753848 335.3595747 647.02684061 336.53623973 650.8684082 338.36694336 C652.31993286 339.21977905 652.31993286 339.21977905 653.80078125 340.08984375 C655.38922852 341.01893555 655.38922852 341.01893555 657.00976562 341.96679688 C658.09966797 342.61712891 659.18957031 343.26746094 660.3125 343.9375 C661.42173828 344.58396484 662.53097656 345.23042969 663.67382812 345.89648438 C671.86281481 350.72562961 671.86281481 350.72562961 673 353 C673.08658569 355.55362604 673.11562516 358.0795442 673.09765625 360.6328125 C673.0962413 361.38464813 673.09482635 362.13648376 673.09336853 362.91110229 C673.08776465 365.3157751 673.07521157 367.72035527 673.0625 370.125 C673.0574855 371.75390491 673.0529225 373.38281127 673.04882812 375.01171875 C673.03779397 379.00784827 673.02052679 383.00390842 673 387 C669.39405663 389.12709071 665.78274425 391.24466488 662.16625977 393.35375977 C660.93786893 394.07189844 659.71095712 394.79257349 658.4855957 395.51586914 C656.71953045 396.55772574 654.94826982 397.59021228 653.17578125 398.62109375 C651.58117065 399.55586548 651.58117065 399.55586548 649.9543457 400.50952148 C647.12387493 401.93750463 645.15688536 402.83663095 642 403 C639.4921875 401.98364258 639.4921875 401.98364258 636.875 400.39453125 C635.92109375 399.82283203 634.9671875 399.25113281 633.984375 398.66210938 C632.99953125 398.05173828 632.0146875 397.44136719 631 396.8125 C630.01515625 396.22146484 629.0303125 395.63042969 628.015625 395.02148438 C625.31423317 393.38422189 622.63248657 391.74602132 620 390 C619.06929687 389.45819092 618.13859375 388.91638184 617.1796875 388.3581543 C615 386 615 386 615 377 C606.09 377 597.18 377 588 377 C588 380.63 588 384.26 588 388 C587.76321333 390.21163321 587.46699356 392.41866886 587.08203125 394.609375 C586.8823877 395.7641333 586.68274414 396.9188916 586.47705078 398.10864258 C586.25774902 399.31029053 586.03844727 400.51193848 585.8125 401.75 C585.4719458 403.65591919 585.4719458 403.65591919 585.12451172 405.6003418 C581.52795507 425.43111389 577.00854465 444.75376688 571 464 C570.63503418 465.1761084 570.63503418 465.1761084 570.26269531 466.37597656 C568.80542346 470.92085544 567.07725433 475.24852403 565.09375 479.58837891 C563.89426856 482.23312839 562.75760293 484.90016864 561.625 487.57421875 C548.07588575 519.27080896 530.60064325 547.03405721 508 573 C507.26007812 573.85207031 506.52015625 574.70414063 505.7578125 575.58203125 C504.17792548 577.39350813 502.59316887 579.20020855 501 581 C501.79535156 581.23589844 502.59070313 581.47179687 503.41015625 581.71484375 C507.93413242 583.33441737 512.13231371 585.43929517 516.4375 587.5625 C527.7125036 593.03092677 539.2646325 597.62326756 551 602 C551.90331055 602.3417627 552.80662109 602.68352539 553.73730469 603.03564453 C560.99364072 605.74037241 568.33918279 607.8609397 575.80859375 609.88671875 C577.14083984 610.25603516 577.14083984 610.25603516 578.5 610.6328125 C579.2940625 610.84824707 580.088125 611.06368164 580.90625 611.28564453 C583 612 583 612 586 614 C578.23715821 619.37639906 570.12968811 624.14732039 562 628.9375 C559.12431438 630.63686242 556.24966057 632.33796682 553.375 634.0390625 C552.65997314 634.46188004 551.94494629 634.88469757 551.20825195 635.32032776 C544.78662913 639.11991955 538.39112817 642.96182348 532 646.8125 C522.70330355 652.40922137 513.354243 657.91051474 503.96289062 663.34692383 C503.03541016 663.88470459 502.10792969 664.42248535 501.15234375 664.9765625 C500.26659668 665.48477539 499.38084961 665.99298828 498.46826172 666.51660156 C496.02045896 667.9428807 496.02045896 667.9428807 493.89501953 669.50683594 C488.55850227 673.30815416 484.46651437 673.85273945 478 673 C473.23864343 672.12929888 468.56506868 671.00496808 463.875 669.8125 C462.5805798 669.49082934 461.28606406 669.16954289 459.99145508 668.84863281 C448.07465895 665.85075364 436.49093388 662.35138211 425 658 C423.74904579 657.53422089 422.49774893 657.06936089 421.24609375 656.60546875 C414.53570756 654.11079427 407.84142547 651.57951255 401.1875 648.9375 C400.06730469 648.49277344 398.94710937 648.04804687 397.79296875 647.58984375 C363.0755444 633.32077748 329.55759521 615.19876538 300 592 C299.05898438 591.27167969 298.11796875 590.54335938 297.1484375 589.79296875 C292.03051168 585.77626845 287.16383446 581.53055547 282.36328125 577.140625 C280.29970787 575.27147093 278.19485387 573.47676638 276.0625 571.6875 C250.65158401 549.33200477 237.39544193 520.4983001 230.62060547 487.97802734 C225.97958463 463.41338748 225.97958463 463.41338748 210 445 C207.41013845 443.38257689 204.81388709 442.17030864 202 441 C201.41500732 440.73485596 200.83001465 440.46971191 200.22729492 440.1965332 C192.52590817 437.12783726 184.46528818 437.45190223 176.3125 437.5 C175.53576935 437.50143005 174.7590387 437.50286011 173.95877075 437.5043335 C160.7571254 437.56444517 148.64279909 439.0254442 136 443 C135.18772949 443.24588867 134.37545898 443.49177734 133.53857422 443.74511719 C106.38885816 452.02808141 81.1424119 465.24890544 57 480 C56.14680176 480.52094238 55.29360352 481.04188477 54.41455078 481.57861328 C42.34044768 488.99471096 30.63767171 496.92154019 19 505 C17.10818144 506.30744871 15.21625029 507.61473452 13.32421875 508.921875 C2.18187154 516.63309556 -8.87377459 524.45092685 -19.83056641 532.42333984 C-24.29484197 535.6678021 -28.77232278 538.89405076 -33.24902344 542.12133789 C-37.02044971 544.84173109 -40.78452573 547.57130291 -44.53515625 550.3203125 C-92.39143584 585.32414584 -92.39143584 585.32414584 -115 584 C-110.49019473 579.15266252 -105.33947261 575.2899547 -100.0625 571.3125 C-99.12245117 570.59989014 -98.18240234 569.88728027 -97.21386719 569.15307617 C-91.56991723 564.89014412 -85.87342713 560.71833193 -80.09228516 556.64428711 C-73.37115289 551.88750569 -66.87697669 546.83402025 -60.35400391 541.81103516 C-41.93517962 527.64065157 -23.31366191 513.77276635 -4.4453125 500.20703125 C-1.51106483 498.09583556 1.409735 495.96791777 4.3203125 493.82421875 C26.19761445 477.76087798 49.22271595 463.12553205 73.02880859 450.08398438 C74.98056658 449.01068669 76.92169385 447.91968612 78.86328125 446.828125 C104.77761656 432.47100219 131.97069473 423.36461781 161 418 C161.94125732 417.81824219 162.88251465 417.63648438 163.85229492 417.44921875 C169.60254982 416.62858205 175.4118048 416.81407648 181.20996094 416.81469727 C183.46569331 416.81253292 185.72091787 416.79440997 187.9765625 416.77539062 C229.92383015 416.60819194 269.98959066 434.02147994 305 456 C306.4905948 456.91844058 307.98149255 457.83638962 309.47265625 458.75390625 C325.51519822 468.69481913 340.99533426 479.47132985 356.4375 490.3125 C358.85705226 492.00611513 361.27740009 493.69857646 363.69873047 495.38964844 C365.22085219 496.45477839 366.74075214 497.52309114 368.25830078 498.59472656 C370.3305636 500.05471938 372.41338493 501.4981256 374.5 502.9375 C375.10513428 503.36909424 375.71026855 503.80068848 376.33374023 504.24536133 C379.43438514 506.36564462 379.43438514 506.36564462 383.046875 507.09375 C386.07305587 505.39908871 388.36160527 503.03427252 390.75 500.5625 C391.28222168 500.01899902 391.81444336 499.47549805 392.36279297 498.91552734 C396.92379994 494.19719668 401.08110887 489.26625056 405 484 C405.79019531 482.95328125 406.58039062 481.9065625 407.39453125 480.828125 C413.72844898 472.30075415 419.0891351 463.41162367 424 454 C424.59530518 452.87440674 424.59530518 452.87440674 425.20263672 451.72607422 C453.83513164 396.9483975 464.07256675 323.20821001 448 263 C447.67 262.67 447.34 262.34 447 262 C446.60189686 260.04623227 446.23287812 258.08653453 445.875 256.125 C441.22559808 234.00103436 430.85915769 213.42388514 418 195 C417.60087402 194.4229834 417.20174805 193.8459668 416.79052734 193.25146484 C391.22787978 156.78439546 350.87269652 135.63408472 308 127 C250.52025763 119.07175967 192.02256159 122.4001556 134 122 C134 218.03 134 314.06 134 413 C128.39 414.65 122.78 416.3 117 418 C113.40170222 419.31523988 109.89516208 420.63948744 106.375 422.125 C105.46024902 422.50696533 104.54549805 422.88893066 103.60302734 423.2824707 C84.23427825 431.47668787 65.97035914 441.08601286 48 452 C47.23574707 452.46293457 46.47149414 452.92586914 45.68408203 453.40283203 C31.42393033 462.07992227 17.33508838 471.15418077 4.1875 481.453125 C2 483 2 483 0 483 C0 323.61 0 164.22 0 0 Z " fill="#EBA02F" transform="translate(371,290)"/>
<path d="M0 0 C2.25573237 -0.00216435 4.51095693 -0.0202873 6.76660156 -0.03930664 C48.71386921 -0.20650533 88.77962972 17.20678267 123.79003906 39.18530273 C125.28063386 40.10374331 126.77153161 41.02169236 128.26269531 41.93920898 C144.92821749 52.26615744 160.99666644 63.4872716 177.02661133 74.76586914 C184.93083722 80.31463416 192.92595352 85.72690205 200.92285156 91.14086914 C206.36989935 94.83551323 211.77926917 98.56464162 217.10253906 102.43530273 C239.93337636 118.89021108 264.40841129 133.18414224 288.79003906 147.18530273 C289.59538086 147.6506543 290.40072266 148.11600586 291.23046875 148.59545898 C302.90816719 155.32583142 314.91278855 161.21792563 327.11865234 166.92749023 C329.49655727 168.04711793 331.86242111 169.18725489 334.22363281 170.34155273 C345.80839303 175.97381603 357.73703024 180.65417695 369.79003906 185.18530273 C370.69915039 185.52996582 371.60826172 185.87462891 372.54492188 186.22973633 C379.79496107 188.93146253 387.13594052 191.0480646 394.59863281 193.07202148 C395.93087891 193.44133789 395.93087891 193.44133789 397.29003906 193.81811523 C398.08410156 194.0335498 398.87816406 194.24898437 399.69628906 194.47094727 C401.79003906 195.18530273 401.79003906 195.18530273 404.79003906 197.18530273 C397.02719727 202.5617018 388.91972718 207.33262312 380.79003906 212.12280273 C377.91435344 213.82216515 375.03969963 215.52326955 372.16503906 217.22436523 C371.09249878 217.85859154 371.09249878 217.85859154 369.99829102 218.50563049 C363.57666819 222.30522229 357.18116723 226.14712622 350.79003906 229.99780273 C341.49334261 235.59452411 332.14428206 241.09581748 322.75292969 246.53222656 C321.82544922 247.07000732 320.89796875 247.60778809 319.94238281 248.16186523 C319.05663574 248.67007813 318.17088867 249.17829102 317.25830078 249.7019043 C314.81049802 251.12818344 314.81049802 251.12818344 312.68505859 252.69213867 C307.34854133 256.49345689 303.25655343 257.03804219 296.79003906 256.18530273 C292.02868249 255.31460161 287.35510774 254.19027081 282.66503906 252.99780273 C281.37061886 252.67613208 280.07610312 252.35484562 278.78149414 252.03393555 C266.86469802 249.03605638 255.28097294 245.53668484 243.79003906 241.18530273 C242.53908485 240.71952363 241.287788 240.25466362 240.03613281 239.79077148 C233.32574662 237.29609701 226.63146454 234.76481528 219.97753906 232.12280273 C218.85734375 231.67807617 217.73714844 231.23334961 216.58300781 230.77514648 C181.86558347 216.50608021 148.34763427 198.38406811 118.79003906 175.18530273 C117.84902344 174.45698242 116.90800781 173.72866211 115.93847656 172.97827148 C110.82055074 168.96157119 105.95387353 164.7158582 101.15332031 160.32592773 C99.08974694 158.45677367 96.98489293 156.66206912 94.85253906 154.87280273 C69.44162307 132.5173075 56.18548099 103.68360283 49.41064453 71.16333008 C44.7696237 46.59869022 44.7696237 46.59869022 28.79003906 28.18530273 C26.20017751 26.56787962 23.60392615 25.35561137 20.79003906 24.18530273 C20.20504639 23.92015869 19.62005371 23.65501465 19.01733398 23.38183594 C11.31594723 20.31313999 3.25532724 20.63720496 -4.89746094 20.68530273 C-5.67419159 20.68673279 -6.45092224 20.68816284 -7.25119019 20.68963623 C-20.45283554 20.74974791 -32.56716185 22.21074693 -45.20996094 26.18530273 C-46.02223145 26.43119141 -46.83450195 26.67708008 -47.67138672 26.93041992 C-74.82110277 35.21338414 -100.06754904 48.43420818 -124.20996094 63.18530273 C-125.06315918 63.70624512 -125.91635742 64.2271875 -126.79541016 64.76391602 C-138.86951326 72.1800137 -150.57228923 80.10684292 -162.20996094 88.18530273 C-164.10177949 89.49275145 -165.99371065 90.80003725 -167.88574219 92.10717773 C-179.0280894 99.81839829 -190.08373553 107.63622959 -201.04052734 115.60864258 C-205.50480291 118.85310483 -209.98228372 122.07935349 -214.45898438 125.30664062 C-218.23041065 128.02703383 -221.99448667 130.75660565 -225.74511719 133.50561523 C-273.60139678 168.50944857 -273.60139678 168.50944857 -296.20996094 167.18530273 C-291.70015566 162.33796526 -286.54943354 158.47525743 -281.27246094 154.49780273 C-279.8623877 153.42888794 -279.8623877 153.42888794 -278.42382812 152.33837891 C-272.77987817 148.07544685 -267.08338807 143.90363467 -261.30224609 139.82958984 C-254.58111383 135.07280842 -248.08693763 130.01932298 -241.56396484 124.99633789 C-223.14514056 110.8259543 -204.52362285 96.95806908 -185.65527344 83.39233398 C-182.72102577 81.2811383 -179.80022594 79.1532205 -176.88964844 77.00952148 C-155.01234648 60.94618071 -131.98724499 46.31083479 -108.18115234 33.26928711 C-106.22939435 32.19598943 -104.28826709 31.10498886 -102.34667969 30.01342773 C-76.43234438 15.65630492 -49.23926621 6.54992054 -20.20996094 1.18530273 C-19.26870361 1.00354492 -18.32744629 0.82178711 -17.35766602 0.63452148 C-11.60741112 -0.18611522 -5.79815614 -0.00062079 0 0 Z " fill="#F3B345" transform="translate(552.2099609375,706.814697265625)"/>
<path d="M0 0 C4.50847385 1.45837879 7.67941941 3.98591699 11.1875 7.0625 C11.75557373 7.55202148 12.32364746 8.04154297 12.90893555 8.54589844 C17.23499943 12.28847497 21.49877454 16.10035955 25.73046875 19.94921875 C27.83652418 21.85228088 29.97320469 23.71153821 32.125 25.5625 C38.97517134 31.56154785 44.9630722 37.99093259 50.65625 45.09765625 C53.00862941 48.01068608 55.43775671 50.84533496 57.875 53.6875 C66.06341984 63.50850199 75.35317718 75.01032037 80 87 C79.505 88.485 79.505 88.485 79 90 C78.57871826 89.29206299 78.57871826 89.29206299 78.14892578 88.56982422 C65.91643907 68.0897136 52.41430851 48.47954443 35 32 C32.5746134 29.59763922 30.17275793 27.18110224 27.81640625 24.7109375 C22.037887 18.72210819 15.89916863 13.58871647 9.296875 8.54296875 C6.12127319 6.11053293 3.02121334 3.62296249 0 1 C0 0.67 0 0.34 0 0 Z " fill="#221F1A" transform="translate(839,346)"/>
<path d="M0 0 C1.19560547 -0.00773438 2.39121094 -0.01546875 3.62304688 -0.0234375 C4.76966797 -0.02085937 5.91628906 -0.01828125 7.09765625 -0.015625 C8.63885132 -0.01224121 8.63885132 -0.01224121 10.21118164 -0.00878906 C12.94925079 0.25111541 14.60065689 0.84447453 16.9375 2.25 C15.99245605 2.25410889 15.04741211 2.25821777 14.07373047 2.26245117 C-9.20256413 2.41395324 -30.17759734 4.17858709 -52.1640625 12.4296875 C-55.16864491 13.28004101 -56.1864637 13.12168993 -59.0625 12.25 C-52.23521554 9.35972451 -45.40721677 7.04783435 -38.25 5.125 C-37.35474609 4.87363281 -36.45949219 4.62226562 -35.53710938 4.36328125 C-23.7130695 1.14848891 -12.23802929 -0.08154156 0 0 Z " fill="#DCB74C" transform="translate(547.0625,724.75)"/>
<path d="M0 0 C3.92437023 3.32718346 7.77423622 6.70605428 11.5625 10.1875 C29.41847312 26.27130136 49.45048141 39.6476801 70 52 C68.515 52.495 68.515 52.495 67 53 C64.28515625 51.62890625 64.28515625 51.62890625 61.0625 49.5625 C60.48765869 49.19632568 59.91281738 48.83015137 59.32055664 48.45288086 C57.53967485 47.31289198 55.76936195 46.15776737 54 45 C52.97648438 44.34 51.95296875 43.68 50.8984375 43 C44.77332144 38.99200849 38.86877348 34.74823218 33.046875 30.3125 C30.90361542 28.68582093 28.7531513 27.082731 26.578125 25.5 C26.02125 25.09193115 25.464375 24.6838623 24.890625 24.26342773 C23.33057607 23.1214812 21.76694499 21.98443309 20.203125 20.84765625 C19.11257813 19.93306641 19.11257813 19.93306641 18 19 C18 18.34 18 17.68 18 17 C17.4112207 16.73123047 16.82244141 16.46246094 16.21582031 16.18554688 C12.55223576 14.2253919 9.76577558 11.3257572 6.75 8.5 C6.1003125 7.90574219 5.450625 7.31148437 4.78125 6.69921875 C4.16765625 6.12816406 3.5540625 5.55710937 2.921875 4.96875 C2.36081055 4.44732422 1.79974609 3.92589844 1.22167969 3.38867188 C0 2 0 2 0 0 Z " fill="#20201B" transform="translate(641,856)"/>
<path d="M0 0 C0 0.66 0 1.32 0 2 C-0.66 2 -1.32 2 -2 2 C-2 2.66 -2 3.32 -2 4 C-3.70940029 5.60228383 -5.53301528 7.01294742 -7.37109375 8.46484375 C-9.26558258 10.00756886 -9.26558258 10.00756886 -10 13 C-8.35 12.34 -6.7 11.68 -5 11 C-5.33 11.99 -5.66 12.98 -6 14 C-9.03173281 15.19493974 -12.02459427 15.10493955 -15.25 15.0625 C-16.14203125 15.05347656 -17.0340625 15.04445313 -17.953125 15.03515625 C-18.62859375 15.02355469 -19.3040625 15.01195312 -20 15 C-16.3429012 11.19195153 -12.50430058 7.89187757 -8.3125 4.6875 C-7.73177734 4.23310547 -7.15105469 3.77871094 -6.55273438 3.31054688 C-2.2465343 0 -2.2465343 0 0 0 Z " fill="#EEAF32" transform="translate(276,859)"/>
<path d="M0 0 C8.58 0 17.16 0 26 0 C26.33 2.64 26.66 5.28 27 8 C28.49032673 9.92151708 28.49032673 9.92151708 30.6875 11 C31.88246094 11.69996094 31.88246094 11.69996094 33.1015625 12.4140625 C34.05804687 12.93742188 35.01453125 13.46078125 36 14 C37.23863593 14.71327648 38.47551401 15.42961129 39.7109375 16.1484375 C43.12489624 18.12769446 46.55759211 20.07068462 50 22 C47 23 47 23 45.16235352 22.22729492 C44.49131592 21.81584229 43.82027832 21.40438965 43.12890625 20.98046875 C42.38962891 20.53509766 41.65035156 20.08972656 40.88867188 19.63085938 C40.12103516 19.15455078 39.35339844 18.67824219 38.5625 18.1875 C37.04357443 17.26332672 35.52406198 16.34011718 34.00390625 15.41796875 C33.33174072 15.00313232 32.6595752 14.5882959 31.96704102 14.16088867 C29.9978082 12.95695651 29.9978082 12.95695651 27.81225586 11.97387695 C26 11 26 11 25 9 C25 6.36 25 3.72 25 1 C17.08 1 9.16 1 1 1 C0.67 1.99 0.34 2.98 0 4 C0 2.68 0 1.36 0 0 Z " fill="#1A1A1E" transform="translate(960,668)"/>
<path d="M0 0 C0 0.33 0 0.66 0 1 C-8.90923353 1.14057962 -17.74188385 0.58786778 -26.625 0 C-28.12107489 -0.0966465 -29.61716856 -0.19300285 -31.11328125 -0.2890625 C-34.74240986 -0.52269981 -38.37126931 -0.76025255 -42 -1 C-42 -1.33 -42 -1.66 -42 -2 C-27.54644539 -3.99803876 -14.22019599 -2.98997863 0 0 Z " fill="#E8AF39" transform="translate(703,294)"/>
<path d="M0 0 C0.66 0 1.32 0 2 0 C3.01956941 1.52324891 3.96314644 3.09742701 4.875 4.6875 C10.01565511 13.03566471 16.83343145 19.85707155 23.75390625 26.73828125 C25.72893 28.7270443 27.39016185 30.71233526 29 33 C26 33 26 33 24.203125 31.53125 C22.12144828 29.36630622 20.04618427 27.19860023 18 25 C17.44183594 24.41089844 16.88367188 23.82179688 16.30859375 23.21484375 C12.245092 18.75967918 8.64913225 13.96503448 5.0625 9.125 C4.31649536 8.12424438 4.31649536 8.12424438 3.55541992 7.10327148 C0 2.24139805 0 2.24139805 0 0 Z " fill="#E6BF52" transform="translate(622,830)"/>
<path d="M0 0 C6.70497097 5.09577793 12.31448225 11.49401509 14 20 C14.66 20 15.32 20 16 20 C17.22899346 26.06815522 18.27560214 31.79895188 18 38 C15.97905671 34.46334923 15.1809118 30.88570925 14.25 26.9375 C11.70685254 16.89316688 7.63293126 9.08772188 0 2 C0 1.34 0 0.68 0 0 Z " fill="#F1CC5D" transform="translate(584,735)"/>
<path d="M0 0 C1.16241574 3.3732849 0.87685695 5.02132481 -0.5625 8.25 C-1.95896952 11.49873118 -3.29322828 14.74707252 -4.5 18.0703125 C-4.75837646 18.78026367 -5.01675293 19.49021484 -5.28295898 20.22167969 C-5.79455389 21.63485446 -6.30202031 23.04953204 -6.80493164 24.46582031 C-8.12588409 28.07492209 -9.47710285 31.08032674 -12 34 C-11.65937379 29.91248547 -11.08338162 26.86777368 -9.125 23.25 C-7.40219117 20.0522685 -6.38560209 17.02294457 -5.5 13.5 C-4.25223585 8.55719947 -2.44369745 4.46606776 0 0 Z " fill="#241D1E" transform="translate(944,747)"/>
<path d="M0 0 C-12.80601483 8.99231136 -12.80601483 8.99231136 -20.9765625 8.4765625 C-23 8 -23 8 -26 6 C-25.27554688 5.97421875 -24.55109375 5.9484375 -23.8046875 5.921875 C-17.63003362 5.55962864 -14.01673643 4.85005354 -9 1 C-3.63157895 -1.21052632 -3.63157895 -1.21052632 0 0 Z " fill="#E2AB34" transform="translate(872,955)"/>
<path d="M0 0 C-3.1883831 2.12558873 -5.6912216 2.8733434 -9.375 3.875 C-15.40102575 5.53153198 -21.33094868 7.37534313 -27.2578125 9.36328125 C-30.01489624 10.00345881 -31.38323906 9.97033001 -34 9 C-27.7462244 6.18737228 -21.33605221 4.11575803 -14.75 2.25 C-13.98187988 2.02739502 -13.21375977 1.80479004 -12.42236328 1.57543945 C-8.16920918 0.39933945 -4.45781752 -0.25554368 0 0 Z " fill="#EBC654" transform="translate(522,728)"/>
<path d="M0 0 C-8.4948542 7.03859348 -8.4948542 7.03859348 -12.4375 6.9375 C-15.66789949 5.75564653 -18.21890271 4.00497712 -21 2 C-18.0845524 2 -15.65845519 2.40863269 -12.8125 3 C-11.91144531 3.185625 -11.01039063 3.37125 -10.08203125 3.5625 C-9.39496094 3.706875 -8.70789063 3.85125 -8 4 C-8 3.34 -8 2.68 -8 2 C-3.61016949 -1.20338983 -3.61016949 -1.20338983 0 0 Z " fill="#E39B23" transform="translate(1027,686)"/>
<path d="M0 0 C-3.51199421 3.51199421 -8.36586507 4.45528836 -13 6 C-14.67163195 6.65411685 -16.34015202 7.31653318 -18 8 C-18.66 7.34 -19.32 6.68 -20 6 C-17.42249905 4.79816525 -14.83928838 3.61343114 -12.25 2.4375 C-11.52039063 2.09525391 -10.79078125 1.75300781 -10.0390625 1.40039062 C-9.33007812 1.08134766 -8.62109375 0.76230469 -7.890625 0.43359375 C-7.24125977 0.13509521 -6.59189453 -0.16340332 -5.92285156 -0.47094727 C-3.60506519 -1.10866223 -2.25095697 -0.75542816 0 0 Z " fill="#E5BD52" transform="translate(481,725)"/>
<path d="M0 0 C-1.89332534 0.81832722 -3.78977733 1.62942268 -5.6875 2.4375 C-7.27111328 3.11619141 -7.27111328 3.11619141 -8.88671875 3.80859375 C-13.65076406 5.63172276 -17.72800459 6.12375898 -22.8125 6.0625 C-24.27623047 6.04896484 -24.27623047 6.04896484 -25.76953125 6.03515625 C-26.87361328 6.01775391 -26.87361328 6.01775391 -28 6 C-28 5.67 -28 5.34 -28 5 C-27.35675781 4.90203125 -26.71351563 4.8040625 -26.05078125 4.703125 C-19.40917684 3.60408632 -13.21377771 1.89611068 -6.84765625 -0.29296875 C-4.01537377 -0.99618292 -2.68590741 -1.01611437 0 0 Z " fill="#171B26" transform="translate(283,870)"/>
<path d="M0 0 C4.40114397 0.50298788 6.71195019 2.08772731 10 5 C9 6 9 6 6.93359375 6.09765625 C6.10988281 6.08605469 5.28617187 6.07445312 4.4375 6.0625 C3.61121094 6.05347656 2.78492188 6.04445313 1.93359375 6.03515625 C1.29550781 6.02355469 0.65742188 6.01195312 0 6 C0 4.02 0 2.04 0 0 Z " fill="#EEEEEF" transform="translate(280,923)"/>
<path d="M0 0 C0.33 0 0.66 0 1 0 C1.42515028 5.11698731 0.37283083 7.66835485 -2.5 11.875 C-3.1496875 12.84179688 -3.799375 13.80859375 -4.46875 14.8046875 C-4.9740625 15.52914062 -5.479375 16.25359375 -6 17 C-6.66 16.34 -7.32 15.68 -8 15 C-5.36 10.05 -2.72 5.1 0 0 Z " fill="#E09628" transform="translate(796,742)"/>
<path d="M0 0 C1 3 1 3 0.28735352 4.90112305 C-0.28607788 5.94586792 -0.28607788 5.94586792 -0.87109375 7.01171875 C-1.48500977 8.14770508 -1.48500977 8.14770508 -2.11132812 9.30664062 C-2.54896484 10.09232422 -2.98660156 10.87800781 -3.4375 11.6875 C-4.0881543 12.88342773 -4.0881543 12.88342773 -4.75195312 14.10351562 C-5.82574763 16.07410554 -6.90864182 18.03909927 -8 20 C-8.66 20 -9.32 20 -10 20 C-8.56347895 15.08558588 -6.45840385 10.99761642 -3.875 6.625 C-3.50246094 5.98433594 -3.12992188 5.34367188 -2.74609375 4.68359375 C-1.83565998 3.11951523 -0.91851809 1.55934466 0 0 Z " fill="#241D1F" transform="translate(926,792)"/>
<path d="M0 0 C-2.39311353 1.46295997 -4.78928086 2.9204522 -7.1875 4.375 C-7.86103516 4.7875 -8.53457031 5.2 -9.22851562 5.625 C-12.73751316 7.74751558 -16.11387353 9.62665045 -20 11 C-20 10.34 -20 9.68 -20 9 C-17.40607559 7.00966426 -14.50974818 5.45748055 -11.6875 3.8125 C-10.50897461 3.09803711 -10.50897461 3.09803711 -9.30664062 2.36914062 C-8.1706543 1.70108398 -8.1706543 1.70108398 -7.01171875 1.01953125 C-6.31522217 0.60807861 -5.61872559 0.19662598 -4.90112305 -0.22729492 C-3 -1 -3 -1 0 0 Z " fill="#201D1E" transform="translate(958,906)"/>
<path d="M0 0 C0 0.99 0 1.98 0 3 C-1.828125 4.60546875 -1.828125 4.60546875 -4.25 6.1875 C-5.03890625 6.71730469 -5.8278125 7.24710938 -6.640625 7.79296875 C-9 9 -9 9 -13 9 C-13 8.34 -13 7.68 -13 7 C-10.6640625 5.2734375 -10.6640625 5.2734375 -7.625 3.375 C-6.62726563 2.74335937 -5.62953125 2.11171875 -4.6015625 1.4609375 C-2 0 -2 0 0 0 Z " fill="#DF9222" transform="translate(391,757)"/>
<path d="M0 0 C3.05516083 1.38193528 5.32959161 3.00476308 7.8125 5.25 C8.49957031 5.86488281 9.18664062 6.47976563 9.89453125 7.11328125 C10.93673828 8.04720703 10.93673828 8.04720703 12 9 C13.33001966 10.14967801 14.66309162 11.2958399 16 12.4375 C16.99 13.283125 17.98 14.12875 19 15 C18.34 15.66 17.68 16.32 17 17 C16.27554688 16.26394531 15.55109375 15.52789062 14.8046875 14.76953125 C10.03749621 9.95044208 5.27060102 5.27346028 0 1 C0 0.67 0 0.34 0 0 Z " fill="#DFAF37" transform="translate(757,450)"/>
<path d="M0 0 C4.62 0 9.24 0 14 0 C14 0.99 14 1.98 14 3 C10.04 3 6.08 3 2 3 C2 2.34 2 1.68 2 1 C1.34 0.67 0.68 0.34 0 0 Z " fill="#F0F0EF" transform="translate(620,113)"/>
<path d="M0 0 C7.02952752 0.4535179 12.5849443 2.12059087 19 5 C18.34 5.66 17.68 6.32 17 7 C8.585 4.03 8.585 4.03 0 1 C0 0.67 0 0.34 0 0 Z " fill="#E6C55B" transform="translate(605,715)"/>
<path d="M0 0 C0.66 0 1.32 0 2 0 C3.03033882 2.12040742 4.04902854 4.24647908 5.0625 6.375 C5.91521484 8.15003906 5.91521484 8.15003906 6.78515625 9.9609375 C7.18605469 10.96382813 7.58695313 11.96671875 8 13 C7.67 13.66 7.34 14.32 7 15 C5 14 5 14 4.1484375 11.93359375 C3.89320313 11.10988281 3.63796875 10.28617187 3.375 9.4375 C2.98441406 8.19806641 2.98441406 8.19806641 2.5859375 6.93359375 C2.39257812 6.29550781 2.19921875 5.65742188 2 5 C1.34 5 0.68 5 0 5 C0 3.35 0 1.7 0 0 Z " fill="#D9A032" transform="translate(926,453)"/>
<path d="M0 0 C0 0.66 0 1.32 0 2 C-2.24588836 2.55846957 -4.49693668 3.09621983 -6.75 3.625 C-8.62945313 4.07746094 -8.62945313 4.07746094 -10.546875 4.5390625 C-14.00812564 5.00108464 -15.20402902 4.96282811 -18 3 C-15.75113762 2.49490792 -13.50086131 1.99610821 -11.25 1.5 C-9.37054687 1.08234375 -9.37054687 1.08234375 -7.453125 0.65625 C-4 0 -4 0 0 0 Z " fill="#DCBA51" transform="translate(526,710)"/>
<path d="M0 0 C-1 3 -1 3 -3.14453125 4.421875 C-4.02496094 4.86015625 -4.90539062 5.2984375 -5.8125 5.75 C-6.68519531 6.19859375 -7.55789063 6.6471875 -8.45703125 7.109375 C-11.19935744 8.06982104 -12.3313431 8.02018585 -15 7 C-12.87767021 5.82823482 -10.75242209 4.66245215 -8.625 3.5 C-7.72007812 2.99919922 -7.72007812 2.99919922 -6.796875 2.48828125 C-2.2265625 0 -2.2265625 0 0 0 Z " fill="#2D2624" transform="translate(447,726)"/>
<path d="M0 0 C0.33 0 0.66 0 1 0 C0.03644647 11.52164009 0.03644647 11.52164009 -1 17 C-1.33 17 -1.66 17 -2 17 C-2.19658808 15.58456585 -2.38187546 14.16755969 -2.5625 12.75 C-2.66691406 11.96109375 -2.77132812 11.1721875 -2.87890625 10.359375 C-3.00027349 7.99467126 -2.69633257 6.2488963 -2 4 C-1.34 4 -0.68 4 0 4 C0 2.68 0 1.36 0 0 Z " fill="#CF8C28" transform="translate(958,673)"/>
<path d="M0 0 C0.33 0.66 0.66 1.32 1 2 C2.88764903 2.68472665 2.88764903 2.68472665 5.0625 3.125 C5.79597656 3.29257812 6.52945313 3.46015625 7.28515625 3.6328125 C7.85105469 3.75398437 8.41695312 3.87515625 9 4 C9 4.66 9 5.32 9 6 C4.16371695 5.00956295 -0.47618873 4.04301154 -5 2 C-5 1.67 -5 1.34 -5 1 C-3.35 0.67 -1.7 0.34 0 0 Z " fill="#D8A634" transform="translate(793,943)"/>
<path d="M0 0 C0 0.99 0 1.98 0 3 C-7.28571429 7.42857143 -7.28571429 7.42857143 -12 8 C-9.69716746 5.45868642 -7.32686207 3.92889705 -4.3125 2.3125 C-3.50425781 1.87550781 -2.69601562 1.43851562 -1.86328125 0.98828125 C-1.24839844 0.66214844 -0.63351562 0.33601563 0 0 Z " fill="#353A41" transform="translate(281,312)"/>
<path d="M0 0 C0.66 0.33 1.32 0.66 2 1 C-2.05387741 5.81397943 -5.0217942 6.88541926 -11 8 C-8.83385197 5.69125289 -6.60793392 3.94709819 -3.9375 2.25 C-2.89916016 1.57710938 -2.89916016 1.57710938 -1.83984375 0.890625 C-1.23269531 0.59671875 -0.62554687 0.3028125 0 0 Z " fill="#363B41" transform="translate(343,274)"/>
<path d="M0 0 C0 0.66 0 1.32 0 2 C-1.59766103 2.86627399 -3.20339944 3.71766465 -4.8125 4.5625 C-5.70582031 5.03816406 -6.59914063 5.51382813 -7.51953125 6.00390625 C-10 7 -10 7 -13 6 C-10.4345406 3.4345406 -8.52313332 3.45953913 -5 3 C-5 2.34 -5 1.68 -5 1 C-2 0 -2 0 0 0 Z " fill="#EEAE34" transform="translate(287,864)"/>
<path d="M0 0 C2 3 2 3 2 6 C2.66 6 3.32 6 4 6 C4.33 9.3 4.66 12.6 5 16 C3 15 3 15 2.1484375 12.63671875 C1.89320313 11.66347656 1.63796875 10.69023437 1.375 9.6875 C1.11460937 8.72199219 0.85421875 7.75648438 0.5859375 6.76171875 C0 4 0 4 0 0 Z " fill="#101621" transform="translate(943,489)"/>
<path d="M0 0 C0.66 0.99 1.32 1.98 2 3 C1.06810009 6.10633303 -0.19193628 8.28790442 -2 11 C-3.14947895 7.44706507 -3.0868937 6.20023331 -1.5625 2.6875 C-1.046875 1.800625 -0.53125 0.91375 0 0 Z " fill="#DD9126" transform="translate(934,766)"/>
<path d="M0 0 C-5.33561839 2.2866936 -9.27898766 3.47111746 -15 2 C-15 1.67 -15 1.34 -15 1 C-13.25215171 0.63536268 -11.50159498 0.2836922 -9.75 -0.0625 C-8.28820312 -0.35833984 -8.28820312 -0.35833984 -6.796875 -0.66015625 C-4.131881 -0.98397535 -2.51128277 -0.85503199 0 0 Z " fill="#D4D5D7" transform="translate(655,1111)"/>
<path d="M0 0 C0.33 0.66 0.66 1.32 1 2 C-5.14285714 7.57142857 -5.14285714 7.57142857 -10 8 C-6.88983545 4.71211176 -3.98381075 2.16264012 0 0 Z " fill="#EEC652" transform="translate(406,763)"/>
<path d="M0 0 C-2.97 1.65 -5.94 3.3 -9 5 C-9.66 4.34 -10.32 3.68 -11 3 C-9.73581754 2.30034557 -8.46334598 1.61565237 -7.1875 0.9375 C-6.47980469 0.55464844 -5.77210938 0.17179688 -5.04296875 -0.22265625 C-3 -1 -3 -1 0 0 Z " fill="#DF9725" transform="translate(427,737)"/>
<path d="M0 0 C0 0.99 0 1.98 0 3 C-2.97 3.66 -5.94 4.32 -9 5 C-4.5 0 -4.5 0 0 0 Z " fill="#2D2D2D" transform="translate(511,732)"/>
<path d="M0 0 C0 0.66 0 1.32 0 2 C-2.97 3.32 -5.94 4.64 -9 6 C-9.66 5.34 -10.32 4.68 -11 4 C-9.5437455 3.32880451 -8.08492133 2.66318193 -6.625 2 C-5.81289063 1.62875 -5.00078125 1.2575 -4.1640625 0.875 C-2 0 -2 0 0 0 Z " fill="#DAB94F" transform="translate(472,727)"/>
<path d="M0 0 C0.66 0 1.32 0 2 0 C2.33 0.66 2.66 1.32 3 2 C4.32 2.66 5.64 3.32 7 4 C3.7 4 0.4 4 -3 4 C-2.01 2.68 -1.02 1.36 0 0 Z " fill="#E0AA39" transform="translate(259,870)"/>
<path d="M0 0 C0.66 0 1.32 0 2 0 C0.94124926 3.40312738 -0.00902154 6.01353231 -2 9 C-2.66 9 -3.32 9 -4 9 C-2.94124926 5.59687262 -1.99097846 2.98646769 0 0 Z " fill="#2C2423" transform="translate(920,803)"/>
<path d="M0 0 C0.66 0 1.32 0 2 0 C3.32421875 1.42578125 3.32421875 1.42578125 4.6875 3.3125 C5.14511719 3.92738281 5.60273437 4.54226563 6.07421875 5.17578125 C6.53248047 6.07876953 6.53248047 6.07876953 7 7 C6.67 7.99 6.34 8.98 6 10 C4.99421411 8.71283353 3.99553202 7.42011342 3 6.125 C2.443125 5.40570313 1.88625 4.68640625 1.3125 3.9453125 C0 2 0 2 0 0 Z " fill="#19191B" transform="translate(897,402)"/>
<path d="M0 0 C2.33944736 0.28730055 4.6739143 0.61936779 7 1 C7 1.66 7 2.32 7 3 C4.125 3.125 4.125 3.125 1 3 C0.34 2.34 -0.32 1.68 -1 1 C-0.67 0.67 -0.34 0.34 0 0 Z " fill="#2C3139" transform="translate(615,1110)"/>
<path d="M0 0 C3.91211733 1.15585285 6.8745041 2.35534962 10 5 C6.28111761 4.49287967 3.26545761 3.88391785 0 2 C0 1.34 0 0.68 0 0 Z " fill="#DEAF48" transform="translate(874,872)"/>
<path d="M0 0 C0.99 0.33 1.98 0.66 3 1 C1.02 3.97 1.02 3.97 -1 7 C-1.99 6.34 -2.98 5.68 -4 5 C-2.68 3.35 -1.36 1.7 0 0 Z " fill="#E09829" transform="translate(784,763)"/>
<path d="M0 0 C0.99 0.33 1.98 0.66 3 1 C0.94766315 3.2477975 -0.00667261 4.0022242 -3 5 C-3.66 4.34 -4.32 3.68 -5 3 C-2.6875 1.4375 -2.6875 1.4375 0 0 Z " fill="#E19A29" transform="translate(440,726)"/>
<path d="M0 0 C2.64752004 2.57784846 4.94432065 4.91648098 7 8 C6.01 8 5.02 8 4 8 C0 3.77142857 0 3.77142857 0 0 Z " fill="#26241C" transform="translate(891,394)"/>
<path d="M0 0 C2.64 0.33 5.28 0.66 8 1 C8 1.99 8 2.98 8 4 C5.23723823 3.47731534 2.6739124 2.89130413 0 2 C0 1.34 0 0.68 0 0 Z " fill="#2F2921" transform="translate(775,311)"/>
<path d="M0 0 C1.65 0 3.3 0 5 0 C5 0.66 5 1.32 5 2 C6.32 2.33 7.64 2.66 9 3 C6.21176345 4.0326802 5.1322726 4.04509293 2.25 3.0625 C1.5075 2.711875 0.765 2.36125 0 2 C0 1.34 0 0.68 0 0 Z " fill="#E4B037" transform="translate(751,928)"/>
<path d="M0 0 C3.36720387 1.39332574 4.9859524 2.9789286 7 6 C4 6 4 6 1.8125 4.125 C0 2 0 2 0 0 Z " fill="#2E291C" transform="translate(875,377)"/>
<path d="M0 0 C0.66 0.33 1.32 0.66 2 1 C2 1.66 2 2.32 2 3 C0.02 3.99 -1.96 4.98 -4 6 C-4 5.01 -4 4.02 -4 3 C-2 1.3125 -2 1.3125 0 0 Z " fill="#ECAB34" transform="translate(305,851)"/>
<path d="M0 0 C0.33 0.99 0.66 1.98 1 3 C1.66 3 2.32 3 3 3 C2.67 5.64 2.34 8.28 2 11 C1.67 11 1.34 11 1 11 C0.67 7.37 0.34 3.74 0 0 Z " fill="#DD9528" transform="translate(951,701)"/>
</svg>
