<svg xmlns="http://www.w3.org/2000/svg" width="1254" height="1254" style="background:0 0"><path
    fill="#20252d"
    d="M694.46 141.848c5.736 3.499 11.528 6.902 17.312 10.32a2778 2778 0 0 1 32.728 19.644 1482 1482 0 0 0 28.138 16.738c8.529 4.95 17.012 9.972 25.487 15.012l2.079 1.237 8.132 4.836a5679 5679 0 0 0 17.414 10.303c15.314 9.042 30.545 18.205 45.652 27.59a4923 4923 0 0 0 18.285 11.285l9.97 6.13q4.985 3.068 9.968 6.139a6276 6276 0 0 0 33.692 20.63c8.34 5.07 16.655 10.184 24.96 15.312 5.336 3.29 10.682 6.561 16.059 9.785 9.942 5.966 19.647 11.87 28.664 19.191l1.879 1.387c18.719 14.462 28.77 39.97 32.121 62.613.626 7.186.446 14.4.355 21.605q-.016 3.154-.027 6.31-.028 6.735-.087 13.469c-.059 7.108-.078 14.215-.09 21.323-.038 20.198-.11 40.396-.264 60.594a4151 4151 0 0 0-.122 33.554c0 7.06-.05 14.117-.14 21.176a895 895 0 0 0-.016 13.178q0 3.044-.063 6.086c-.572 11.355-.572 11.355 4.078 21.248 2.876 2.826 6.124 5.082 9.376 7.457 5.781 6.546 6.315 12.45 6.336 20.86l.02 2.861q.015 2.991.015 5.981c.004 3.024.04 6.047.078 9.071q.009 2.919.012 5.836l.043 2.703c-.046 6.49-.83 12.214-4.504 17.688a77 77 0 0 1-3.329 2.736c-6.243 4.947-10.741 9.118-11.925 17.296-.538 6.834-.441 13.658-.269 20.506.072 3.471.06 6.943.057 10.415.006 6.573.08 13.142.182 19.714.146 9.605.198 19.21.239 28.816l.01 2.154.017 4.26c.022 4.763.08 9.524.151 14.286.151 12.652.064 24.518-3.133 36.817l-.645 2.73c-5.466 22.231-20.96 43.716-40.383 55.704q-1.89 1.14-3.79 2.266a659 659 0 0 0-7.483 4.546c-11.694 7.17-23.455 14.23-35.225 21.273q-6.395 3.831-12.787 7.668l-5.046 3.028a5913 5913 0 0 0-8.282 4.976c-8.16 4.91-16.35 9.77-24.547 14.621a4372 4372 0 0 0-26.323 15.684q-5.194 3.12-10.385 6.249c-12.314 7.419-24.662 14.772-37.094 21.992a1602 1602 0 0 0-21.198 12.576c-12.026 7.242-24.128 14.351-36.25 21.435a9022 9022 0 0 0-13.003 7.615l-1.851 1.086-3.685 2.162a12373 12373 0 0 1-30.916 18.075 7051 7051 0 0 0-18.255 10.678 5154 5154 0 0 1-9.4 5.506c-5.327 3.113-10.646 6.235-15.917 9.443-16.957 10.246-33.453 16.125-53.473 15.937l-3.2-.023c-17.167-.237-30.76-5.055-45.612-13.602l-3.223-1.83c-10.864-6.2-21.574-12.66-32.277-19.136-3.756-2.266-7.53-4.5-11.313-6.722l-1.974-1.158a5290 5290 0 0 0-12.31-7.185c-18.677-10.878-18.677-10.878-27.012-15.917-6.738-4.06-13.538-8.018-20.329-11.99-8.336-4.876-16.663-9.766-24.937-14.75a3804 3804 0 0 0-22.813-13.625l-1.716-1.017a3475 3475 0 0 0-19.534-11.498c-13.333-7.787-26.602-15.663-39.784-23.703A1497 1497 0 0 0 341 958.5c-8.99-5.282-17.907-10.68-26.812-16.104A1731 1731 0 0 0 291 928.5q-5.503-3.245-11-6.5l-1.7-1.005q-5.58-3.303-11.141-6.64a787 787 0 0 0-3.623-2.156c-26.27-15.545-43.394-36.989-51.411-66.511-2.468-11.53-2.27-23.268-2.259-35l-.007-5.204a9273 9273 0 0 1-.004-14.22c0-5.123-.006-10.246-.01-15.369a39007 39007 0 0 1-.012-30.08q0-12.23-.006-24.46-.014-34.71-.012-69.42v-7.558q-.002-30.328-.023-60.655-.023-31.174-.02-62.348.001-17.487-.014-34.976-.014-14.89-.005-29.78.007-7.59-.005-15.178-.011-6.963.002-13.926.003-2.502-.005-5.006c-.026-8.265.198-16.408 1.138-24.626l.231-2.043c2.273-17.904 10.61-34.917 21.886-48.839l1.824-2.32c10.938-13.162 26.21-21.089 40.729-29.638 5.198-3.07 10.353-6.212 15.51-9.352q2.641-1.608 5.285-3.214 7.068-4.295 14.133-8.594l10.394-6.32 1.74-1.057a5515 5515 0 0 1 29.278-17.639c12.558-7.524 25.075-15.114 37.582-22.722a30166 30166 0 0 1 20.152-12.246c7.392-4.49 14.795-8.959 22.217-13.398 6.695-4.017 13.36-8.085 20.032-12.14a2790 2790 0 0 1 20.061-12.11c10.321-6.176 20.517-12.558 30.73-18.909 10.182-6.33 20.392-12.604 30.682-18.758a3251 3251 0 0 0 18.901-11.395l2.882-1.746a671 671 0 0 0 15.169-9.489c10.31-6.63 19.778-12.715 31.699-15.953l3.07-1.035c33.25-10.95 61.865 6.025 89.39 22.883"
  /><path
    fill="#eba02f"
    d="m371 290 147.938-.062 46.675-.028c18.84-.005 18.84-.005 27.665-.005q9.225-.002 18.452-.01 10.658-.01 21.315-.008 5.445.002 10.888-.006c80.68-.116 159.095 21.646 219.723 76.998 2.143 1.94 4.327 3.814 6.532 5.683 3.277 2.86 6.115 5.92 8.921 9.239 2.104 2.447 4.308 4.783 6.516 7.137C908.979 414.662 928.206 446.93 939 480l.824 2.473q.727 2.178 1.438 4.363a108 108 0 0 0 1.633 4.453c3.622 9.322 5.862 18.984 8.105 28.711l.531 2.282c3.436 15.055 5.36 30.377 7.418 45.667l.277 2.053q.266 1.996.518 3.994.253 1.983.54 3.96c.995 7.5.842 15.03.814 22.58l-.005 4.467q-.006 5.836-.024 11.674-.014 5.973-.02 11.946-.016 11.689-.049 23.377h25v-9c1.412-1.983 1.412-1.983 3.398-3.191l2.218-1.415L994 637l2.345-1.507c2.398-1.53 4.83-2.986 7.28-4.43l2.484-1.534 2.43-1.431 2.163-1.297c4.136-1.441 7.325-.265 11.166 1.566l2.933 1.723 3.209 1.877 3.303 1.97 3.36 1.96c8.19 4.829 8.19 4.829 9.327 7.103.087 2.554.116 5.08.098 7.633l-.005 2.278c-.005 2.405-.018 4.81-.03 7.214l-.014 4.887q-.017 5.994-.049 11.988a2521 2521 0 0 1-10.834 6.354q-1.842 1.077-3.68 2.162a992 992 0 0 1-5.31 3.105l-3.222 1.889c-2.83 1.428-4.797 2.327-7.954 2.49-2.508-1.016-2.508-1.016-5.125-2.605l-2.89-1.733-2.985-1.85-2.984-1.79c-2.702-1.638-5.384-3.276-8.016-5.022l-2.82-1.642C986 676 986 676 986 667h-27v11a99 99 0 0 1-.918 6.61l-.605 3.499-.664 3.641-.688 3.85c-3.597 19.831-8.116 39.154-14.125 58.4l-.737 2.376c-1.458 4.545-3.186 8.873-5.17 13.212-1.199 2.645-2.335 5.312-3.468 7.986-13.55 31.697-31.024 59.46-53.625 85.426l-2.242 2.582A980 980 0 0 1 872 871l2.41.715c4.524 1.62 8.722 3.724 13.028 5.847 11.275 5.47 22.827 10.062 34.562 14.438l2.737 1.036c7.257 2.704 14.602 4.825 22.072 6.85l2.691.747 2.406.653C954 902 954 902 957 904c-7.763 5.376-15.87 10.147-24 14.938q-4.313 2.549-8.625 5.101l-2.167 1.281c-6.421 3.8-12.817 7.642-19.208 11.492a1897 1897 0 0 1-28.037 16.535l-2.81 1.63-2.685 1.54c-2.448 1.426-2.448 1.426-4.573 2.99-5.336 3.801-9.428 4.346-15.895 3.493-4.761-.87-9.435-1.995-14.125-3.187l-3.884-.964C819.075 955.85 807.491 952.35 796 948l-3.754-1.395c-6.71-2.494-13.405-5.025-20.058-7.668l-3.395-1.347C734.076 923.32 700.558 905.199 671 882l-2.852-2.207c-5.117-4.017-9.984-8.262-14.785-12.652-2.063-1.87-4.168-3.664-6.3-5.453-25.411-22.356-38.668-51.19-45.442-83.71C596.98 753.413 596.98 753.413 581 735c-2.59-1.617-5.186-2.83-8-4l-1.773-.803c-7.701-3.07-15.762-2.745-23.914-2.697l-2.354.004c-13.202.06-25.316 1.521-37.959 5.496l-2.461.745C477.389 742.028 452.142 755.25 428 770l-2.585 1.579C413.34 778.995 401.638 786.922 390 795l-5.676 3.922a1718 1718 0 0 0-33.155 23.501c-4.464 3.245-8.941 6.471-13.418 9.698-3.771 2.72-7.536 5.45-11.286 8.2C278.609 875.323 278.609 875.323 256 874c4.51-4.847 9.66-8.71 14.938-12.687l2.848-2.16a642 642 0 0 1 17.122-12.509c6.72-4.756 13.215-9.81 19.738-14.833a2149 2149 0 0 1 55.909-41.604 975 975 0 0 0 8.765-6.383c21.878-16.063 44.903-30.698 68.709-43.74a712 712 0 0 0 5.834-3.256C475.778 722.471 502.971 713.365 532 708l2.852-.55c5.75-.821 11.56-.636 17.358-.635 2.256-.002 4.51-.02 6.767-.04C600.924 706.608 640.99 724.021 676 746l4.473 2.754c16.042 9.94 31.522 20.717 46.965 31.558a8433 8433 0 0 0 7.26 5.078q2.284 1.597 4.56 3.205a767 767 0 0 0 6.242 4.342l1.834 1.308c3.1 2.12 3.1 2.12 6.713 2.849 3.026-1.695 5.315-4.06 7.703-6.532l1.613-1.646c4.56-4.719 8.718-9.65 12.637-14.916l2.395-3.172c6.333-8.527 11.694-17.416 16.605-26.828l1.203-2.274C824.835 686.948 835.073 613.208 819 553l-1-1a291 291 0 0 1-1.125-5.875C812.225 524.001 801.859 503.424 789 485l-1.21-1.749C762.229 446.784 721.874 425.634 679 417c-57.48-7.928-115.977-4.6-174-5v291l-17 5c-3.598 1.315-7.105 2.64-10.625 4.125l-2.772 1.157C455.234 721.477 436.97 731.086 419 742l-2.316 1.403c-14.26 8.677-28.349 17.751-41.497 28.05C373 773 373 773 371 773z"
  /><path
    fill="#f3b345"
    d="M552.21 706.815c2.256-.002 4.51-.02 6.767-.04C600.924 706.608 640.99 724.021 676 746l4.473 2.754c16.665 10.327 32.734 21.548 48.764 32.827 7.904 5.548 15.899 10.96 23.896 16.375 5.447 3.694 10.856 7.423 16.18 11.294 22.83 16.455 47.305 30.749 71.687 44.75l2.44 1.41c11.678 6.73 23.683 12.623 35.889 18.332 2.378 1.12 4.743 2.26 7.105 3.414C898.018 882.79 909.947 887.47 922 892c.91.345 1.818.69 2.755 1.044 7.25 2.702 14.59 4.819 22.054 6.843l2.691.746 2.406.653C954 902 954 902 957 904c-7.763 5.376-15.87 10.147-24 14.937q-4.313 2.55-8.625 5.102l-2.167 1.281c-6.421 3.8-12.817 7.642-19.208 11.492a1897 1897 0 0 1-28.037 16.535l-2.81 1.63-2.685 1.54c-2.448 1.426-2.448 1.426-4.573 2.99-5.336 3.801-9.428 4.346-15.895 3.493-4.761-.87-9.435-1.995-14.125-3.188l-3.884-.963C819.075 955.85 807.491 952.35 796 948l-3.754-1.395c-6.71-2.494-13.405-5.025-20.059-7.668l-3.394-1.347C734.076 923.32 700.558 905.199 671 882l-2.852-2.207c-5.117-4.017-9.984-8.262-14.785-12.652-2.063-1.87-4.168-3.664-6.3-5.454-25.411-22.355-38.668-51.189-45.442-83.709C596.98 753.413 596.98 753.413 581 735c-2.59-1.617-5.186-2.83-8-4l-1.773-.803c-7.701-3.07-15.762-2.745-23.915-2.697l-2.353.004c-13.202.06-25.316 1.521-37.959 5.496l-2.461.745C477.389 742.028 452.142 755.25 428 770l-2.585 1.579C413.34 778.995 401.638 786.922 390 795l-5.676 3.922a1718 1718 0 0 0-33.155 23.501c-4.464 3.245-8.941 6.471-13.418 9.698-3.771 2.72-7.536 5.45-11.286 8.2C278.609 875.323 278.609 875.323 256 874c4.51-4.847 9.66-8.71 14.937-12.688l2.85-2.159a642 642 0 0 1 17.12-12.509c6.722-4.756 13.216-9.81 19.739-14.833a2149 2149 0 0 1 55.909-41.604 975 975 0 0 0 8.765-6.383c21.878-16.063 44.903-30.698 68.709-43.74a712 712 0 0 0 5.834-3.256C475.778 722.471 502.971 713.365 532 708l2.852-.55c5.75-.821 11.56-.636 17.358-.635"
  /><path
    fill="#221f1a"
    d="M839 346c4.508 1.458 7.68 3.986 11.188 7.063l1.72 1.483a691 691 0 0 1 12.822 11.403 348 348 0 0 0 6.395 5.613c6.85 6 12.838 12.429 18.531 19.536 2.353 2.913 4.782 5.747 7.219 8.59 8.188 9.82 17.478 21.322 22.125 33.312l-1 3-.851-1.43C904.916 414.09 891.414 394.48 874 378a361 361 0 0 1-7.184-7.29c-5.778-5.988-11.917-11.121-18.52-16.167-3.175-2.432-6.275-4.92-9.296-7.543z"
  /><path
    fill="#dcb74c"
    d="m547.063 724.75 3.623-.023 3.474.007 3.114.007c2.738.26 4.39.853 6.726 2.259l-2.864.012c-23.276.152-44.251 1.917-66.238 10.168-3.004.85-4.022.692-6.898-.18 6.827-2.89 13.655-5.202 20.813-7.125l2.712-.762c11.824-3.215 23.3-4.445 35.538-4.363"
  /><path
    fill="#20201b"
    d="M641 856a385 385 0 0 1 11.563 10.188C670.418 882.27 690.45 895.648 711 908l-3 1c-2.715-1.371-2.715-1.371-5.937-3.437l-1.742-1.11A633 633 0 0 1 695 901l-3.102-2c-6.125-4.008-12.03-8.252-17.851-12.687a400 400 0 0 0-6.469-4.813l-1.687-1.237a1752 1752 0 0 0-4.688-3.415L659 875v-2l-1.784-.814c-3.664-1.96-6.45-4.86-9.466-7.686l-1.969-1.8c-.613-.572-1.227-1.143-1.86-1.731-.56-.522-1.121-1.043-1.7-1.58C641 858 641 858 641 856"
  /><path
    fill="#eeaf32"
    d="M276 859v2h-2v2c-1.71 1.602-3.533 3.013-5.371 4.465-1.895 1.543-1.895 1.543-2.629 4.535l5-2-1 3c-3.032 1.195-6.025 1.105-9.25 1.063l-2.703-.028L256 874c3.657-3.808 7.496-7.108 11.688-10.312.58-.455 1.16-.91 1.76-1.377C273.752 859 273.752 859 276 859"
  /><path
    fill="#1a1a1e"
    d="M960 668h26l1 8c1.49 1.922 1.49 1.922 3.688 3l2.414 1.414L996 682q1.859 1.07 3.71 2.148A813 813 0 0 0 1010 690c-3 1-3 1-4.838.227l-2.033-1.247c-.74-.445-1.479-.89-2.24-1.35l-2.327-1.442q-2.278-1.387-4.558-2.77l-2.037-1.257c-1.97-1.204-1.97-1.204-4.155-2.187C986 679 986 679 985 677v-8h-24l-1 3z"
  /><path
    fill="#e8af39"
    d="M703 294v1c-8.91.14-17.742-.412-26.625-1l-4.488-.29q-5.444-.35-10.887-.71v-1c14.454-1.998 27.78-.99 42 2"
  /><path
    fill="#e6bf52"
    d="M622 830h2c1.02 1.523 1.963 3.097 2.875 4.688 5.14 8.348 11.958 15.17 18.879 22.05A47 47 0 0 1 651 863c-3 0-3 0-4.797-1.469A553 553 0 0 1 640 855l-1.691-1.785c-4.064-4.455-7.66-9.25-11.246-14.09l-1.508-2.022C622 832.241 622 832.241 622 830"
  /><path
    fill="#f1cc5d"
    d="M584 735c6.705 5.096 12.314 11.494 14 20h2c1.229 6.068 2.276 11.799 2 18-2.02-3.537-2.82-7.114-3.75-11.062-2.543-10.045-6.617-17.85-14.25-24.938z"
  /><path
    fill="#241d1e"
    d="M944 747c1.162 3.373.877 5.021-.562 8.25-1.397 3.249-2.731 6.497-3.938 9.82l-.783 2.152a735 735 0 0 0-1.522 4.244c-1.32 3.609-2.672 6.614-5.195 9.534.34-4.088.917-7.132 2.875-10.75 1.723-3.198 2.74-6.227 3.625-9.75 1.248-4.943 3.056-9.034 5.5-13.5"
  /><path
    fill="#e2ab34"
    d="M872 955c-12.806 8.992-12.806 8.992-20.977 8.477C849 963 849 963 846 961l2.195-.078c6.175-.362 9.788-1.072 14.805-4.922 5.368-2.21 5.368-2.21 9-1"
  /><path
    fill="#ebc654"
    d="M522 728c-3.188 2.126-5.691 2.873-9.375 3.875-6.026 1.657-11.956 3.5-17.883 5.488-2.757.64-4.125.607-6.742-.363 6.254-2.813 12.664-4.884 19.25-6.75l2.328-.675c4.253-1.176 7.964-1.83 12.422-1.575"
  /><path
    fill="#e39b23"
    d="M1027 686c-8.495 7.039-8.495 7.039-12.437 6.938-3.23-1.182-5.782-2.933-8.563-4.938 2.915 0 5.342.409 8.188 1l2.73.563L1019 690v-2c4.39-3.203 4.39-3.203 8-2"
  /><path
    fill="#e5bd52"
    d="M481 725c-3.512 3.512-8.366 4.455-13 6a306 306 0 0 0-5 2l-2-2a852 852 0 0 1 7.75-3.562l2.21-1.038 2.15-.966 1.967-.905c2.318-.638 3.672-.284 5.923.471"
  /><path
    fill="#171b26"
    d="M283 870q-2.84 1.226-5.687 2.438l-3.2 1.37c-4.764 1.824-8.841 2.316-13.925 2.255l-2.958-.028L255 876v-1l1.95-.297c6.64-1.099 12.836-2.807 19.202-4.996 2.833-.703 4.162-.723 6.848.293"
  /><path
    fill="#eeeeef"
    d="M280 923c4.401.503 6.712 2.088 10 5-1 1-1 1-3.066 1.098l-2.497-.035-2.503-.028L280 929z"
  /><path fill="#e09628" d="M796 742h1c.425 5.117-.627 7.668-3.5 11.875l-1.969 2.93L790 759l-2-2z" /><path
    fill="#241d1f"
    d="M926 792c1 3 1 3 .287 4.901l-1.158 2.11-1.24 2.296-1.327 2.38-1.314 2.417A753 753 0 0 1 918 812h-2c1.437-4.914 3.542-9.002 6.125-13.375l1.129-1.941Q924.62 794.338 926 792"
  /><path
    fill="#201d1e"
    d="M958 906q-3.59 2.193-7.187 4.375l-2.042 1.25c-3.509 2.123-6.885 4.002-10.771 5.375v-2c2.594-1.99 5.49-3.543 8.313-5.187l2.38-1.444 2.295-1.35c.697-.41 1.393-.822 2.11-1.246C955 905 955 905 958 906"
  /><path
    fill="#df9222"
    d="M391 757v3c-1.828 1.605-1.828 1.605-4.25 3.188l-2.39 1.605C382 766 382 766 378 766v-2c2.336-1.727 2.336-1.727 5.375-3.625l3.023-1.914C389 757 389 757 391 757"
  /><path
    fill="#dfaf37"
    d="M757 450c3.055 1.382 5.33 3.005 7.813 5.25l2.082 1.863L769 459a877 877 0 0 0 4 3.438l3 2.562-2 2-2.195-2.23c-4.768-4.82-9.534-9.497-14.805-13.77z"
  /><path fill="#f0f0ef" d="M620 113h14v3h-12v-2z" /><path
    fill="#e6c55b"
    d="M605 715c7.03.454 12.585 2.12 19 5l-2 2-17-6z"
  /><path
    fill="#d9a032"
    d="M926 453h2q1.543 3.18 3.063 6.375l1.722 3.586L934 466l-1 2c-2-1-2-1-2.852-3.066l-.773-2.497c-.39-1.239-.39-1.239-.79-2.503L928 458h-2z"
  /><path
    fill="#dcba51"
    d="M526 710v2a526 526 0 0 1-6.75 1.625l-3.797.914c-3.461.462-4.657.424-7.453-1.539q3.374-.757 6.75-1.5l3.797-.844C522 710 522 710 526 710"
  /><path
    fill="#2d2624"
    d="M447 726c-1 3-1 3-3.145 4.422l-2.668 1.328-2.644 1.36c-2.742.96-3.874.91-6.543-.11q3.184-1.758 6.375-3.5l1.828-1.012C444.773 726 444.773 726 447 726"
  /><path
    fill="#cf8c28"
    d="M958 673h1c-.964 11.522-.964 11.522-2 17h-1a380 380 0 0 1-.562-4.25l-.317-2.39c-.121-2.365.183-4.111.879-6.36h2z"
  /><path
    fill="#d8a634"
    d="m793 943 1 2c1.888.685 1.888.685 4.063 1.125l2.222.508L802 947v2c-4.836-.99-9.476-1.957-14-4v-1z"
  /><path
    fill="#353a41"
    d="M281 312v3c-7.286 4.429-7.286 4.429-12 5 2.303-2.541 4.673-4.071 7.688-5.687l2.449-1.325z"
  /><path
    fill="#363b41"
    d="m343 274 2 1c-4.054 4.814-7.022 5.885-13 7 2.166-2.309 4.392-4.053 7.063-5.75l2.097-1.36z"
  /><path
    fill="#eeae34"
    d="M287 864v2a408 408 0 0 1-4.812 2.563l-2.708 1.44C277 871 277 871 274 870c2.565-2.565 4.477-2.54 8-3v-2c3-1 3-1 5-1"
  /><path
    fill="#101621"
    d="M943 489c2 3 2 3 2 6h2l1 10c-2-1-2-1-2.852-3.363l-.773-2.95c-.26-.965-.52-1.93-.79-2.925C943 493 943 493 943 489"
  /><path fill="#dd9126" d="m934 766 2 3c-.932 3.106-2.192 5.288-4 8-1.15-3.553-1.087-4.8.438-8.312z" /><path
    fill="#d4d5d7"
    d="M655 1111c-5.336 2.287-9.279 3.471-15 2v-1c1.748-.365 3.498-.716 5.25-1.062l2.953-.598c2.665-.324 4.286-.195 6.797.66"
  /><path fill="#eec652" d="m406 763 1 2c-6.143 5.571-6.143 5.571-11 6 3.11-3.288 6.016-5.837 10-8" /><path
    fill="#df9725"
    d="m427 737-9 5-2-2c1.264-.7 2.537-1.384 3.813-2.062l2.144-1.16C424 736 424 736 427 737"
  /><path fill="#2d2d2d" d="M511 732v3l-9 2c4.5-5 4.5-5 9-5" /><path
    fill="#dab94f"
    d="M472 727v2l-9 4-2-2a875 875 0 0 1 4.375-2l2.46-1.125C470 727 470 727 472 727"
  /><path fill="#e0aa39" d="M259 870h2l1 2 4 2h-10z" /><path
    fill="#2c2423"
    d="M920 803h2c-1.059 3.403-2.009 6.014-4 9h-2c1.059-3.403 2.009-6.014 4-9"
  /><path
    fill="#19191b"
    d="M897 402h2c1.324 1.426 1.324 1.426 2.688 3.313l1.386 1.863L904 409l-1 3a617 617 0 0 1-3-3.875l-1.687-2.18C897 404 897 404 897 402"
  /><path fill="#2c3139" d="M615 1110q3.51.43 7 1v2c-2.875.125-2.875.125-6 0l-2-2z" /><path
    fill="#deaf48"
    d="M874 872c3.912 1.156 6.875 2.355 10 5-3.719-.507-6.735-1.116-10-3z"
  /><path fill="#e09829" d="m784 763 3 1-4 6-3-2z" /><path
    fill="#e19a29"
    d="m440 726 3 1c-2.052 2.248-3.007 3.002-6 4l-2-2c2.313-1.562 2.313-1.562 5-3"
  /><path fill="#26241c" d="M891 394c2.648 2.578 4.944 4.916 7 8h-3c-4-4.229-4-4.229-4-8" /><path
    fill="#2f2921"
    d="m775 311 8 1v3c-2.763-.523-5.326-1.109-8-2z"
  /><path fill="#e4b037" d="M751 928h5v2l4 1c-2.788 1.033-3.868 1.045-6.75.063L751 930z" /><path
    fill="#2e291c"
    d="M875 377c3.367 1.393 4.986 2.979 7 6-3 0-3 0-5.187-1.875C875 379 875 379 875 377"
  /><path fill="#ecab34" d="m305 851 2 1v2l-6 3v-3c2-1.687 2-1.687 4-3" /><path
    fill="#dd9528"
    d="m951 701 1 3h2l-1 8h-1z"
  /></svg>
