<svg xmlns="http://www.w3.org/2000/svg" width="256" height="256" fill="none" viewBox="0 0 256 256"><defs><linearGradient
      id="d"
      x1="70"
      x2="186"
      y1="24"
      y2="232"
      gradientUnits="userSpaceOnUse"
    ><stop offset="0" stop-color="#2b2c2c" /><stop offset=".45" stop-color="#090909" /><stop
        offset="1"
        stop-color="#010101"
      /></linearGradient><linearGradient id="e" x1="128" x2="128" y1="16" y2="236" gradientUnits="userSpaceOnUse"><stop
        offset="0"
        stop-color="#4b4d4c"
      /><stop offset=".35" stop-color="#151515" /><stop offset="1" /></linearGradient><linearGradient
      id="f"
      x1="128"
      x2="128"
      y1="42"
      y2="218"
      gradientUnits="userSpaceOnUse"
    ><stop offset="0" stop-color="#ff4a4a" /><stop offset=".42" stop-color="#a00012" /><stop
        offset="1"
        stop-color="#1a0004"
      /></linearGradient><radialGradient id="a" cx="128" cy="132" r="86" gradientUnits="userSpaceOnUse"><stop
        offset="0"
        stop-color="#ff2a2a"
      /><stop offset=".34" stop-color="#b00013" /><stop offset=".68" stop-color="#310006" /><stop
        offset="1"
        stop-color="#050000"
        stop-opacity="0"
      /></radialGradient><clipPath id="c"><path d="m128 14 44 55 30 69-74 102-74-102 30-69z" /></clipPath><filter
      id="b"
      width="192"
      height="216"
      x="32"
      y="20"
      color-interpolation-filters="sRGB"
      filterUnits="userSpaceOnUse"
    ><feGaussianBlur result="blur" stdDeviation="3.5" /><feMerge><feMergeNode in="blur" /><feMergeNode
          in="SourceGraphic"
        /></feMerge></filter></defs><path
    fill="#080808"
    stroke="#303030"
    stroke-width="1.5"
    d="m46 123 24-45 14 77-22 30Zm164 0-24-45-14 77 22 30Z"
  /><path fill="#242625" d="m70 78 18 65-4 12Zm116 0-18 65 4 12Z" /><path
    fill="#030303"
    stroke="#1b1b1b"
    d="m62 185 29-12 37 67Zm132 0-29-12-37 67Z"
  /><path fill="url(#a)" d="m128 36 35 57 15 57-50 71-50-71 15-57Z" filter="url(#b)" opacity=".9" /><g
    clip-path="url(#c)"
  ><path fill="url(#d)" d="M128 14 84 69l-30 69 74 102Z" /><path fill="#050505" d="m128 14 44 55 30 69-74 102Z" /><path
      fill="url(#e)"
      d="m128 14-27 64 27-24 27 24Z"
    /><path fill="#141414" d="m84 69 17 9-18 72-29-12Z" /><path fill="#0a0a0a" d="m172 69-17 9 18 72 29-12Z" /><path
      fill="#111"
      stroke="#565656"
      d="m101 78 27-24 27 24-9 50-18-16-18 16Z"
    /><path fill="url(#f)" d="m128 54 18 74-18 93-18-93Z" /><path
      fill="#f33"
      d="M128 54v58l-18 16Z"
      opacity=".78"
    /><path fill="#550006" d="m128 54 18 74-18-16Z" opacity=".95" /><path
      fill="#7a000a"
      d="m110 128 18-16v48l-44-9Z"
      opacity=".92"
    /><path fill="#220004" d="m146 128-18-16v48l44-9Z" opacity=".95" /><path fill="#210004" d="m84 151 44 9v61Z" /><path
      fill="#090001"
      d="m172 151-44 9v61Z"
    /><path fill="#0a0a0a" d="m110 128-26 23 17-73Z" opacity=".82" /><path
      fill="#070707"
      d="m146 128 26 23-17-73Z"
      opacity=".9"
    /><path fill="#070707" d="m54 138 30 13 44 89Z" opacity=".95" /><path
      fill="#010101"
      d="m202 138-30 13-44 89Z"
      opacity=".95"
    /><path fill="#111" d="m84 151 21 26 23 63Z" /><path fill="#050505" d="m172 151-21 26-23 63Z" /><path
      fill="#120002"
      d="m105 177 23-17 23 17-23 63Z"
      opacity=".95"
    /></g><path stroke="#171717" stroke-width="3" d="m128 14 44 55 30 69-74 102-74-102 30-69z" /><path
    stroke="#686868"
    stroke-width="1.2"
    d="M128 14v226"
    opacity=".55"
  /><path stroke="#4a4a4a" d="m84 69 17 9 9 50-26 23-30-13" opacity=".8" /><path
    stroke="#272727"
    d="m172 69-17 9-9 50 26 23 30-13"
    opacity=".9"
  /><path stroke="#8a8a8a" d="m101 78 27-24 27 24" opacity=".6" /><path
    stroke="#f33"
    stroke-width="1.4"
    d="m110 128 18-16 18 16"
    opacity=".7"
  /><path stroke="#b00013" stroke-width="1.3" d="m84 151 44 9 44-9" opacity=".8" /><path
    stroke="#ff1515"
    d="m105 177 23 44 23-44"
    opacity=".55"
  /><path fill="#e00017" d="m76 112 16 30-8 9Zm104 0-16 30 8 9Z" opacity=".45" /><path
    fill="#c00013"
    d="m102 194 26 38-14-48Z"
    opacity=".45"
  /><path fill="#c00013" d="m154 194-26 38 14-48Z" opacity=".33" /><path
    stroke="#d8d8d8"
    stroke-width="1.2"
    d="M128 18v34"
    opacity=".65"
  /><path stroke="#fff" d="m134 70 8 55" opacity=".65" /><path
    stroke="#c9c9c9"
    stroke-width="2"
    d="m75 165 20-9m86 9-20-9"
    opacity=".55"
  /></svg>
