<svg
  xmlns="http://www.w3.org/2000/svg"
  width="256"
  height="256"
  aria-label="Sci-fi rewards badge icon"
  viewBox="0 0 256 256"
><defs><linearGradient id="b" x1="0" x2="1" y1="0" y2="1"><stop offset="0" stop-color="#7b070b" /><stop
        offset=".52"
        stop-color="#c01822"
      /><stop offset="1" stop-color="#3d0205" /></linearGradient><linearGradient
      id="c"
      x1="0"
      x2="1"
      y1="0"
      y2="1"
    ><stop offset="0" stop-color="#2a2d2e" /><stop offset="1" stop-color="#020303" /></linearGradient><filter
      id="a"
      width="130%"
      height="130%"
      x="-15%"
      y="-15%"
    ><feDropShadow dx="0" dy="3" flood-color="#000" flood-opacity=".65" stdDeviation="2" /></filter></defs><g
    filter="url(#a)"
  ><path fill="#050607" d="m128 5 17 34-17 16-17-16z" /><path fill="url(#b)" d="m128 13 11 25-11 12-11-12z" /><path
      fill="#050607"
      d="m128 251-17-34 17-16 17 16z"
    /><path fill="url(#b)" d="m128 243-11-25 11-12 11 12z" /><path fill="#050607" d="m5 128 34-17 16 17-16 17z" /><path
      fill="url(#b)"
      d="m13 128 25-11 12 11-12 11z"
    /><path fill="#050607" d="m251 128-34 17-16-17 16-17z" /><path
      fill="url(#b)"
      d="m243 128-25 11-12-11 12-11z"
    /><path fill="#050607" d="M79 22h98l57 57v98l-57 57H79l-57-57V79z" /><path
      fill="url(#b)"
      d="M83 30h90l53 53v90l-53 53H83l-53-53V83z"
    /><path fill="#050607" d="M88 42h80l46 46v80l-46 46H88l-46-46V88z" /><path
      fill="url(#c)"
      d="M83 42h32l-14 17-39 39-17-8z"
    /><path fill="url(#c)" d="M141 42h32l38 48-17 8-39-39z" /><path
      fill="#181b1c"
      d="M214 88v32l-17-12-40-40 10-18zm0 48v32l-47 38-10-18 40-40z"
    /><path fill="url(#c)" d="M173 214h-32l14-17 39-39 17 8z" /><path
      fill="url(#c)"
      d="M115 214H83l-38-48 17-8 39 39z"
    /><path fill="#181b1c" d="M42 168v-32l17 12 40 40-10 18zm0-48V88l47-38 10 18-40 40z" /><circle
      cx="128"
      cy="128"
      r="78"
      fill="#040505"
    /><path fill="url(#b)" d="M82 82a65 65 0 0 1 34-17l-5 22a43 43 0 0 0-24 24Z" /><path
      fill="url(#b)"
      d="M140 65a65 65 0 0 1 34 17l-5 29a43 43 0 0 0-24-24Z"
    /><path fill="url(#b)" d="M174 174a65 65 0 0 1-34 17l5-22a43 43 0 0 0 24-24Z" /><path
      fill="url(#b)"
      d="M116 191a65 65 0 0 1-34-17l5-29a43 43 0 0 0 24 24Z"
    /><path fill="none" stroke="#111314" stroke-width="8" d="m128 51 55 22 22 55-22 55-55 22-55-22-22-55 22-55z" /><path
      fill="none"
      stroke="#000"
      stroke-width="4"
      d="m128 58 49 21 21 49-21 49-49 21-49-21-21-49 21-49z"
    /><path fill="url(#b)" d="m128 43 11 69-11 16-11-16z" /><path fill="url(#b)" d="m213 128-69 11-16-11 16-11z" /><path
      fill="url(#b)"
      d="m128 213-11-69 11-16 11 16z"
    /><path fill="url(#b)" d="m43 128 69-11 16 11-16 11z" /><path
      fill="#181b1c"
      d="m188 68-43 49-17 11 11-26zm0 120-49-43-11-17 26 11zm-120 0 49-49 11-11-26 26zm0-120 49 49 11 11-26 11z"
    /><path fill="#c01822" d="m188 68-34 49-26 11 17-11z" opacity=".92" /><path
      fill="#a20d15"
      d="m188 188-43-34-17-26 11 17z"
      opacity=".92"
    /><path fill="#b8141c" d="m68 188 34-49 26-11-11 11z" opacity=".92" /><path
      fill="#8b0a10"
      d="m68 68 71 34-11 26-11-11z"
      opacity=".92"
    /><path
      fill="#050607"
      d="M128 43v85l11-16zm85 85h-85l16 11zm-85 85v-85l-11 16zm-85-85h85l-16-11z"
      opacity=".34"
    /><circle cx="128" cy="128" r="3.2" fill="#050607" /><path
      fill="none"
      stroke="#000"
      stroke-width="4"
      d="M79 22h98l57 57v98l-57 57H79l-57-57V79z"
    /></g></svg>
