<svg
  xmlns="http://www.w3.org/2000/svg"
  width="256"
  height="256"
  aria-label="Sci-fi faction rewards crest icon"
  viewBox="0 0 256 256"
><defs><linearGradient id="b" x1="64" x2="192" y1="24" y2="232" gradientUnits="userSpaceOnUse"><stop
        offset="0"
        stop-color="#2a2a2a"
      /><stop offset=".38" stop-color="#070707" /><stop offset=".72" stop-color="#151515" /><stop
        offset="1"
      /></linearGradient><linearGradient id="c" x1="128" x2="128" y1="28" y2="226" gradientUnits="userSpaceOnUse"><stop
        offset="0"
        stop-color="#ff1838"
      /><stop offset=".42" stop-color="#8f0014" /><stop offset="1" stop-color="#2b0008" /></linearGradient><filter
      id="a"
      width="140%"
      height="140%"
      x="-20%"
      y="-20%"
    ><feDropShadow dx="0" dy="3" flood-color="#000" flood-opacity=".65" stdDeviation="2" /></filter></defs><g
    stroke-linecap="square"
    filter="url(#a)"
  ><path fill="url(#b)" stroke="#4a000b" stroke-width="6" d="m128 12 85 35 19 58-30 98-74 36-74-36-30-98 19-58Z" /><path
      fill="none"
      stroke="#b0001b"
      stroke-width="4"
      d="m128 28 69 30 16 48-25 84-60 30-60-30-25-84 16-48Z"
    /><path
      fill="#0b0b0c"
      stroke="#65000f"
      stroke-width="4"
      d="m57 87 34-20 16 24-30 17 23 15-30 31-33-42Zm142 0-34-20-16 24 30 17-23 15 30 31 33-42Z"
    /><path
      fill="#141416"
      stroke="#3a0009"
      stroke-width="4"
      d="m75 158 28-22 16 23-27 33Zm106 0-28-22-16 23 27 33Z"
    /><path fill="url(#c)" stroke="#1a0005" stroke-width="5" d="m128 38 36 37-13 109-23 31-23-31L92 75Z" /><path
      fill="#050505"
      stroke="#e00024"
      stroke-width="4"
      d="m128 24 18 67h-9v83l-9 36-9-36V91h-9Z"
    /><path fill="#ff1b3d" d="m128 50 9 41h-18Z" opacity=".9" /><path
      fill="#1a0006"
      d="m128 89 7 81-7 26-7-26Z"
      opacity=".95"
    /><path fill="#b0001b" d="m90 118 26 14-6 12-30-16Zm76 0-26 14 6 12 30-16Z" /><path
      fill="#65000f"
      d="m82 142 30 16-7 13-33-18Zm92 0-30 16 7 13 33-18Z"
    /><path
      fill="none"
      stroke="#000"
      stroke-width="5"
      d="m61 62 34 20m100-20-34 20M49 107h34m124 0h-34m-97 84 30-10m74 10-30-10"
      opacity=".85"
    /><path fill="#070707" stroke="#790012" stroke-width="3" d="m110 191 18 35 18-35-18 14Z" /></g></svg>
