<svg
  xmlns="http://www.w3.org/2000/svg"
  width="256"
  height="256"
  aria-label="Sci-fi reward loot crate icon"
  viewBox="0 0 256 256"
><defs><linearGradient id="metal" x1="0" x2="0" y1="0" y2="1"><stop offset="0" stop-color="#303234" /><stop
        offset=".52"
        stop-color="#151719"
      /><stop offset="1" stop-color="#050607" /></linearGradient><linearGradient
      id="darkMetal"
      x1="0"
      x2="1"
      y1="0"
      y2="1"
    ><stop offset="0" stop-color="#24272a" /><stop offset=".55" stop-color="#0c0e10" /><stop
        offset="1"
        stop-color="#010203"
      /></linearGradient><linearGradient id="redGlow" x1="0" x2="1" y1="0" y2="0"><stop
        offset="0"
        stop-color="#620006"
      /><stop offset=".5" stop-color="#ff171f" /><stop offset="1" stop-color="#7a0008" /></linearGradient><filter
      id="glow"
      width="220%"
      height="220%"
      x="-60%"
      y="-60%"
    ><feGaussianBlur result="blur" stdDeviation="2.2" /><feMerge><feMergeNode in="blur" /><feMergeNode
          in="SourceGraphic"
        /></feMerge></filter><style
    >.outline{stroke:#020303;stroke-width:4}.edge,.outline,.seam{stroke-linejoin:round;stroke-linecap:round}.edge{stroke:#55595b;stroke-width:2;opacity:.75}.seam{stroke:#0a0c0e;stroke-width:3}.red,.redStroke{filter:url(#glow)}.red{fill:url(#redGlow)}.redStroke{stroke:#ef1119;stroke-width:3;stroke-linejoin:round;stroke-linecap:round}</style></defs><path
    fill="url(#darkMetal)"
    d="m25 79 23-36h38l15 17h54l15-17h38l23 36 7 118-19 23H37l-19-23Z"
    class="outline"
  /><path fill="url(#metal)" d="m28 82 23-33h31l13 19-10 40H36Z" class="outline" /><path
    fill="none"
    d="m51 49 16 32-31 27m46-59 13 19"
    class="edge"
  /><path fill="#0b0d0f" d="m93 66 19-5-8 48-18-1Z" class="seam" /><path
    fill="url(#metal)"
    d="m228 82-23-33h-31l-13 19 10 40h49Z"
    class="outline"
  /><path fill="none" d="m205 49-16 32 31 27m-46-59-13 19" class="edge" /><path
    fill="#0b0d0f"
    d="m163 66-19-5 8 48 18-1Z"
    class="seam"
  /><path fill="#111416" d="m83 64 28-7-6 59-41 1-9-18Zm90 0-28-7 6 59 41 1 9-18Z" class="outline" /><path
    fill="none"
    d="m65 116 19-24 21 24m86 0-19-24-21 24"
    class="edge"
  /><path d="m79 78 33-4-2 7-28 4Z" class="red" /><path d="m177 78-33-4 2 7 28 4Z" class="red" /><path
    fill="#050607"
    d="m80 91 23 7-4 8-23-7Zm96 0-23 7 4 8 23-7Z"
    class="outline"
  /><path d="m84 93 7 2-3 8-7-2Zm11 4 7 2-3 8-7-2Z" class="red" /><path
    d="m172 93-7 2 3 8 7-2Zm-11 4-7 2 3 8 7-2Z"
    class="red"
  /><path fill="url(#darkMetal)" d="M26 110h56l17 21-4 82H38l-15-19Z" class="outline" /><path
    fill="url(#darkMetal)"
    d="M230 110h-56l-17 21 4 82h57l15-19Z"
    class="outline"
  /><path fill="none" d="M36 129h40l16 18m128-18h-40l-16 18" class="edge" /><path
    fill="none"
    d="M25 123h54l20 16h13"
    class="redStroke"
  /><path fill="none" d="M231 123h-54l-20 16h-13" class="redStroke" /><path
    fill="none"
    stroke="#4b0005"
    stroke-width="9"
    d="M25 132h50l21 16h16m119-16h-50l-21 16h-16"
    opacity=".8"
  /><path fill="none" d="M25 132h50l21 16h16" class="redStroke" /><path
    fill="none"
    d="M231 132h-50l-21 16h-16"
    class="redStroke"
  /><path fill="#080a0c" d="m45 158 37-10 11 24-11 32H49l-11-18Zm166 0-37-10-11 24 11 32h33l11-18Z" class="outline" /><g
    filter="url(#glow)"
  ><path
      fill="#ec1018"
      d="M53 168h7v28h-7Zm13-5h7v33h-7Zm13 6h7v27h-7Zm124-1h-7v28h7Zm-13-5h-7v33h7Zm-13 6h-7v27h7Z"
    /></g><path
    stroke="#2b0003"
    stroke-width="3"
    d="m54 191 8-21m5 21 8-26m5 26 8-21m114 21-8-21m-5 21-8-26m-5 26-8-21"
    opacity=".45"
  /><path fill="url(#metal)" d="M111 45h34l8 39-4 129-14 16h-14l-14-16-4-129Z" class="outline" /><path
    fill="none"
    d="m111 45 9 37h16l9-37m-38 168 15-15h12l15 15"
    class="edge"
  /><path fill="#0b0d0f" d="M120 58h16l4 25-7 11h-10l-7-11Z" class="outline" /><path
    d="M124 62h8l2 20-5 7h-2l-5-7Z"
    class="red"
  /><path fill="#090b0d" d="m128 102 25 24-10 70-15 16-15-16-10-70Z" class="outline" /><path
    fill="none"
    d="M128 102v110m-23-85h46"
    class="edge"
    opacity=".35"
  /><path d="m128 112 8 42h11l-13 11-6 28-6-28-13-11h11Z" class="red" /><path
    fill="none"
    stroke="#e50912"
    stroke-width="5"
    d="M108 161c1-17 8-27 20-33 12 6 19 16 20 33"
    class="red"
    filter="url(#glow)"
  /><path fill="#050607" d="m116 193 12-12 12 12-5 26h-14Z" class="outline" /><path
    d="m121 193 6-7v29h-6Zm14 0-6-7v29h6Z"
    class="red"
  /><path fill="url(#metal)" d="m26 198 13 20h56l12-7h42l12 7h56l13-20-10 30H36Z" class="outline" /><path
    fill="#090b0d"
    d="M96 216h64l-10 19h-44Z"
    class="outline"
  /><path d="M117 224h22l4 6h-30Z" class="red" /><path
    fill="none"
    d="m42 85 15-23h22m119 0h16l15 23M39 207h36m106 0h36"
    class="edge"
  /><path fill="#020303" d="m35 188 11 6-7 7Zm186 0-11 6 7 7ZM51 213h10l-6 8Zm154 0h-10l6 8Z" /><path
    fill="none"
    stroke="#1d2022"
    stroke-width="2"
    d="m70 136 20 17-3 34m99-51-20 17 3 34"
  /></svg>
