<svg
  xmlns="http://www.w3.org/2000/svg"
  width="256"
  height="256"
  aria-label="Sci-fi side quest map pin icon"
  viewBox="0 0 256 256"
><defs><linearGradient id="b" x1="42" x2="206" y1="18" y2="238" gradientUnits="userSpaceOnUse"><stop
        offset="0"
        stop-color="#202020"
      /><stop offset=".45" stop-color="#070707" /><stop
        offset="1"
        stop-color="#151515"
      /></linearGradient><linearGradient id="c" x1="65" x2="185" y1="34" y2="216" gradientUnits="userSpaceOnUse"><stop
        offset="0"
        stop-color="#5b0004"
      /><stop offset=".45" stop-color="#b0000c" /><stop offset="1" stop-color="#610006" /></linearGradient><filter
      id="a"
      width="120%"
      height="120%"
      x="-10%"
      y="-10%"
    ><feDropShadow dx="0" dy="2" flood-color="#000" flood-opacity=".45" stdDeviation="1.6" /></filter></defs><g
    filter="url(#a)"
  ><path
      fill="url(#b)"
      d="M122 7c-40 22-75 53-87 95-11 38 10 75 37 105l56 42 56-42c27-30 48-67 37-105-12-42-47-73-87-95v31c33 18 59 45 68 75s-8 61-30 86l-44 33-44-33c-22-25-39-56-30-86s35-57 68-75Z"
    /><path fill="#111" d="M122 7v31l-16 12-6-19Zm12 0 22 24-6 19-16-12Z" opacity=".96" /><path
      fill="url(#c)"
      d="M111 49c-26 17-45 41-51 67-7 31 9 62 31 86l15 11-7-19c-19-22-30-49-24-74 6-22 21-40 41-53Z"
    /><path
      fill="url(#c)"
      d="M145 49c26 17 45 41 51 67 7 31-9 62-31 86l-15 11 7-19c19-22 30-49 24-74-6-22-21-40-41-53Z"
    /><path
      fill="#0a0a0a"
      stroke="#d8d8d8"
      stroke-width="1.4"
      d="m34 113 19 23-5 10-18-17Zm188 0-19 23 5 10 18-17Z"
      opacity=".95"
    /><path fill="url(#b)" stroke="#e0e0e0" stroke-width="1.4" d="m128 47 15 69-15 18-15-18Z" /><path
      fill="url(#b)"
      stroke="#e0e0e0"
      stroke-width="1.4"
      d="m83 110 28-28-13 50 30 64-21-42Z"
    /><path fill="url(#b)" stroke="#e0e0e0" stroke-width="1.4" d="m173 110-28-28 13 50-30 64 21-42Z" /><path
      fill="url(#c)"
      stroke="#f2f2f2"
      stroke-width="1.2"
      d="m107 123 21 12v44l-15-30Z"
    /><path fill="url(#c)" stroke="#f2f2f2" stroke-width="1.2" d="m149 123-21 12v44l15-30Z" /><path
      fill="#0a0a0a"
      stroke="#e0e0e0"
      stroke-width="1.2"
      d="m96 137 32 61 32-61-32 88Z"
      opacity=".98"
    /><path stroke="#fff" stroke-width="1.1" d="M128 48v177" opacity=".85" /><path
      stroke="#fff"
      d="M122 7v31m12-31v31"
      opacity=".45"
    /><path
      fill="none"
      stroke="#fff"
      stroke-width="1.2"
      d="M54 113c9-30 35-57 68-75m80 75c-9-30-35-57-68-75"
      opacity=".65"
    /><path fill="none" stroke="#fff" stroke-width="1.1" d="m84 199 44 33 44-33" opacity=".5" /></g></svg>
