<svg
  xmlns="http://www.w3.org/2000/svg"
  width="256"
  height="256"
  aria-label="Harko sci-fi rewards citadel icon"
  viewBox="0 0 256 256"
><defs><linearGradient id="b" x1="67" x2="185" y1="22" y2="237" gradientUnits="userSpaceOnUse"><stop
        offset="0"
        stop-color="#28292c"
      /><stop offset=".42" stop-color="#09090b" /><stop
        offset="1"
        stop-color="#17181b"
      /></linearGradient><linearGradient id="a" x1="120" x2="154" y1="28" y2="235" gradientUnits="userSpaceOnUse"><stop
        offset="0"
        stop-color="#191a1d"
      /><stop offset=".45" stop-color="#050506" /><stop
        offset="1"
        stop-color="#101114"
      /></linearGradient><linearGradient id="e" x1="72" x2="174" y1="138" y2="232" gradientUnits="userSpaceOnUse"><stop
        offset="0"
        stop-color="#414247"
      /><stop offset=".45" stop-color="#202125" /><stop
        offset="1"
        stop-color="#09090a"
      /></linearGradient><linearGradient id="c" x1="128" x2="128" y1="54" y2="227" gradientUnits="userSpaceOnUse"><stop
        offset="0"
        stop-color="#ff1d26"
      /><stop offset=".52" stop-color="#b80011" /><stop offset="1" stop-color="#550006" /></linearGradient><filter
      id="d"
      width="160%"
      height="160%"
      x="-30%"
      y="-30%"
    ><feGaussianBlur result="blur" stdDeviation="1.15" /><feMerge><feMergeNode in="blur" /><feMergeNode
          in="SourceGraphic"
        /></feMerge></filter></defs><path
    fill="#030304"
    d="m128 9 17 26 6 37 20 30 17 55 37 80H31l37-80 17-55 20-30 6-37z"
  /><path fill="#090a0c" d="M86 205 96 76l16-41 7 188H88Zm84 0L160 76l-16-41-7 188h31Z" /><path
    fill="#242529"
    d="m94 78 17-43 3 62-18 20Zm68 0-17-43-3 62 18 20Z"
  /><path fill="url(#a)" d="m111 224 6-179 11-28 11 28 6 179Z" /><path fill="#111215" d="m118 45 10-28v207h-17Z" /><path
    fill="#050506"
    d="m128 17 10 28 7 179h-17Z"
  /><path fill="#0a0a0c" d="m119 76 4-33 5-13 5 13 4 33Z" /><path fill="#111215" d="M122 76h12l-2 42h-8Z" /><path
    fill="url(#b)"
    d="m93 229 8-126 15-31h24l15 31 8 126Z"
  /><path fill="#070708" d="m105 229 8-123 10-26h10l10 26 8 123Z" /><path
    fill="#191a1d"
    d="m94 229 7-125 15-32-3 157Z"
  /><path fill="#050506" d="m162 229-7-125-15-32 3 157Z" /><circle cx="128" cy="88" r="36" fill="#050506" /><circle
    cx="128"
    cy="88"
    r="32"
    fill="#15161a"
    stroke="#292a2e"
    stroke-width="3"
  /><circle cx="128" cy="88" r="25" fill="url(#c)" filter="url(#d)" /><path
    fill="#080809"
    stroke="#e31220"
    stroke-width="2"
    d="m128 60 27 28-27 28-27-28Z"
  /><path fill="#ff1b26" d="m128 55 4 33-4 35-4-35Z" /><path stroke="#bf0713" stroke-width="2" d="M96 88h64" /><path
    stroke="#ff2833"
    stroke-width="1.5"
    d="M117 88h22m-11-11v22"
  /><path fill="#070708" d="M124 44h8v28h-8z" /><path fill="url(#c)" d="M126 48h4v22h-4z" filter="url(#d)" /><g
    fill="#ec1420"
    filter="url(#d)"
  ><path d="M118 119h4v17h-4zm8 0h4v17h-4zm8 0h4v17h-4z" /></g><path
    fill="#202126"
    stroke="#37383d"
    stroke-width="1.5"
    d="m105 226 3-90 11-15 5 105Zm46 0-3-90-11-15-5 105Z"
  /><path fill="#34353a" d="m110 136 9-15 2 105h-10Z" opacity=".85" /><path
    fill="#34353a"
    d="m146 136-9-15-2 105h10Z"
    opacity=".55"
  /><path fill="url(#c)" d="M118 138h20v49l-10-13-10 13Z" filter="url(#d)" /><path
    fill="#ff202b"
    d="M121 137h14v8h-14Z"
  /><path fill="#070708" d="m29 237 33-77 27-32 15 103Zm198 0-33-77-27-32-15 103Z" /><path
    fill="#151619"
    d="m54 232 24-54 29-25-15 84Zm148 0-24-54-29-25 15 84Z"
  /><path fill="#2a2b30" d="m79 177 28-24-6 33-13 26Zm98 0-28-24 6 33 13 26Z" /><path
    fill="url(#e)"
    stroke="#44454a"
    stroke-width="1.5"
    d="m71 240 36-71h16l-29 71Z"
  /><path fill="url(#e)" stroke="#44454a" stroke-width="1.5" d="m185 240-36-71h-16l29 71Z" /><path
    fill="#101114"
    stroke="#34353a"
    stroke-width="1.5"
    d="m94 240 25-43h18l25 43Z"
  /><path fill="#060607" d="m103 240 18-35h14l18 35Z" /><path fill="#070708" d="M120 205h16v24h-16Z" /><path
    fill="url(#c)"
    d="M123 210h10v25h-10z"
    filter="url(#d)"
  /><path fill="#030304" d="M112 238h32l-8-9h-16Z" /><path
    stroke="#28292e"
    stroke-width="2"
    d="M111 234h34m-31-5h28m-25-5h22"
  /><path fill="#060607" d="m58 219 6-94 6 94Zm140 0-6-94-6 94Z" /><path
    fill="#121316"
    d="m53 219 9-77h13l7 88H52Zm150 0-9-77h-13l-7 88h30Z"
  /><path fill="#070708" d="m39 229 6-63 6 63Zm178 0-6-63-6 63Z" /><g fill="#e51220" filter="url(#d)"><path
      d="M61 158h10v32l-5-9-5 9Zm134 0h-10v32l5-9 5 9Zm-116-5h5v6h-5zm10 0h5v6h-5zm10 0h5v6h-5zm53 0h5v6h-5zm10 0h5v6h-5zm10 0h5v6h-5zM59 207h5v8h-5zm6 0h5v8h-5zm127 0h5v8h-5zm-6 0h5v8h-5z"
    /><path
      d="m63 226 17-36h4l-17 36Zm130 0-17-36h-4l17 36Zm-110-1 20-15 3 4-15 11Zm90 0-20-15-3 4 15 11ZM44 183h3v14h-3zm165 0h3v14h-3z"
    /></g><path fill="#050506" d="M71 144h36l-4 9H75Zm114 0h-36l4 9h28Z" /><path
    fill="#151619"
    d="M66 161h43l-3 6H69Zm124 0h-43l3 6h37Z"
  /><path stroke="#050506" stroke-width="4" d="M31 237h194" /></svg>
