<svg xmlns="http://www.w3.org/2000/svg" width="256" height="256" fill="none" viewBox="0 0 256 256"><title
  >Sci-fi brutalist four-point rewards star icon</title><defs><linearGradient
      id="b"
      x1="48"
      x2="208"
      y1="28"
      y2="228"
      gradientUnits="userSpaceOnUse"
    ><stop offset="0" stop-color="#313033" /><stop offset=".42" stop-color="#070708" /><stop
        offset="1"
        stop-color="#171518"
      /></linearGradient><linearGradient id="c" x1="128" x2="128" y1="46" y2="210" gradientUnits="userSpaceOnUse"><stop
        offset="0"
        stop-color="#b41122"
      /><stop offset=".48" stop-color="#5f0710" /><stop offset="1" stop-color="#d0162a" /></linearGradient><filter
      id="a"
      width="196"
      height="212"
      x="30"
      y="22"
      color-interpolation-filters="sRGB"
      filterUnits="userSpaceOnUse"
    ><feDropShadow dx="0" dy="5" flood-color="#000" flood-opacity=".55" stdDeviation="3" /></filter></defs><g
    filter="url(#a)"
  ><path fill="url(#b)" d="m128 12 25.5 83.5L244 128l-90.5 32.5L128 244l-25.5-83.5L12 128l90.5-32.5z" /><path
      fill="#262428"
      d="m128 12 25.5 83.5L128 78l-25.5 17.5z"
    /><path fill="#0a090b" d="m244 128-90.5 32.5L174 128l-20.5-32.5z" /><path
      fill="#151317"
      d="m128 244-25.5-83.5L128 178l25.5-17.5z"
    /><path fill="#201e22" d="m12 128 90.5-32.5L82 128l20.5 32.5z" /><path
      fill="url(#c)"
      d="m128 45 17.5 60.5L210 128l-64.5 22.5L128 211l-17.5-60.5L46 128l64.5-22.5z"
    /><path
      fill="#080708"
      d="m128 45 11 66-11-10-11 10zm82 83-65 11 10-11-10-11zm-82 83-11-66 11 10 11-10zm-82-83 65-11-10 11 10 11z"
    /><path fill="#0d0b0d" d="m128 82 40 46-40 46-40-46z" /><path fill="#8b0b17" d="m128 96 26 32-26 32-26-32z" /><path
      fill="#170306"
      d="m128 107 15 21-15 21-15-21z"
    /><path fill="#4a464c" d="m128 20 7 62-7-12-7 12z" opacity=".72" /><path
      fill="#2a252b"
      d="m236 128-62 7 12-7-12-7z"
      opacity=".72"
    /><path fill="#312c32" d="m128 236-7-62 7 12 7-12z" opacity=".72" /><path
      fill="#3b363c"
      d="m20 128 62-7-12 7 12 7z"
      opacity=".72"
    /><path
      fill="#c31327"
      d="m128 28 4 58-4-10-4 10zm100 100-58 4 10-4-10-4zM128 228l-4-58 4 10 4-10zM28 128l58-4-10 4 10 4z"
    /></g></svg>
