<svg
  xmlns="http://www.w3.org/2000/svg"
  width="256"
  height="256"
  aria-label="Three stacked sci-fi level chevrons"
  viewBox="0 0 256 256"
><defs><linearGradient id="b" x1="0" x2="0" y1="0" y2="1"><stop offset="0" stop-color="#d01018" /><stop
        offset=".48"
        stop-color="#8f050a"
      /><stop offset="1" stop-color="#4f0205" /></linearGradient><linearGradient
      id="c"
      x1="0"
      x2="1"
      y1="0"
      y2="1"
    ><stop offset="0" stop-color="#ff1b24" /><stop offset="1" stop-color="#5b0206" /></linearGradient><filter
      id="a"
      width="120%"
      height="120%"
      x="-10%"
      y="-10%"
    ><feDropShadow dx="0" dy="3" flood-color="#000" flood-opacity=".55" stdDeviation="1.2" /></filter></defs><g
    filter="url(#a)"
  ><path fill="#090909" d="m128 20 97 92-22 9-75-66-75 66-22-9Z" /><path
      fill="url(#b)"
      stroke="url(#c)"
      stroke-width="2"
      d="m128 14 104 96-25 12-79-72-79 72-25-12Z"
    /><path stroke="#090909" stroke-width="5" d="M128 29v44" /><path
      fill="#080808"
      d="m119 68-35 35 27-12 17-15Zm18 0 35 35-27-12-17-15Z"
    /><path fill="#070707" d="m71 103 24-33-8 25Zm114 0-24-33 8 25Z" /><path
      fill="#090909"
      d="m128 86 104 98-25 12-79-72-79 72-25-12Z"
    /><path fill="url(#b)" stroke="url(#c)" stroke-width="2" d="m128 80 111 103-28 14-83-78-83 78-28-14Z" /><path
      stroke="#090909"
      stroke-width="5"
      d="M128 96v44"
    /><path fill="#080808" d="m119 135-35 34 27-11 17-15Zm18 0 35 34-27-11-17-15Z" /><path
      fill="#070707"
      d="m67 170 29-38-8 29Zm122 0-29-38 8 29Z"
    /><path fill="#090909" d="m128 150 112 80-28 12-84-61-84 61-28-12Z" /><path
      fill="url(#b)"
      stroke="url(#c)"
      stroke-width="2"
      d="m128 143 119 85-31 16-88-67-88 67-31-16Z"
    /><path stroke="#090909" stroke-width="5" d="M128 158v45" /><path
      fill="#080808"
      d="m119 198-35 26 27-10 17-8Zm18 0 35 26-27-10-17-8Z"
    /><path fill="#070707" d="m64 225 32-29-8 21Zm128 0-32-29 8 21Z" /></g></svg>
