<svg
  xmlns="http://www.w3.org/2000/svg"
  width="256"
  height="256"
  aria-label="Sci-fi mission contract scroll icon"
  viewBox="0 0 256 256"
><defs><linearGradient id="c" x1="0" x2="0" y1="32" y2="224" gradientUnits="userSpaceOnUse"><stop
        offset="0"
        stop-color="#9f1016"
      /><stop offset=".52" stop-color="#6f080d" /><stop
        offset="1"
        stop-color="#b0171d"
      /></linearGradient><linearGradient id="b" x1="0" x2="1" y1="0" y2="1"><stop
        offset="0"
        stop-color="#191919"
      /><stop offset=".55" stop-color="#050505" /><stop
        offset="1"
        stop-color="#2a2a2a"
      /></linearGradient><linearGradient id="d" x1="45" x2="219" y1="193" y2="222" gradientUnits="userSpaceOnUse"><stop
        offset="0"
        stop-color="#d51e26"
      /><stop offset=".48" stop-color="#7b090f" /><stop offset="1" stop-color="#240204" /></linearGradient><filter
      id="a"
      width="140%"
      height="140%"
      x="-20%"
      y="-20%"
    ><feDropShadow dx="0" dy="4" flood-color="#000" flood-opacity=".55" stdDeviation="2" /></filter></defs><g
    filter="url(#a)"
  ><path
      fill="url(#b)"
      stroke="#000"
      stroke-width="4"
      d="M61 39h25l8 13h68l8-13h25l23 32-14 18v85l18 17-16 28h-55l-23 24-23-24H50l-16-28 18-17V89L38 71Z"
    /><path
      fill="#070707"
      stroke="#282828"
      stroke-width="2"
      d="m47 72 21-21 15 7-5 148-15 7-19-23 11-16V90Zm162 0-21-21-15 7 5 148 15 7 19-23-11-16V90Z"
    /><path fill="#9b1117" d="m60 75 6-6-1 101-6 11Z" /><path fill="#c01820" d="m74 65 5 3-2 50-6-8Z" /><path
      fill="#9b1117"
      d="m196 75-6-6 1 101 6 11Z"
    /><path fill="#c01820" d="m182 65-5 3 2 50 6-8Z" /><path
      fill="url(#c)"
      stroke="#050505"
      stroke-width="5"
      d="M79 63h98l13 13v108l-14 13H80l-14-13V76Z"
    /><path fill="none" stroke="#160102" stroke-width="3" d="m76 78 8-8h88l8 8v96l-10 13H86l-10-13Z" /><path
      fill="#d21b22"
      d="M83 72h17l-7 6H83Zm90 0h-17l7 6h10ZM82 186h19l-7 7h-8Zm92 0h-19l7 7h8Z"
    /><path fill="url(#b)" stroke="#000" stroke-width="4" d="m128 12 17 37 19 13-14 17-22 11-22-11-14-17 19-13Z" /><path
      fill="#c51a22"
      d="m128 24 9 30-9 24-9-24Z"
    /><path fill="#77090d" d="M128 24v54l-9-24Z" /><path
      fill="#232323"
      d="m128 12 17 37-17-25-17 25Z"
      opacity=".85"
    /><path
      fill="#101010"
      stroke="#2c2c2c"
      stroke-width="2"
      d="M81 43h29l13 12-12 15-27-2-14-13Zm94 0h-29l-13 12 12 15 27-2 14-13Z"
    /><path fill="#c0171e" d="M93 51h20l6 6-17 1-4-3H88Zm70 0h-20l-6 6 17 1 4-3h10Z" /><path
      fill="url(#d)"
      stroke="#050505"
      stroke-width="5"
      d="M61 187h117q17 0 26 12l-8 18H59q-12 0-16-11 1-13 18-19Z"
    /><path fill="#111" d="M43 206q2-14 16-18h2q-9 11-9 29h-2q-7-4-7-11" opacity=".55" /><path
      fill="#050505"
      stroke="#000"
      stroke-width="4"
      d="M178 187q28-2 38 18-5 18-29 16 15-6 15-16-1-10-24-18Z"
    /><path fill="#a71117" stroke="#070707" stroke-width="3" d="M190 196q17 0 19 10-2 10-19 10 9-5 9-10t-9-10Z" /><path
      fill="#050505"
      d="M198 201q8 2 6 9-2 5-10 4 5-4 5-8Z"
    /><path fill="url(#b)" stroke="#000" stroke-width="4" d="m128 184 18 37-18 23-18-23Z" /><path
      fill="#c51a22"
      d="m128 198 9 23-9 15-9-15Z"
    /><path fill="#72070b" d="M128 198v38l-9-15Z" /><g fill="#050505"><path
        d="M88 97h58l12 12h16v5h-19l-13-12H88Zm-4 22h40l8 7h31v6H80l8-8h36l-6-2H84Zm5 24h54l10 7h21l-4 6H83Zm-6 26h47l12-9h27v5h-24l-12 9H83Z"
      /><path d="M99 83h40l8 6h25l-3 5H98Zm1 98h39l-5 5h-34Z" opacity=".85" /><path
        d="M153 132h28l-9 7h-26Zm0 45h28l-8 7h-25Z"
      /></g><path
      fill="none"
      stroke="#250204"
      stroke-width="2"
      d="m170 84-6 12 8 8m-86 47 11-4-6 11m83-4-12 12-5 12M101 67l10 14-4 10"
      opacity=".8"
    /><path
      fill="none"
      stroke="#333"
      stroke-width="2"
      d="m50 72 19-19m137 19-19-19M69 211l-17-22m135 22 17-22M117 50l11-29 11 29"
      opacity=".75"
    /><path fill="#b3171d" d="M82 221h22l-5 5H85Zm92 0h-22l5 5h14Z" /></g></svg>
