<svg xmlns="http://www.w3.org/2000/svg" width="256" height="256" fill="none" viewBox="0 0 256 256"><title
  >Sci-fi brutalist open book story progression icon</title><desc
  >Transparent SVG icon: sharp angular black-metal open book with deep crimson militaristic accents.</desc><defs
  ><linearGradient id="b" x1="54" x2="202" y1="52" y2="202" gradientUnits="userSpaceOnUse"><stop
        offset="0"
        stop-color="#242126"
      /><stop offset=".45" stop-color="#070608" /><stop
        offset="1"
        stop-color="#161218"
      /></linearGradient><linearGradient id="c" x1="60" x2="196" y1="70" y2="190" gradientUnits="userSpaceOnUse"><stop
        offset="0"
        stop-color="#1b171b"
      /><stop offset="1" stop-color="#050405" /></linearGradient><filter
      id="a"
      width="206"
      height="187"
      x="25"
      y="33"
      color-interpolation-filters="sRGB"
      filterUnits="userSpaceOnUse"
    ><feDropShadow dx="0" dy="6" flood-color="#000" flood-opacity=".75" stdDeviation="4" /></filter></defs><g
    filter="url(#a)"
  ><path fill="url(#b)" d="m128 35 85 37-12 106-73 40-73-40L43 72Z" /><path
      stroke="#3b3238"
      stroke-width="5"
      d="m128 35 85 37-12 106-73 40-73-40L43 72Z"
    /><path stroke="#8c0714" stroke-width="4" d="m128 45 72 32-10 94-62 34-62-34-10-94Z" /></g><path
    fill="#0b090b"
    stroke="#4a0a12"
    stroke-width="3"
    d="m74 76 28-15 16 15-27 6Zm108 0-28-15-16 15 27 6Z"
  /><path fill="#930716" d="m128 54 11 20-11 9-11-9Z" /><path
    fill="url(#c)"
    stroke="#b60a1b"
    stroke-width="5"
    d="m48 96 70-23 10 22v88l-18-17-55 17Z"
  /><path fill="#111014" stroke="#31272d" stroke-width="3" d="m60 106 46-15 13 11v55l-16-12-39 11Z" /><path
    fill="url(#c)"
    stroke="#b60a1b"
    stroke-width="5"
    d="m208 96-70-23-10 22v88l18-17 55 17Z"
  /><path fill="#111014" stroke="#31272d" stroke-width="3" d="m196 106-46-15-13 11v55l16-12 39 11Z" /><path
    fill="#060506"
    stroke="#c20a1c"
    stroke-width="4"
    d="m128 91 11 25-4 71-7 12-7-12-4-71Z"
  /><path fill="#7f0612" d="m128 103 4 21-2 52-2 8-2-8-2-52Z" /><path
    fill="#650711"
    d="m72 122 33-10 8 7-35 13Zm3 23 28-8 10 8-34 11Zm109-23-33-10-8 7 35 13Zm-3 23-28-8-10 8 34 11Z"
  /><path fill="#0a080a" stroke="#4a0a12" stroke-width="3" d="m62 185 30-7 20 15-28 6Zm132 0-30-7-20 15 28 6Z" /><path
    fill="#a50818"
    d="m105 199 23 15 23-15-23-7Z"
  /><path fill="#d00b20" d="m73 84 8-4 7 5-7 6Zm110 0-8-4-7 5 7 6Z" /><path
    fill="#8c0714"
    d="m50 116 8-5 8 5-8 6Zm156 0-8-5-8 5 8 6Z"
  /></svg>
