<svg
  xmlns="http://www.w3.org/2000/svg"
  width="256"
  height="256"
  aria-label="Hexagonal sci-fi intel token icon"
  viewBox="0 0 256 256"
><defs><radialGradient id="c" cx="50%" cy="48%" r="56%"><stop offset="0" stop-color="#54fff0" /><stop
        offset=".55"
        stop-color="#22bdba"
      /><stop offset="1" stop-color="#087e80" /></radialGradient><linearGradient
      id="b"
      x1="64"
      x2="194"
      y1="34"
      y2="224"
      gradientUnits="userSpaceOnUse"
    ><stop offset="0" stop-color="#ffe08a" /><stop offset=".35" stop-color="#d88a19" /><stop
        offset=".7"
        stop-color="#8c4b10"
      /><stop offset="1" stop-color="#f6c65b" /></linearGradient><filter
      id="a"
      width="140%"
      height="140%"
      x="-20%"
      y="-20%"
    ><feDropShadow dx="0" dy="4" flood-color="#2a1305" flood-opacity=".35" stdDeviation="3" /></filter></defs><g
    stroke-linecap="round"
    stroke-linejoin="round"
    filter="url(#a)"
  ><path fill="url(#b)" stroke="#5b2b08" stroke-width="4" d="m128 12 98 57v118l-98 57-98-57V69Z" /><path
      fill="#5a2d0e"
      stroke="#f8c85e"
      stroke-width="5"
      d="m128 28 83 48v104l-83 48-83-48V76Z"
    /><path fill="#6f3b10" stroke="#271204" stroke-width="3" d="m128 40 72 42v92l-72 42-72-42V82Z" opacity=".95" /><path
      fill="#f2b638"
      stroke="#6a3409"
      stroke-width="3"
      d="m128 12 26 15-6 15-20-11-20 11-6-15Zm0 232-26-15 6-15 20 11 20-11 6 15ZM30 69l25-14 13 9-23 14v22l-15-9Zm196 0-25-14-13 9 23 14v22l15-9ZM30 187l25 14 13-9-23-14v-22l-15 9Zm196 0-25 14-13-9 23-14v-22l15 9Z"
    /><g fill="url(#c)" stroke="#2a1606" stroke-width="3"><path d="m123 33 5-10 5 10v22l-5 10-5-10Z" /><path
        d="m123 201 5-10 5 10v22l-5 10-5-10Z"
      /><path d="m34 123 10-7h22l11 12-11 12H44Z" /><path d="m222 123-10-7h-22l-11 12 11 12h22Z" /></g><circle
      cx="128"
      cy="128"
      r="82"
      fill="#3f210b"
      stroke="#1c0d03"
      stroke-width="4"
    /><circle cx="128" cy="128" r="72" fill="none" stroke="#f5c653" stroke-width="5" /><circle
      cx="128"
      cy="128"
      r="56"
      fill="none"
      stroke="#d87810"
      stroke-dasharray="58 16 40 18"
      stroke-width="10"
      transform="rotate(-18 128 128)"
    /><circle
      cx="128"
      cy="128"
      r="45"
      fill="none"
      stroke="#ffe071"
      stroke-dasharray="36 14 46 12"
      stroke-width="7"
      transform="rotate(25 128 128)"
    /><circle cx="128" cy="128" r="29" fill="none" stroke="#f4bd45" stroke-width="5" /><circle
      cx="128"
      cy="128"
      r="18"
      fill="#7b4312"
      stroke="#f6cc60"
      stroke-width="4"
    /><path
      fill="none"
      stroke="#f8cf61"
      stroke-width="5"
      d="M128 64v31m0 66v31m-64-64h31m66 0h31M83 83l16 16m74-16-16 16m-74 74 16-16m74 16-16-16"
    /><g fill="#ffe071" stroke="#75400d" stroke-width="3"><circle cx="128" cy="64" r="7" /><circle
        cx="128"
        cy="192"
        r="7"
      /><circle cx="64" cy="128" r="7" /><circle cx="192" cy="128" r="7" /><circle cx="83" cy="83" r="7" /><circle
        cx="173"
        cy="83"
        r="7"
      /><circle cx="83" cy="173" r="7" /><circle cx="173" cy="173" r="7" /></g><circle
      cx="128"
      cy="128"
      r="17"
      fill="url(#c)"
      stroke="#123a36"
      stroke-width="4"
    /><circle cx="128" cy="128" r="10" fill="#63e7d8" opacity=".6" /><path
      fill="none"
      stroke="#1e0e03"
      stroke-width="3"
      d="m68 72 24-14m96 0 24 14M68 184l24 14m96 0 24-14M70 102V84m116 18V84M70 154v18m116-18v18"
      opacity=".8"
    /></g></svg>
