<svg
  xmlns="http://www.w3.org/2000/svg"
  width="256"
  height="256"
  aria-labelledby="title desc"
  viewBox="0 0 256 256"
><title>Spice crystal reward icon</title><desc
  >Transparent sci-fi reward icon showing amber spice crystals in a warm metallic desert ornament frame with turquoise accents.</desc><defs
  ><linearGradient id="b" x1="54" x2="202" y1="32" y2="222" gradientUnits="userSpaceOnUse"><stop
        offset="0"
        stop-color="#ffe49a"
      /><stop offset=".28" stop-color="#d9982f" /><stop offset=".58" stop-color="#8b511d" /><stop
        offset="1"
        stop-color="#f2b84a"
      /></linearGradient><linearGradient id="c" x1="62" x2="194" y1="46" y2="212" gradientUnits="userSpaceOnUse"><stop
        offset="0"
        stop-color="#6e421c"
      /><stop offset="1" stop-color="#2c1a0e" /></linearGradient><linearGradient
      id="h"
      x1="90"
      x2="154"
      y1="54"
      y2="188"
      gradientUnits="userSpaceOnUse"
    ><stop offset="0" stop-color="#ffeca9" /><stop offset=".2" stop-color="#ffb22e" /><stop
        offset=".58"
        stop-color="#e96708"
      /><stop offset="1" stop-color="#7d310d" /></linearGradient><linearGradient
      id="g"
      x1="78"
      x2="126"
      y1="88"
      y2="188"
      gradientUnits="userSpaceOnUse"
    ><stop offset="0" stop-color="#fff0a8" /><stop offset=".48" stop-color="#f47a0a" /><stop
        offset="1"
        stop-color="#6e2a0d"
      /></linearGradient><linearGradient id="f" x1="61" x2="190" y1="169" y2="204" gradientUnits="userSpaceOnUse"><stop
        offset="0"
        stop-color="#8d4a18"
      /><stop offset=".45" stop-color="#d58927" /><stop offset="1" stop-color="#f4c15f" /></linearGradient><filter
      id="e"
      width="180%"
      height="180%"
      x="-40%"
      y="-40%"
    ><feGaussianBlur result="blur" stdDeviation="3" /><feMerge><feMergeNode in="blur" /><feMergeNode
          in="SourceGraphic"
        /></feMerge></filter><filter id="a" width="160%" height="160%" x="-30%" y="-30%"><feDropShadow
        dx="0"
        dy="4"
        flood-color="#1a0d05"
        flood-opacity=".42"
        stdDeviation="3"
      /></filter><radialGradient id="d" cx="50%" cy="35%" r="65%"><stop offset="0" stop-color="#b8fff5" /><stop
        offset=".45"
        stop-color="#17d7ce"
      /><stop offset="1" stop-color="#047c82" /></radialGradient></defs><g filter="url(#a)"><circle
      cx="128"
      cy="128"
      r="96"
      fill="none"
      stroke="url(#b)"
      stroke-width="12"
    /><circle cx="128" cy="128" r="83" fill="none" stroke="url(#c)" stroke-width="12" /><circle
      cx="128"
      cy="128"
      r="75"
      fill="none"
      stroke="#f6c867"
      stroke-width="3"
      opacity=".9"
    /><path fill="url(#b)" stroke="#6b3b15" stroke-width="2" d="m52 119-21-12 17-15 7 9 14 6v12Z" /><path
      fill="url(#b)"
      stroke="#6b3b15"
      stroke-width="2"
      d="m204 119 21-12-17-15-7 9-14 6v12Z"
    /><path fill="url(#b)" stroke="#6b3b15" stroke-width="2" d="m112 38 16-28 16 28-7 16h-18Z" /><path
      fill="url(#b)"
      stroke="#6b3b15"
      stroke-width="2"
      d="m110 221 18 25 18-25-7-14h-22Z"
    /><path fill="url(#d)" d="M125 27h6v31h-6Z" filter="url(#e)" /><path
      stroke="#18e4d3"
      stroke-linecap="round"
      stroke-width="4"
      d="M43 111h25"
      filter="url(#e)"
    /><path stroke="#18e4d3" stroke-linecap="round" stroke-width="4" d="M188 111h25" filter="url(#e)" /><circle
      cx="128"
      cy="219"
      r="13"
      fill="#4a2b12"
      stroke="#f5c25c"
      stroke-width="4"
    /><circle cx="128" cy="219" r="8" fill="url(#d)" filter="url(#e)" /></g><g filter="url(#a)"><path
      fill="url(#f)"
      d="M54 190c18-21 44-14 62-21 20-9 52 1 72 16-19 18-97 22-134 5"
    /><path fill="none" stroke="#7b3c14" stroke-width="3" d="M62 193c29-12 75-10 120-3" opacity=".35" /><circle
      cx="86"
      cy="185"
      r="4"
      fill="#6f3512"
      opacity=".8"
    /><circle cx="170" cy="183" r="5" fill="#8d4415" opacity=".8" /><circle
      cx="106"
      cy="195"
      r="3"
      fill="#5f2b0e"
      opacity=".7"
    /><circle cx="151" cy="195" r="3" fill="#6b310e" opacity=".7" /></g><g filter="url(#a)"><path
      fill="url(#g)"
      stroke="#fbb64d"
      stroke-width="2"
      d="m68 179 8-75 31 25 3 54Z"
    /><path fill="#ffd66e" d="m76 104 19-16 12 41Z" opacity=".95" /><path
      fill="#d95b08"
      d="m95 88 27 58-15-17Z"
      opacity=".9"
    /><path fill="#9a3a0b" d="m76 104 12 42-20 33Z" opacity=".75" /><path
      fill="#ff8911"
      d="m88 146 19-17 3 54Z"
      opacity=".82"
    /><path fill="url(#g)" stroke="#fbb64d" stroke-width="2" d="m146 183 5-58 33-25 9 77Z" /><path
      fill="#ffe088"
      d="m151 125 12-37 21 12Z"
      opacity=".95"
    /><path fill="#a43b0c" d="m163 88 30 89-9-77Z" opacity=".8" /><path
      fill="#ff9b16"
      d="m151 125 17 19-22 39Z"
      opacity=".85"
    /><path fill="#d85a08" d="m168 144 16-44 9 77Z" opacity=".78" /><path
      fill="url(#h)"
      stroke="#ffd673"
      stroke-width="2.2"
      d="m101 180 2-98 25-42 25 42 2 98Z"
    /><path fill="#ffb22c" d="m103 82 25-42v140h-27Z" opacity=".72" /><path
      fill="#b8440a"
      d="m128 40 25 42-25 98Z"
      opacity=".75"
    /><path fill="#fff0ae" d="m103 82 25 16 25-16-25-42Z" opacity=".72" /><path
      fill="#ec6808"
      d="m128 98 25-16 2 98h-27Z"
      opacity=".68"
    /><path fill="#ff9414" d="m103 82 25 16v82h-27Z" opacity=".55" /><path
      stroke="#fff0ae"
      stroke-width="3"
      d="M128 40v140"
      opacity=".65"
    /><path fill="none" stroke="#ffeaa4" stroke-width="2" d="m104 82 24 16 24-16" opacity=".85" /><path
      fill="#ff9a13"
      stroke="#ffd36b"
      stroke-width="1.5"
      d="m112 188 4-35 16-15 5 50Z"
    /><path fill="#fff0a9" d="m116 153 10 9 6-24Z" opacity=".75" /><path
      fill="#d65b09"
      stroke="#ffd36b"
      stroke-width="1.5"
      d="m137 188 5-30 15-9 3 38Z"
    /><path fill="#ffe491" d="m142 158 9 8 6-17Z" opacity=".72" /><path
      fill="#c84b08"
      stroke="#f7b94f"
      stroke-width="1.4"
      d="m94 189 4-27 15-11 3 38Z"
    /><path fill="#ffe18a" d="m98 162 9 8 6-19Z" opacity=".68" /></g><g opacity=".8"><circle
      cx="119"
      cy="91"
      r="1.3"
      fill="#ffe9a1"
    /><circle cx="137" cy="113" r="1.1" fill="#ffd875" /><circle cx="93" cy="139" r="1.1" fill="#ffe9a1" /><circle
      cx="171"
      cy="132"
      r="1.2"
      fill="#ffe9a1"
    /><circle cx="122" cy="151" r="1.4" fill="#fff3b0" /><circle cx="147" cy="165" r="1.1" fill="#ffd56b" /></g></svg>
