<svg xmlns="http://www.w3.org/2000/svg" width="256" height="256" fill="none" viewBox="0 0 256 256"><defs><linearGradient
      id="b"
      x1="58"
      x2="198"
      y1="22"
      y2="235"
      gradientUnits="userSpaceOnUse"
    ><stop offset="0" stop-color="#f8c868" /><stop offset=".42" stop-color="#c97822" /><stop
        offset="1"
        stop-color="#6b2e12"
      /></linearGradient><linearGradient id="c" x1="91" x2="165" y1="48" y2="198" gradientUnits="userSpaceOnUse"><stop
        offset="0"
        stop-color="#a94a0a"
      /><stop offset=".45" stop-color="#d66b10" /><stop
        offset="1"
        stop-color="#4a1b0b"
      /></linearGradient><linearGradient id="e" x1="84" x2="170" y1="65" y2="166" gradientUnits="userSpaceOnUse"><stop
        offset="0"
        stop-color="#fff0a5"
      /><stop offset=".46" stop-color="#d9942d" /><stop
        offset="1"
        stop-color="#7b3a12"
      /></linearGradient><linearGradient id="g" x1="118" x2="139" y1="112" y2="138" gradientUnits="userSpaceOnUse"><stop
        offset="0"
        stop-color="#76fff2"
      /><stop offset=".55" stop-color="#23d0c7" /><stop offset="1" stop-color="#087f83" /></linearGradient><filter
      id="a"
      width="196"
      height="235"
      x="30"
      y="10"
      color-interpolation-filters="sRGB"
      filterUnits="userSpaceOnUse"
    ><feDropShadow dx="0" dy="3" flood-color="#1b0802" flood-opacity=".55" stdDeviation="2.2" /></filter><filter
      id="f"
      width="52"
      height="52"
      x="102"
      y="96"
      color-interpolation-filters="sRGB"
      filterUnits="userSpaceOnUse"
    ><feGaussianBlur result="blur" stdDeviation="2.5" /><feMerge><feMergeNode in="blur" /><feMergeNode
          in="SourceGraphic"
        /></feMerge></filter><radialGradient
      id="d"
      cx="0"
      cy="0"
      r="1"
      gradientTransform="matrix(0 73 -64 0 128 104)"
      gradientUnits="userSpaceOnUse"
    ><stop offset="0" stop-color="#ffa92c" stop-opacity=".55" /><stop
        offset=".65"
        stop-color="#b84b0a"
        stop-opacity=".25"
      /><stop offset="1" stop-color="#2e0f06" stop-opacity="0" /></radialGradient></defs><g filter="url(#a)"><path
      fill="url(#b)"
      stroke="#4a1b09"
      stroke-linejoin="round"
      stroke-width="4"
      d="M128 21c-44.8 0-78 33.7-78 78.6 0 49.9 59.2 119.5 73.8 135.9 2.3 2.6 6.1 2.6 8.4 0 14.6-16.4 73.8-86 73.8-135.9 0-44.9-33.2-78.6-78-78.6Z"
    /><path
      fill="#53200b"
      d="M128 33c-36.5 0-64 27.4-64 65.6 0 38.7 37.1 89.7 64 121.2 26.9-31.5 64-82.5 64-121.2 0-38.2-27.5-65.6-64-65.6"
      opacity=".9"
    /><path
      fill="#d89535"
      d="M128 36c-34.5 0-60 25.6-60 61.2 0 4 .4 8.1 1.1 12.3h24.4c-.6-3.6-.9-7.2-.9-10.9 0-21.7 15.2-38.7 35.4-38.7s35.4 17 35.4 38.7c0 3.7-.3 7.3-.9 10.9h24.4c.7-4.2 1.1-8.3 1.1-12.3 0-35.6-25.5-61.2-60-61.2"
    /><path
      fill="#8d3a12"
      d="M73 119c7.4 28.8 30.9 63.7 55 93.6 24.1-29.9 47.6-64.8 55-93.6h-23.5c-8.1 20.8-22.2 42.9-31.5 55.9-9.3-13-23.4-35.1-31.5-55.9z"
    /><path
      fill="#c26b22"
      d="M79 121c7.8 24.3 28.1 54.8 49 81.4 20.9-26.6 41.2-57.1 49-81.4h-14.2c-8.6 21.2-23.1 42.8-34.8 58.5-11.7-15.7-26.2-37.3-34.8-58.5z"
      opacity=".72"
    /><circle cx="128" cy="98" r="55" fill="url(#c)" stroke="#3c1507" stroke-width="4" /><circle
      cx="128"
      cy="98"
      r="49"
      fill="url(#d)"
    /><circle
      cx="128"
      cy="98"
      r="40"
      stroke="#f3b543"
      stroke-dasharray="54 16"
      stroke-linecap="round"
      stroke-width="3"
    /><circle
      cx="128"
      cy="98"
      r="28"
      stroke="#e28b25"
      stroke-dasharray="8 7"
      stroke-opacity=".6"
      stroke-width="1.5"
    /><path
      fill="#9e4a16"
      stroke="#54200a"
      stroke-linejoin="round"
      stroke-width="3"
      d="M48 95h22v15H48l-10-7.5zm160 0h-22v15h22l10-7.5z"
    /><path
      stroke="#f0b54e"
      stroke-linecap="round"
      stroke-width="2"
      d="M51 100h16m-16 6h16m122-6h16m-16 6h16"
      opacity=".65"
    /><path
      fill="url(#e)"
      stroke="#6e2d0c"
      stroke-linejoin="round"
      stroke-width="3"
      d="m128 15 15 16v34l-15 16-15-16V31z"
    /><path
      fill="#ffe08b"
      fill-opacity=".58"
      stroke="#7c370f"
      stroke-width="2"
      d="m128 31 10 13v16l-10 10-10-10V44z"
    /><path fill="#c76b14" stroke="#6a2a08" stroke-width="1.5" d="m128 47 6 6-6 7-6-7z" /><path
      stroke="#ffc85c"
      stroke-linecap="round"
      stroke-width="3"
      d="M72 98h34m44 0h34m-56-56v34m0 44v34"
      opacity=".8"
    /><path
      stroke="#e99e32"
      stroke-linecap="round"
      stroke-width="2"
      d="m86 75 10 10m74-10-10 10m-74 36 10-10m74 10-10-10"
      opacity=".65"
    /><path
      fill="url(#e)"
      stroke="#5a2108"
      stroke-linejoin="round"
      stroke-width="3"
      d="m128 51 11 37 37 10-37 10-11 46-11-46-37-10 37-10z"
    /><path fill="#ffeaa2" fill-opacity=".68" d="m128 72 7 21 21 5-21 5-7 27-7-27-21-5 21-5z" /><path
      fill="#b8661e"
      stroke="#6c2809"
      stroke-linejoin="round"
      stroke-width="3"
      d="m128 86 21 12-21 12-21-12z"
    /><path stroke="#ffe38a" stroke-linejoin="round" stroke-width="5" d="m128 79 19 19-19 19-19-19z" /><g
      filter="url(#f)"
    ><path
        fill="url(#g)"
        stroke="#063f43"
        stroke-linejoin="round"
        stroke-width="2.5"
        d="m128 85 13 13-13 13-13-13z"
      /><path
        stroke="#bffff9"
        stroke-linecap="round"
        stroke-width="1.4"
        d="M128 88v20m-10-10h20"
        opacity=".8"
      /></g><path fill="#5a210b" d="m89 135 18 19 21 49 21-49 18-19-19 70-20 25-20-25z" opacity=".75" /><path
      fill="#c47a28"
      d="m96 139 16 18 16 42 16-42 16-18-17 62-15 21-15-21z"
      opacity=".65"
    /><path stroke="#f4bd56" stroke-linecap="round" stroke-width="4" d="m105 153 16 25m30-25-16 25" /><path
      stroke="#ffb83f"
      stroke-linecap="round"
      stroke-width="4"
      d="M128 171v26"
    /><circle cx="128" cy="208" r="4" fill="#ffb83f" /><path
      stroke="#ffd166"
      stroke-linecap="round"
      stroke-linejoin="round"
      stroke-width="5"
      d="m115 159 13 12 13-12"
    /><path
      stroke="#72300d"
      stroke-linecap="round"
      stroke-width="2"
      d="m73 58 8 4m100-4-8 4M73 75h8m94 0h8M93 37l-7 10m77-10 7 10"
      opacity=".45"
    /><path
      stroke="#f0b24c"
      stroke-linecap="round"
      stroke-width="2"
      d="M58 121h14m112 0h14M70 133h12m92 0h12"
      opacity=".55"
    /></g></svg>
