<svg
  xmlns="http://www.w3.org/2000/svg"
  width="256"
  height="256"
  aria-label="Spice story progression icon"
  viewBox="0 0 256 256"
><defs><linearGradient id="c" x1="0" x2="0" y1="36" y2="198" gradientUnits="userSpaceOnUse"><stop
        offset="0"
        stop-color="#fff0b8"
      /><stop offset=".55" stop-color="#efc46b" /><stop
        offset="1"
        stop-color="#c77a21"
      /></linearGradient><linearGradient id="d" x1="256" x2="256" y1="36" y2="198" gradientUnits="userSpaceOnUse"><stop
        offset="0"
        stop-color="#fff3bf"
      /><stop offset=".55" stop-color="#e9b95a" /><stop
        offset="1"
        stop-color="#b96717"
      /></linearGradient><linearGradient id="b" x1="55" x2="201" y1="43" y2="216" gradientUnits="userSpaceOnUse"><stop
        offset="0"
        stop-color="#ffc44c"
      /><stop offset=".32" stop-color="#a54d12" /><stop offset=".68" stop-color="#63300e" /><stop
        offset="1"
        stop-color="#f6a51b"
      /></linearGradient><radialGradient id="f" cx="50%" cy="38%" r="62%"><stop offset="0" stop-color="#d9fffa" /><stop
        offset=".32"
        stop-color="#31d9d2"
      /><stop offset="1" stop-color="#056f78" /></radialGradient><filter
      id="a"
      width="140%"
      height="150%"
      x="-20%"
      y="-20%"
    ><feDropShadow dx="0" dy="5" flood-color="#3b1708" flood-opacity=".45" stdDeviation="4" /></filter></defs><g
    filter="url(#a)"
  ><path
      fill="#3e1c0b"
      d="M128 28c37 0 68 25 76 58h14l14 16v46l-14 16h-16c-10 28-38 49-74 49s-64-21-74-49H38l-14-16v-46l14-16h14c8-33 39-58 76-58"
      opacity=".98"
    /><path
      fill="none"
      stroke="url(#b)"
      stroke-linejoin="round"
      stroke-width="8"
      d="M128 36c34 0 62 23 68 54h17l10 12v45l-10 12h-18c-11 27-36 45-67 45s-56-18-67-45H43l-10-12v-45l10-12h17c6-31 34-54 68-54Z"
    /><path
      fill="none"
      stroke="#f1a21d"
      stroke-linecap="round"
      stroke-width="2.5"
      d="M128 45c27 0 51 16 61 40m0 85c-10 24-33 40-61 40s-51-16-61-40m0-85c10-24 34-40 61-40"
      opacity=".8"
    /><path
      fill="#4e2109"
      stroke="#f6a51b"
      stroke-linejoin="round"
      stroke-width="5"
      d="M49 86c28-8 54-3 79 16 25-19 51-24 79-16v97c-26-7-52-3-79 15-27-18-53-22-79-15z"
    /><path fill="url(#c)" stroke="#ffe09a" stroke-width="2" d="M128 101c-24-19-49-25-75-17v91c27-7 52-1 75 18z" /><path
      fill="url(#d)"
      stroke="#ffe09a"
      stroke-width="2"
      d="M128 101c24-19 49-25 75-17v91c-27-7-52-1-75 18z"
    /><path stroke="#7e3a0f" stroke-linecap="round" stroke-width="4" d="M128 100v95" /><path
      fill="none"
      stroke="#2f1408"
      stroke-linecap="round"
      stroke-width="5"
      d="M54 181c25-5 49 0 74 17m74-17c-25-5-49 0-74 17"
      opacity=".45"
    /><clipPath id="e"><path d="M62 96c21-2 40 4 58 18v54c-19-12-38-17-58-14z" /></clipPath><g clip-path="url(#e)"><path
        fill="#f7d98a"
        d="M58 91h66v82H58z"
        opacity=".15"
      /><circle cx="88" cy="119" r="10" fill="#f4a829" opacity=".88" /><path
        fill="#d66e16"
        d="M49 161c20-31 44-36 76-17v39H49Z"
      /><path fill="#a84d13" d="M51 174c19-25 45-32 74-13v32H51Z" opacity=".88" /><path
        fill="none"
        stroke="#ffe1a0"
        stroke-width="3"
        d="M51 151c25-12 48-9 74 9"
        opacity=".72"
      /></g><path
      fill="none"
      stroke="#e87d1a"
      stroke-width="2"
      d="M62 96c21-2 40 4 58 18v54c-19-12-38-17-58-14z"
      opacity=".88"
    /><g stroke="#7b300b" stroke-linejoin="round" stroke-width="1.4"><path
        fill="#d66e16"
        d="m162 153 12-55 14 44-15 21Z"
      /><path fill="#f18a19" d="m174 98 21 20-7 24Z" /><path fill="#b85214" d="m148 158 15-37 10 42Z" /><path
        fill="#f0a024"
        d="m186 157 19-36 4 41Z"
      /><path fill="#8f3b10" d="M151 166c16-8 39-8 58 0-18 7-39 8-58 0Z" opacity=".82" /></g><path
      fill="none"
      stroke="#e87d1a"
      stroke-width="2"
      d="M137 96c22-3 41 2 59 18v54c-19-12-38-17-59-14z"
      opacity=".88"
    /><g fill="none" stroke="#c85c13" stroke-linecap="round" stroke-linejoin="round" stroke-width="2" opacity=".9"><path
        d="M67 104h18l11 8h20m-49 1v15m5 35h18m99-59h-18l-11 8h-20m49 1v15m-5 35h-18"
      /><path d="M95 88c10 2 19 5 27 11m39-11c-10 2-19 5-27 11" opacity=".7" /></g><g
      fill="#e77818"
      opacity=".75"
    ><circle cx="76" cy="141" r="2" /><circle cx="91" cy="96" r="2" /><circle cx="111" cy="107" r="1.7" /><circle
        cx="180"
        cy="141"
        r="2"
      /><circle cx="165" cy="96" r="2" /><circle cx="145" cy="107" r="1.7" /></g><rect
      width="8"
      height="30"
      x="36"
      y="111"
      fill="url(#f)"
      stroke="#ffe073"
      stroke-width="2"
      rx="4"
    /><rect width="8" height="30" x="212" y="111" fill="url(#f)" stroke="#ffe073" stroke-width="2" rx="4" /><circle
      cx="128"
      cy="203"
      r="17"
      fill="#5a260b"
      stroke="#f6a51b"
      stroke-width="5"
    /><circle cx="128" cy="203" r="10" fill="url(#f)" /><circle
      cx="124"
      cy="199"
      r="4"
      fill="#e4fffb"
      opacity=".9"
    /><path fill="#f6a51b" stroke="#ffe09a" stroke-linejoin="round" stroke-width="2" d="m128 16 9 39-9 23-9-23z" /><path
      stroke="#8b3a0d"
      stroke-width="2"
      d="M128 16v62"
      opacity=".5"
    /><path
      fill="#f6a51b"
      stroke="#7a3510"
      stroke-linejoin="round"
      stroke-width="2"
      d="m111 217 17 23 17-23-17 8z"
    /></g></svg>
