<svg
  xmlns="http://www.w3.org/2000/svg"
  width="256"
  height="256"
  aria-label="Spice desert faction crest icon"
  viewBox="0 0 256 256"
><defs><linearGradient id="c" x1="0" x2="1" y1="0" y2="1"><stop offset="0" stop-color="#f49a22" /><stop
        offset=".55"
        stop-color="#b95712"
      /><stop offset="1" stop-color="#54270f" /></linearGradient><linearGradient
      id="b"
      x1="0"
      x2="1"
      y1="0"
      y2="1"
    ><stop offset="0" stop-color="#ffe7a6" /><stop offset=".45" stop-color="#dfa744" /><stop
        offset="1"
        stop-color="#7a3d13"
      /></linearGradient><linearGradient id="e" x1="0" x2="1" y1="0" y2="1"><stop
        offset="0"
        stop-color="#9ef6e9"
      /><stop offset=".55" stop-color="#24bfc2" /><stop
        offset="1"
        stop-color="#086f78"
      /></linearGradient><radialGradient id="d" cx="50%" cy="45%" r="60%"><stop
        offset="0"
        stop-color="#ffe49a"
        stop-opacity=".95"
      /><stop offset=".58" stop-color="#e58a20" stop-opacity=".82" /><stop
        offset="1"
        stop-color="#743611"
        stop-opacity=".85"
      /></radialGradient><filter id="a" width="140%" height="140%" x="-20%" y="-20%"><feDropShadow
        dx="0"
        dy="3"
        flood-color="#2d1208"
        flood-opacity=".35"
        stdDeviation="2"
      /></filter></defs><g filter="url(#a)"><path
      fill="url(#b)"
      d="m128 12 23 36 39-17 39 53-22 67-79 87-79-87-22-67 39-53 39 17Z"
    /><path fill="url(#c)" d="m128 27 17 32 39-15 31 44-19 57-68 77-68-77-19-57 31-44 39 15Z" /></g><path
    fill="url(#d)"
    d="M61 95c14-42 39-57 67-57s53 15 67 57l-11 44c-17-20-36-29-56-29s-39 9-56 29Z"
    opacity=".96"
  /><path
    fill="#c8751d"
    d="M67 112c22-16 36-13 61-1 24 11 39 10 61-6l-4 23c-19-9-37-6-57 5-21 11-40 10-58-3Z"
    opacity=".78"
  /><path
    fill="#9c5018"
    d="M70 132c22-14 36-11 58 1 22 11 38 10 57-3l-5 15c-18-6-33-2-52 9-20 12-37 9-52-3Z"
    opacity=".85"
  /><path fill="none" stroke="#ffd979" stroke-width="2" d="M75 95a57 57 0 0 1 106 0" opacity=".75" /><path
    fill="url(#b)"
    d="m30 111 45 48 25-8-35 54-26-21Z"
  /><path fill="url(#b)" d="m226 111-45 48-25-8 35 54 26-21Z" /><path
    fill="#a94f13"
    d="m47 129 33 34-15 25-16-14Zm162 0-33 34 15 25 16-14Z"
    opacity=".95"
  /><path stroke="#f0b64a" stroke-linecap="round" stroke-width="3" d="m62 171 24 6m108-6-24 6" opacity=".85" /><path
    fill="url(#b)"
    d="m128 10 12 36v80l-12 25-12-25V46Z"
  /><path fill="#7b350f" d="m128 30 5 27v72l-5 12-5-12V57Z" opacity=".75" /><path
    stroke="#fff0b8"
    stroke-width="3"
    d="M128 20v119"
    opacity=".75"
  /><path fill="url(#b)" d="m102 75 14 57-15 30-21-8 20-31Z" /><path
    fill="url(#b)"
    d="m154 75-14 57 15 30 21-8-20-31Z"
  /><path fill="#612b12" d="m86 151 26 21 16 58-25-27-24-22Zm84 0-26 21-16 58 25-27 24-22Z" /><path
    fill="url(#b)"
    d="m108 171 20 59 20-59-20 17Z"
  /><path fill="#733311" d="m128 181 11 22-11 22-11-22Z" /><circle cx="128" cy="147" r="37" fill="#5b280e" /><circle
    cx="128"
    cy="147"
    r="31"
    fill="url(#b)"
  /><circle cx="128" cy="147" r="24" fill="#0d7271" /><circle cx="128" cy="147" r="20" fill="url(#e)" /><path
    fill="#54dad2"
    d="m128 126 21 21-21 21-21-21Z"
  /><path fill="#b3fff3" d="M128 126v21h-21Z" opacity=".75" /><path
    fill="#3bc8c9"
    d="m128 126 21 21h-21Z"
    opacity=".85"
  /><path fill="#108b94" d="m128 168 21-21h-21Z" opacity=".9" /><path
    fill="#1eaeb0"
    d="m128 168-21-21h21Z"
    opacity=".95"
  /><path fill="url(#b)" d="m128 107 6 26-6 7-6-7Z" /><path fill="url(#b)" d="m128 187 6-26-6-7-6 7Z" /><path
    fill="url(#b)"
    d="m88 147 26-6 7 6-7 6Z"
  /><path fill="url(#b)" d="m168 147-26-6-7 6 7 6Z" /><path
    stroke="#ffd77a"
    stroke-width="2"
    d="m72 72 27-17m85 17-27-17"
    opacity=".55"
  /><path stroke="#dfa744" stroke-linecap="round" stroke-width="3" d="m96 192 19 19m45-19-19 19" /><circle
    cx="86"
    cy="84"
    r="3"
    fill="#ffd979"
  /><circle cx="170" cy="84" r="3" fill="#ffd979" /><circle cx="63" cy="163" r="3" fill="#f4b33f" /><circle
    cx="193"
    cy="163"
    r="3"
    fill="#f4b33f"
  /><path fill="#ffe49a" d="m79 104 5 7 8 3-8 3-5 7-5-7-8-3 8-3Z" opacity=".9" /></svg>
